<?xml version="1.0" encoding="UTF-8"?>
<svg xmlns="http://www.w3.org/2000/svg" id="Layer_1" data-name="Layer 1" viewBox="0 0 24 24" width="512" height="512"><path d="M16.044,15.434l.739,1.859,4.647-1.846-.739-1.859,1.859-.738L21.293,9.687a12.044,12.044,0,0,0-3.158-4.52l-3.813-3.4a2.98,2.98,0,0,0-3.1-.55L2.362,4.729A2.984,2.984,0,0,0,.48,7.261L.043,12.354A12.082,12.082,0,0,0,.848,17.81L2.1,20.972l1.859-.738L4.7,22.092l4.646-1.845-.739-1.859Zm-13.571-8A.994.994,0,0,1,3.1,6.588l8.855-3.517a1,1,0,0,1,1.035.183L16.7,6.566,2.048,12.386Zm-.4,7.1,1.539-.611.369.93a1,1,0,1,0,1.858-.739l-.369-.929,9.294-3.692.369.929a1,1,0,1,0,1.858-.738l-.369-.929,1.539-.612a10.026,10.026,0,0,1,1.279,2.286l.518,1.3-2.9,1.153-1.747.694h0L7.871,16.529h0L3.224,18.375l-.517-1.3A10.016,10.016,0,0,1,2.068,14.53ZM24,24H22a3,3,0,0,0-6,0H14C14.211,17.391,23.791,17.4,24,24Z"/></svg>
