<?xml version="1.0" encoding="UTF-8"?>
<svg xmlns="http://www.w3.org/2000/svg" id="Layer_1" data-name="Layer 1" viewBox="0 0 24 24" width="512" height="512"><path d="M23.956,14.354,23.52,9.262a2.984,2.984,0,0,0-1.891-2.535l-6.455-2.5a2.987,2.987,0,0,0-3.106.55L8.256,8.185A12.07,12.07,0,0,0,5.1,12.705L3.839,15.872,5.7,16.6,4.96,18.465l4.647,1.847.747-1.88,5.028,1.976-.731,1.839L19.3,24.092l.737-1.855,1.861.732,1.255-3.159A12.068,12.068,0,0,0,23.956,14.354ZM13.4,6.272a1,1,0,0,1,1.044-.18l6.455,2.5a.991.991,0,0,1,.628.843l.426,4.96L9.7,9.581Zm7.893,12.8-.519,1.307h0v0l-4.647-1.846-.008.02-9.681-3.8.517-1.3a10.036,10.036,0,0,1,1.28-2.287l1.54.6L9.4,12.7a1,1,0,1,0,1.859.738l.375-.944,6.89,2.7-.363.914a1,1,0,0,0,1.859.739l.366-.922,1.542.605A10,10,0,0,1,21.293,19.071ZM3.69,11H-.081l2.8-3.5L-.081,4H4V-.032L7.5,2.723,11-.081V3.053L6.923,6.693A14.064,14.064,0,0,0,3.69,11Z"/></svg>
