<?xml version="1.0" encoding="UTF-8"?>
<svg xmlns="http://www.w3.org/2000/svg" id="Layer_1" data-name="Layer 1" viewBox="0 0 24 24" width="512" height="512"><path d="M17.807,11.346a2.65,2.65,0,0,1,0-3.739l0,0L21.5,3.914l1.043,1.043,1.414-1.414-3.5-3.5L19.043,1.457,20.086,2.5,16.4,6.189a2.652,2.652,0,0,1-3.742,0l-.707-.7L.341,17.1l-.074.223c-.044.13-1.031,3.186,1.1,5.316A4.811,4.811,0,0,0,4.858,24a6.241,6.241,0,0,0,1.824-.266l.223-.074L18.512,12.053ZM5.848,21.889A3.371,3.371,0,0,1,2.78,21.22a3.37,3.37,0,0,1-.669-3.068l7.627-7.627A2.57,2.57,0,0,1,10,11.673V14h2.413a2.393,2.393,0,0,1,1.063.26Zm9.071-9.072a4.263,4.263,0,0,0-2.5-.817H12v-.327a4.3,4.3,0,0,0-.818-2.592l.843-.843a4.682,4.682,0,0,0,3.044.693,4.656,4.656,0,0,0,.693,3.043ZM20.5,17A3.5,3.5,0,1,0,24,20.5,3.5,3.5,0,0,0,20.5,17Zm0,5A1.5,1.5,0,1,1,22,20.5,1.5,1.5,0,0,1,20.5,22Z"/></svg>
