<?xml version="1.0" encoding="UTF-8"?>
<svg xmlns="http://www.w3.org/2000/svg" id="Layer_1" data-name="Layer 1" viewBox="0 0 24 24" width="512" height="512"><path d="M24,8L21.754,0H2.246L0,8c0,1.012,.378,1.937,1,2.643v10.357c0,1.654,1.346,3,3,3H12c1.654,0,3-1.346,3-3V11.463c.376-.218,.714-.496,1-.82,.733,.832,1.806,1.357,3,1.357h1c.345,0,.68-.044,1-.127v12.127h2V10.643c.622-.705,1-1.631,1-2.643Zm-12,14H4c-.551,0-1-.449-1-1v-3H13v3c0,.551-.449,1-1,1Zm1-6H3v-4.127c.32,.083,.655,.127,1,.127h1c1.194,0,2.266-.526,3-1.357,.734,.832,1.806,1.357,3,1.357h2v4Zm6-6c-1.103,0-2-.897-2-2h-2c0,1.103-.897,2-2,2h-2c-1.103,0-2-.897-2-2h-2c0,1.103-.897,2-2,2h-1c-1.061,0-1.931-.83-1.996-1.874L3.754,2h3.246v3h2V2h6v3h2V2h3.246l1.75,6.126c-.065,1.044-.936,1.874-1.996,1.874h-1Z"/></svg>
