<?xml version="1.0" encoding="UTF-8"?>
<svg xmlns="http://www.w3.org/2000/svg" id="Layer_1" data-name="Layer 1" viewBox="0 0 24 24" width="512" height="512"><path d="M10.48,2.5A2.5,2.5,0,1,1,12.98,5,2.5,2.5,0,0,1,10.48,2.5ZM20.98,7V24h-2V12H15.362l-.906-1.813-.785,4.033-1.808-1.177.979-5.029c-.033,0-1.96-.014-1.96-.014L9.836,13.372a1,1,0,0,0,.437,1.03l4.707,3.055V24h-2V18.543L9.185,16.08a3.009,3.009,0,0,1-.744-.694A3.3,3.3,0,0,1,6.469,16C4.8,16,3,14.748,3,12,3,8.636,6.036,6,9.913,6h2.831a2.984,2.984,0,0,1,2.684,1.658L16.6,10H18.98V7ZM7.912,12.781h0L8.824,8.1C6.8,8.478,5,9.874,5,12c0,1.9,1.224,2,1.469,2A1.5,1.5,0,0,0,7.912,12.781Zm.029,4.859L6.854,24H8.9l.847-5.174L8.1,17.757C8.04,17.722,7.994,17.677,7.941,17.64Z"/></svg>
