<?xml version="1.0" encoding="UTF-8"?>
<svg xmlns="http://www.w3.org/2000/svg" id="Layer_1" data-name="Layer 1" viewBox="0 0 24 24" width="512" height="512"><path d="M8.5,12a7.863,7.863,0,0,1-4.2-1,7.863,7.863,0,0,1,4.2-1,7.863,7.863,0,0,1,4.2,1A7.863,7.863,0,0,1,8.5,12ZM24,5v8c0,2.493-2.948,4.519-7,4.925V19c0,2.8-3.733,5-8.5,5S0,21.8,0,19V11C0,8.5,2.973,6.48,7,6.075V5c0-2.8,3.733-5,8.5-5S24,2.2,24,5ZM9,5a1.577,1.577,0,0,0,.451,1.03A10.678,10.678,0,0,1,15.343,8H15.5C19.33,8,22,6.419,22,5s-2.67-3-6.5-3S9,3.581,9,5ZM2,11c0,1.419,2.67,3,6.5,3S15,12.419,15,11,12.33,8,8.5,8,2,9.581,2,11Zm13,8V14.255A11.612,11.612,0,0,1,8.5,16,11.612,11.612,0,0,1,2,14.255V19c0,1.419,2.67,3,6.5,3S15,20.419,15,19Zm7-6V8.255a10.866,10.866,0,0,1-5.183,1.688A3.158,3.158,0,0,1,17,11v4.915C20.031,15.566,22,14.21,22,13ZM19.7,5a7.863,7.863,0,0,0-4.2-1,7.863,7.863,0,0,0-4.2,1,7.863,7.863,0,0,0,4.2,1A7.863,7.863,0,0,0,19.7,5Z"/></svg>
