<?xml version="1.0" encoding="UTF-8"?>
<svg xmlns="http://www.w3.org/2000/svg" id="Layer_1" data-name="Layer 1" viewBox="0 0 24 24" width="512" height="512"><path d="M5,23a5,5,0,1,1,5-5A5.006,5.006,0,0,1,5,23Zm0-8a3,3,0,1,0,3,3A3,3,0,0,0,5,15Zm14,8a5,5,0,1,1,5-5A5.006,5.006,0,0,1,19,23Zm0-8a3,3,0,1,0,3,3A3,3,0,0,0,19,15Zm-6-1.46-2.635-2.263a.986.986,0,0,1-.348-.743.967.967,0,0,1,.274-.709l1.963-1.564a1.01,1.01,0,0,1,1.418.068L16.557,11H20V9H17.34L15.063,6.892a2.975,2.975,0,0,0-4.105-.152L8.994,8.3a3,3,0,0,0,.068,4.491L11,14.459V19h2ZM16.5,1A2.5,2.5,0,1,0,19,3.5,2.5,2.5,0,0,0,16.5,1Z"/></svg>
