<?xml version="1.0" encoding="UTF-8"?>
<svg xmlns="http://www.w3.org/2000/svg" id="Layer_1" data-name="Layer 1" viewBox="0 0 24 24" width="512" height="512"><path d="M15.374,15.534,14.5,14.01l-.874,1.524-1.734-1L12.774,13H11V11h1.774l-.882-1.539,1.734-1L14.5,9.99l.874-1.524,1.734,1L16.226,11H18v2H16.226l.882,1.539ZM13.108,17.5l-1.734-1L10.5,18.027,9.626,16.5l-1.734,1,.882,1.538H7v2H8.774l-.882,1.539,1.734,1,.874-1.524.874,1.524,1.734-1-.882-1.539H14v-2H12.226ZM17.44,5.059A8,8,0,0,0,2,8a7.961,7.961,0,0,0,.266,2.049A5.479,5.479,0,0,0,0,14.5,5.274,5.274,0,0,0,5,20V18a3.283,3.283,0,0,1-3-3.5,3.489,3.489,0,0,1,1.911-3.12l.8-.407-.318-.839A6,6,0,1,1,15.752,6.289l.206.691L16.679,7A5.5,5.5,0,0,1,16.5,18H16v2h.5a7.5,7.5,0,0,0,.94-14.941Z"/></svg>
