<?xml version="1.0" encoding="UTF-8"?>
<svg xmlns="http://www.w3.org/2000/svg" id="Layer_1" data-name="Layer 1" viewBox="0 0 24 24" width="512" height="512"><path d="M12,0A12,12,0,1,0,24,12,12.013,12.013,0,0,0,12,0Zm0,22A10,10,0,1,1,22,12,10.011,10.011,0,0,1,12,22Zm-.007-7A21.923,21.923,0,0,0,18,14c-.615,2.28-2.664,5-6,5s-5.392-2.72-6.007-5A21.841,21.841,0,0,0,11.993,15ZM5,8.5a1.5,1.5,0,0,1,3,0,1.5,1.5,0,0,1,3,0c0,1.75-3,3.75-3,3.75S5,10.25,5,8.5Zm14,0c0,1.75-3,3.75-3,3.75s-3-2-3-3.75a1.5,1.5,0,0,1,3,0,1.5,1.5,0,0,1,3,0Z"/></svg>
