<?xml version="1.0" encoding="UTF-8"?>
<svg xmlns="http://www.w3.org/2000/svg" id="Layer_1" data-name="Layer 1" viewBox="0 0 24 24" width="512" height="512"><path d="M11.993,15A21.923,21.923,0,0,0,18,14c-.615,2.28-2.664,5-6,5s-5.392-2.72-6.007-5A21.841,21.841,0,0,0,11.993,15ZM24,12A12,12,0,1,1,12,0,12.013,12.013,0,0,1,24,12Zm-2,0A10,10,0,1,0,12,22,10.011,10.011,0,0,0,22,12Zm-4.375-1.781L16.1,9l1.524-1.219-1.25-1.562L12.9,9l3.476,2.781Zm-10,1.562L11.1,9,7.625,6.219,6.375,7.781,7.9,9,6.375,10.219Z"/></svg>
