<?xml version="1.0" encoding="UTF-8"?>
<svg xmlns="http://www.w3.org/2000/svg" id="Layer_1" data-name="Layer 1" viewBox="0 0 24 24" width="512" height="512"><path d="M14,4a3,3,0,0,0-3-3H3A3,3,0,0,0,0,4V15H14Zm-2,9H2V4A1,1,0,0,1,3,3h8a1,1,0,0,1,1,1ZM4,5H6v6H4ZM8,5h2v6H8Zm16,7.649a4.972,4.972,0,0,0-.257-1.581L22.4,7.051A3,3,0,0,0,19.559,5H16V17H0v2.5a3.517,3.517,0,0,0,6,2.447A3.517,3.517,0,0,0,12,19.5V19h4v.5a3.5,3.5,0,0,0,7,0V19h1ZM18,17V13h4v4ZM19.559,7a1,1,0,0,1,.949.684L21.612,11H18V7ZM3.5,21A1.5,1.5,0,0,1,2,19.5V19H5v.5A1.5,1.5,0,0,1,3.5,21ZM10,19.5a1.5,1.5,0,0,1-3,0V19h3Zm11,0a1.5,1.5,0,0,1-3,0V19h3Z"/></svg>
