<?xml version="1.0" encoding="UTF-8"?>
<svg xmlns="http://www.w3.org/2000/svg" id="Layer_1" data-name="Layer 1" viewBox="0 0 24 24" width="512" height="512"><path d="M15.982,2.5a2.5,2.5,0,1,1,2.5,2.5A2.5,2.5,0,0,1,15.982,2.5Zm6.179,18.364a2,2,0,0,1-2.672.937l-7.761-3.682,2.818-4.583L11.2,11.07c-.458-.481,0-1.043.117-1.174l.35-.341,2.311,1.1V8.441L13.2,8.067l.769-.75A.973.973,0,0,1,14.729,7a.989.989,0,0,1,.648.295l.567.431v3.887l4.493,2.064.834-1.818-3.327-1.528v-3.6l-1.3-.984A2.911,2.911,0,0,0,14.794,5a3,3,0,0,0-2.256.915L11.274,7.15,5.938,4.607l.758-1.6L4.889,2.152,4.132,3.747l-1.406-.67L1.869,4.884l1.406.67-.758,1.6,1.807.857.757-1.6L9.772,8.65a2.762,2.762,0,0,0,.093,3.908l2.015,1.5-1.97,3.2-9.053-4.3L0,14.769l18.628,8.837a4,4,0,0,0,5.337-1.876Z"/></svg>
