<?xml version="1.0" encoding="UTF-8"?>
<svg xmlns="http://www.w3.org/2000/svg" id="Layer_1" data-name="Layer 1" viewBox="0 0 24 24" width="512" height="512"><path d="M14,11h3.105c-.195,.145-.392,.288-.569,.465l-1.535,1.535h-1v-2Zm-2,3c0-1.36-.974-2.51-2.315-2.733l-3.041-.507c-.373-.062-.644-.382-.644-.76,0-.551,.448-1,1-1h2c.552,0,1,.449,1,1h2c0-1.654-1.346-3-3-3v-1h-2v1c-1.654,0-3,1.346-3,3,0,1.36,.974,2.51,2.315,2.733l3.041,.507c.373,.062,.644,.382,.644,.76,0,.551-.448,1-1,1h-2c-.552,0-1-.449-1-1h-2c0,1.654,1.346,3,3,3v1h2v-1c1.654,0,3-1.346,3-3ZM21,2H3C1.346,2,0,3.346,0,5V22H9v-2H2V5c0-.551,.448-1,1-1H21c.552,0,1,.449,1,1v4.107c.714,.145,1.393,.462,2,.921V5c0-1.654-1.346-3-3-3Zm-1,5h-6v2h6v-2Zm3.121,4.879c.566,.566,.879,1.32,.879,2.121s-.313,1.555-.879,2.122l-7.879,7.878h-4.242v-4.243l7.879-7.878c1.17-1.17,3.072-1.17,4.242,0Zm-1.121,2.121c0-.267-.104-.518-.293-.707-.391-.391-1.023-.39-1.414,0l-7.293,7.292v1.415h1.414l7.293-7.293c.189-.189,.293-.44,.293-.707Z"/></svg>
