<?xml version="1.0" encoding="UTF-8"?>
<svg xmlns="http://www.w3.org/2000/svg" id="Layer_1" data-name="Layer 1" viewBox="0 0 24 24" width="512" height="512"><path d="M16.848,15.206A5.5,5.5,0,0,0,6,16.5a5.566,5.566,0,0,0,.059.807A3.5,3.5,0,0,0,7.5,24h8a4.5,4.5,0,0,0,1.348-8.794ZM15.5,22h-8a1.5,1.5,0,0,1-.145-2.993l1.28-.121L8.2,17.675a3.5,3.5,0,1,1,6.778-1.54l.082.782.779.106A2.5,2.5,0,0,1,15.5,22ZM2,16.512a1.5,1.5,0,0,0,.713,1.277A5.508,5.508,0,0,0,2.059,19.7a3.5,3.5,0,0,1,0-6.381A5.5,5.5,0,0,1,7.5,7.012,5.485,5.485,0,0,1,11.743,9c-.081,0-.162,0-.243,0A7.459,7.459,0,0,0,9.1,9.4a3.5,3.5,0,0,0-4.9,4.292L4.635,14.9l-1.28.121A1.494,1.494,0,0,0,2,16.512ZM24,8.857l-.742,1.618A7.229,7.229,0,0,1,19.3,14.243a6.393,6.393,0,0,0-.83-.521,7.369,7.369,0,0,0-.571-1.137,5.053,5.053,0,0,0,2.611-1.541A6.76,6.76,0,0,1,15.493,7.85a7.357,7.357,0,0,1-.755-5.571,6.05,6.05,0,0,0-.966.475,5.378,5.378,0,0,0-2.452,3.3,7.437,7.437,0,0,0-1.856-.776,7.34,7.34,0,0,1,3.281-4.242A6.625,6.625,0,0,1,16.319,0h1.709l-.837,1.49a5.462,5.462,0,0,0,.017,5.33h0a5.06,5.06,0,0,0,5.023,2.243Z"/></svg>
