<?xml version="1.0" encoding="UTF-8"?>
<svg xmlns="http://www.w3.org/2000/svg" id="Layer_1" data-name="Layer 1" viewBox="0 0 24 24" width="512" height="512"><path d="M18.075,7.091C18.282,5.646,19.062,3,22,3V1a5.386,5.386,0,0,0-3.8,1.4A14.66,14.66,0,0,0,10,0,14.188,14.188,0,0,0,1.36,2.731L.438,3.5l.922.769A12.193,12.193,0,0,0,4.835,6.117,10.22,10.22,0,0,0,1.651,9.289a9.056,9.056,0,0,0-1.488,6.74,6.168,6.168,0,0,0,2.784,3.984,6.28,6.28,0,0,0,3.381.978,7.594,7.594,0,0,0,4.429-1.522A6.809,6.809,0,0,0,17,24c3.991,0,7-3.654,7-8.5C24,11.1,21.519,7.683,18.075,7.091ZM13.927,7.8A6.042,6.042,0,0,0,13,6.712a14.886,14.886,0,0,0,3.338-1.071,9.143,9.143,0,0,0-.279,1.429A6.2,6.2,0,0,0,13.927,7.8ZM10,2a13.1,13.1,0,0,1,6.141,1.5A13.112,13.112,0,0,1,10,5,13.112,13.112,0,0,1,3.859,3.5,13.112,13.112,0,0,1,10,2ZM4.016,18.321a4.205,4.205,0,0,1-1.9-2.718,7.06,7.06,0,0,1,1.21-5.222c2.016-3.1,5.235-4.234,7.657-2.7a4.2,4.2,0,0,1,1.363,1.366A9.308,9.308,0,0,0,10,15.5a11.012,11.012,0,0,0,.16,1.888C8.2,19.127,5.86,19.488,4.016,18.321ZM17,22c-2.9,0-5-2.733-5-6.5S14.1,9,17,9s5,2.733,5,6.5S19.9,22,17,22Zm0-4v2c-1.738,0-3-1.683-3-4h2C16,17.1,16.449,18,17,18ZM5.271,11.35l1.52,1.3a3,3,0,0,0-.73,1.454.755.755,0,0,0,.189.716l-1.3,1.52a2.694,2.694,0,0,1-.872-2.5A4.958,4.958,0,0,1,5.271,11.35Z"/></svg>
