<?xml version="1.0" encoding="UTF-8"?>
<svg xmlns="http://www.w3.org/2000/svg" id="Layer_1" data-name="Layer 1" viewBox="0 0 24 24" width="512" height="512"><path d="M13.973,4a1,1,0,1,1,1,1A1,1,0,0,1,13.973,4Zm-.186,5a6.96,6.96,0,0,0-4.014,1.277,2.862,2.862,0,0,0,2.2.723v2a4.73,4.73,0,0,1-3.65-1.35,6.363,6.363,0,0,0-1.081,2.086A6.507,6.507,0,0,0,10.977,15v2A8.235,8.235,0,0,1,7,15.938,6.5,6.5,0,0,0,13.474,22l8.873-5.418.5.951A9.388,9.388,0,0,1,23.963,21a3,3,0,0,1-3,3h-8.99A11.995,11.995,0,0,1-.011,11.775,12.241,12.241,0,0,1,12.339,0L23.987.023l0,2-2.082,0A8.2,8.2,0,0,1,13.787,9Zm3.669,13h3.51a1,1,0,0,0,1-1,5.061,5.061,0,0,0-.431-1.551ZM6.52,20.382a8.441,8.441,0,0,1-1.534-5.143c0-.087.016-.172.021-.259-.214.02-.429.041-.628.041a5.124,5.124,0,0,1-2.045-.409,9.929,9.929,0,0,0,2.512,4.394A10.107,10.107,0,0,0,6.52,20.382Zm0-9.646A6.1,6.1,0,0,1,3.049,7.627a9.581,9.581,0,0,0-1.06,4.164c.232.436,1.086,1.582,3.421,1.117A8.35,8.35,0,0,1,6.521,10.736Zm3.8-3.033A4.427,4.427,0,0,1,9.53,2.387,10.482,10.482,0,0,0,4.494,5.505,4.059,4.059,0,0,0,8.11,9.04,8.939,8.939,0,0,1,10.323,7.7ZM13.474,7h.5a6,6,0,0,0,5.908-4.984L13.451,2a2.5,2.5,0,0,0,.023,5Z"/></svg>
