<?xml version="1.0" encoding="UTF-8"?>
<svg xmlns="http://www.w3.org/2000/svg" id="Layer_1" data-name="Layer 1" viewBox="0 0 24 24" width="512" height="512"><path d="M7.707,9.293c.391,.391,.391,1.024,0,1.414-.391,.391-1.024,.391-1.414,0-.391-.391-.391-1.024,0-1.414,.391-.391,1.024-.391,1.414,0Zm14.473,3.631l-1.24,1.281c.187,.884-.06,1.842-.745,2.527l-6.244,6.449c-.532,.532-1.225,.819-1.962,.819s-1.43-.287-1.95-.808L1.025,14.18,2.034,5.057l9.137-1.25,8.663,8.663,.92-.95c.308-.307,.308-.788,.012-1.084L12.435,2.107l-7.255,.937-.256-1.983L13.153-.002l9.026,9.026c1.075,1.075,1.075,2.825,0,3.901Zm-3.399,1.321L10.458,5.924l-6.607,.904-.731,6.617,8.333,8.333c.287,.287,.785,.287,1.072,0l6.244-6.449c.308-.307,.308-.788,.012-1.084Z"/></svg>
