<?xml version="1.0" encoding="UTF-8"?>
<svg xmlns="http://www.w3.org/2000/svg" id="Layer_1" data-name="Layer 1" viewBox="0 0 24 24" width="512" height="512"><path d="M24,7a7.476,7.476,0,0,0-7-7H16V3.473A9.691,9.691,0,0,0,6.091,6.087,9.7,9.7,0,0,0,3.478,16H.046l-.04.958a6.58,6.58,0,0,0,1.968,4.719A7.215,7.215,0,0,0,7,24H8V20.526a9.7,9.7,0,0,0,9.913-2.613A9.706,9.706,0,0,0,20.53,8H24ZM6,21.866a5.64,5.64,0,0,1-2.587-1.573A5.1,5.1,0,0,1,2.1,18H6ZM16.5,16.5c-2.59,2.589-6.356,3.257-8.96,1.59l-.992-.636-.636-.992c-1.666-2.6-1-6.371,1.59-8.96s6.356-3.258,8.959-1.591l.992.637.636.992C19.759,10.142,19.091,13.909,16.5,16.5ZM18,6V2.131A5.83,5.83,0,0,1,21.856,6Zm-4.329,7.671,1.414,1.414a6.483,6.483,0,0,1-3.543,1.858,5.007,5.007,0,0,1-.765.06,3.8,3.8,0,0,1-2.728-1.05l1.414-1.414a2.013,2.013,0,0,0,1.775.428A4.543,4.543,0,0,0,13.674,13.671Z"/></svg>
