<?xml version="1.0" encoding="UTF-8"?>
<svg xmlns="http://www.w3.org/2000/svg" id="Layer_1" data-name="Layer 1" viewBox="0 0 24 24" width="512" height="512"><path d="M14.121,16.121a3,3,0,0,0-.008-4.25L12,9.8,9.879,11.878a3,3,0,0,0,4.242,4.244Zm-1.414-1.414h0a1.023,1.023,0,0,1-1.414,0,1,1,0,0,1-.008-1.406L12,12.6l.707.691a1,1,0,0,1,0,1.414ZM16,16.8l-2.121,2.074a3,3,0,0,0,4.242,4.244h0a3,3,0,0,0-.008-4.25Zm.707,4.9h0a1.023,1.023,0,0,1-1.414,0,1,1,0,0,1-.008-1.406L16,19.6l.707.691a1,1,0,0,1,0,1.414ZM8,16.8,5.879,18.878a3,3,0,1,0,4.234-.007Zm.707,4.9h0a1.025,1.025,0,0,1-1.414,0A1,1,0,0,1,7.285,20.3L8,19.6l.707.691a1,1,0,0,1,0,1.414ZM24,12.5a7.5,7.5,0,0,1-3.512,6.341,5.105,5.105,0,0,0-.976-1.4l-.218-.212A5.494,5.494,0,0,0,16.679,7l-.721-.023-.206-.691A6,6,0,0,0,4,8a5.96,5.96,0,0,0,.391,2.134l.319.838-.8.408a3.494,3.494,0,0,0,.317,6.372,4.937,4.937,0,0,0-.979,1.761,5.5,5.5,0,0,1-.984-9.463A8,8,0,0,1,17.44,5.059,7.461,7.461,0,0,1,24,12.5Z"/></svg>
