<?xml version="1.0" encoding="UTF-8"?>
<svg xmlns="http://www.w3.org/2000/svg" id="Layer_1" data-name="Layer 1" viewBox="0 0 24 24" width="512" height="512"><path d="M10.17,15.244l.78-.78L9.536,13.05l-.78.78A4.952,4.952,0,0,0,7,13.1V12H5v1.1a4.952,4.952,0,0,0-1.756.729l-.78-.78L1.05,14.464l.78.78A4.952,4.952,0,0,0,1.1,17H0v2H1.1a4.952,4.952,0,0,0,.729,1.756l-.78.78L2.464,22.95l.78-.78A4.952,4.952,0,0,0,5,22.9V24H7V22.9a4.952,4.952,0,0,0,1.756-.729l.78.78,1.414-1.414-.78-.78A4.952,4.952,0,0,0,10.9,19H12V17H10.9A4.952,4.952,0,0,0,10.17,15.244ZM6,21a3,3,0,0,1,0-6A3,3,0,0,1,6,21ZM24,11a3,3,0,0,0-3-3H20V5H18V8H15.554L11.436,1.41A2.983,2.983,0,0,0,8.892,0H3V8a3,3,0,0,0-3,3v1.721a8.021,8.021,0,0,1,2-1.642V11a1,1,0,0,1,1-1H21a1,1,0,0,1,1,1v1.667l-1.955,2.606c-6.729-2-8.559,8.3-1.545,8.727a4.522,4.522,0,0,0,3.226-7.634L24,13.333ZM5,2H8.892a.992.992,0,0,1,.847.47L13.2,8H5ZM18.5,22a2.5,2.5,0,0,1,0-5A2.5,2.5,0,0,1,18.5,22Z"/></svg>
