<?xml version="1.0" encoding="UTF-8"?>
<svg xmlns="http://www.w3.org/2000/svg" id="Layer_1" data-name="Layer 1" viewBox="0 0 24 24" width="512" height="512"><path d="M15,12a1,1,0,1,1-1-1A1,1,0,0,1,15,12ZM12,8a1,1,0,1,0,1,1A1,1,0,0,0,12,8Zm2-1a1,1,0,1,0-1-1A1,1,0,0,0,14,7Zm-4,4a1,1,0,1,0,1,1A1,1,0,0,0,10,11Zm6-3a1,1,0,1,0,1,1A1,1,0,0,0,16,8Zm5,1a8.941,8.941,0,0,1-5,8.031v.14a2.981,2.981,0,0,1-.878,2.121L13,21.414V24H11V21.414L8.879,19.293A2.982,2.982,0,0,1,8,17.171v-.14A8.988,8.988,0,1,1,21,9Zm-7,8H10v.171a1,1,0,0,0,.293.708L12,19.586l1.707-1.707A1,1,0,0,0,14,17.171Zm5-8A7,7,0,1,0,8.4,15h7.2A6.963,6.963,0,0,0,19,9Z"/></svg>
