<?xml version="1.0" encoding="UTF-8"?>
<svg xmlns="http://www.w3.org/2000/svg" id="Layer_1" data-name="Layer 1" viewBox="0 0 24 24" width="512" height="512"><path d="M22.5,14.316l1.506,1.316A3.97,3.97,0,0,1,18,15.618a3.947,3.947,0,0,1-6,0,3.947,3.947,0,0,1-6,0,3.97,3.97,0,0,1-6.009.014L1.5,14.316A2,2,0,0,0,5,13H7a2,2,0,0,0,4,0h2a2,2,0,0,0,4,0h2a2,2,0,0,0,3.5,1.316ZM21,21a2,2,0,0,1-2-2H17a2,2,0,0,1-4,0H11a2,2,0,0,1-4,0H5a2,2,0,0,1-3.5,1.316L-.009,21.632A3.97,3.97,0,0,0,6,21.618a3.947,3.947,0,0,0,6,0,3.947,3.947,0,0,0,6,0,3.97,3.97,0,0,0,6.009.014L22.5,20.316A2,2,0,0,1,21,21ZM21,9a2,2,0,0,1-2-2H17a2,2,0,0,1-4,0H11A2,2,0,0,1,7,7H5A2,2,0,0,1,1.5,8.316L-.009,9.632A3.97,3.97,0,0,0,6,9.618a3.947,3.947,0,0,0,6,0,3.947,3.947,0,0,0,6,0,3.97,3.97,0,0,0,6.009.014L22.5,8.316A2,2,0,0,1,21,9ZM6,3.618a3.947,3.947,0,0,0,6,0,3.947,3.947,0,0,0,6,0A3.975,3.975,0,0,0,21,5a4,4,0,0,0,3.009-1.368L22.5,2.316A2,2,0,0,1,19,1H17a2,2,0,0,1-4,0H11A2,2,0,0,1,7,1H5A2,2,0,0,1,1.5,2.316L-.009,3.632A4,4,0,0,0,3,5,3.975,3.975,0,0,0,6,3.618Z"/></svg>
