<?xml version="1.0" encoding="UTF-8"?>
<svg xmlns="http://www.w3.org/2000/svg" id="Layer_1" data-name="Layer 1" viewBox="0 0 24 24" width="512" height="512"><g><path d="M22.5,21.315l1.506,1.317A3.97,3.97,0,0,1,18,22.618a3.947,3.947,0,0,1-6,0,3.947,3.947,0,0,1-6,0,3.97,3.97,0,0,1-6.009.014L1.5,21.315A2,2,0,0,0,5,20H7a2,2,0,0,0,4,0h2a2,2,0,0,0,4,0h2a2,2,0,0,0,3.5,1.315Z"/><path d="M6,17.618a3.947,3.947,0,0,0,6,0,3.947,3.947,0,0,0,6,0,3.97,3.97,0,0,0,6.009.014L22.5,16.315A2,2,0,0,1,19,15H17a2,2,0,0,1-4,0H11a2,2,0,0,1-4,0H5a2,2,0,0,1-3.5,1.315L-.009,17.632A3.97,3.97,0,0,0,6,17.618Z"/><path d="M8.707,6.707,7.293,8.121l3.293,3.293a2,2,0,0,0,2.828,0l3.293-3.293L15.293,6.707,13,9V0H11V9Z"/></g></svg>
