<?xml version="1.0" encoding="UTF-8"?>
<svg xmlns="http://www.w3.org/2000/svg" id="Layer_1" data-name="Layer 1" viewBox="0 0 24 24" width="512" height="512"><path d="M24,8a4,4,0,0,0-5.333-3.772,4.247,4.247,0,0,0-2.79-1.212,4,4,0,0,0-7.754,0,4.247,4.247,0,0,0-2.79,1.212A4,4,0,0,0,0,8a3.959,3.959,0,0,0,.773,2.346A4.952,4.952,0,0,0,2,16.979V17a5,5,0,0,0,7.13,4.523L10.956,24h2.088l1.826-2.477A5,5,0,0,0,22,17v-.021a4.952,4.952,0,0,0,1.227-6.633A3.959,3.959,0,0,0,24,8ZM7,20a3,3,0,0,1-3-3c0-.1.135-1.066.135-1.066L3.542,15.6a2.963,2.963,0,0,1-.732-4.636l.715-.77-.8-.675A1.988,1.988,0,0,1,4,6a1.927,1.927,0,0,1,.252.016A4.468,4.468,0,0,0,5.5,10.838,4.884,4.884,0,0,0,5,13a4.991,4.991,0,0,0,2,3.979,5.038,5.038,0,0,0,.9,2.882A3.008,3.008,0,0,1,7,20Zm8-3a3,3,0,0,1-2,2.828V8H11V19.828A3,3,0,0,1,9,17c0-.1.135-1.066.135-1.066L8.542,15.6A3,3,0,0,1,7,13a2.96,2.96,0,0,1,.637-1.822l.719-.931-1.034-.56A2.489,2.489,0,0,1,8.5,5H10V4a2,2,0,0,1,4,0V5h1.5a2.489,2.489,0,0,1,1.178,4.687l-1.034.56.719.931A2.96,2.96,0,0,1,17,13a3,3,0,0,1-1.542,2.6l-.584.425S15,16.9,15,17Zm6.19-6.034a2.963,2.963,0,0,1-.732,4.636l-.584.425S20,16.9,20,17a3,3,0,0,1-3.9,2.861,5.038,5.038,0,0,0,.9-2.882A4.991,4.991,0,0,0,19,13a4.884,4.884,0,0,0-.5-2.162,4.468,4.468,0,0,0,1.251-4.822A1.927,1.927,0,0,1,20,6a1.988,1.988,0,0,1,1.278,3.521l-.8.675Z"/></svg>
