<?xml version="1.0" encoding="UTF-8"?>
<svg xmlns="http://www.w3.org/2000/svg" id="Layer_1" data-name="Layer 1" viewBox="0 0 24 24" width="512" height="512"><path d="M23.95,1.464,22.536.05,15,7.586,10.263,2.849,0,13.112V20a4,4,0,0,0,4,4h6.888L21.151,13.737,16.414,9ZM2,20V15.851A6.445,6.445,0,0,0,5.442,17a7.98,7.98,0,0,0,1.733-.185A7.86,7.86,0,0,0,7,18.5,6.646,6.646,0,0,0,8.168,22H4A2,2,0,0,1,2,20Zm8.42,1.639A5.041,5.041,0,0,1,9,18.5a4.386,4.386,0,0,1,1.128-3.214l2.947-2.947-1.414-1.414L8.714,13.872A4.552,4.552,0,0,1,5.442,15a4.858,4.858,0,0,1-3.085-1.417l7.906-7.906,8.06,8.06Z"/></svg>
