<?xml version="1.0" encoding="UTF-8"?>
<svg xmlns="http://www.w3.org/2000/svg" id="Layer_1" data-name="Layer 1" viewBox="0 0 24 24" width="512" height="512"><path d="M12,5C2.749,5.3,2.751,18.707,12,19,21.251,18.7,21.249,5.293,12,5Zm0,12c-6.608-.21-6.606-9.791,0-10C18.608,7.21,18.606,16.791,12,17ZM22.611,9.1a10.8,10.8,0,0,0-1.056-2.542,2,2,0,0,0-.363-2.332L19.778,2.808a2.01,2.01,0,0,0-2.334-.364A10.805,10.805,0,0,0,14.9,1.389,2,2,0,0,0,13,0H11A2,2,0,0,0,9.1,1.389a10.805,10.805,0,0,0-2.54,1.055,2,2,0,0,0-.918-.222,1.947,1.947,0,0,0-1.416.586L2.808,4.222a2,2,0,0,0-.363,2.332A10.8,10.8,0,0,0,1.389,9.1,2,2,0,0,0,0,11v2a2,2,0,0,0,1.389,1.9,10.805,10.805,0,0,0,1.055,2.54,2.01,2.01,0,0,0,.364,2.334l1.414,1.414a2.01,2.01,0,0,0,2.334.364A10.805,10.805,0,0,0,9.1,22.611,2,2,0,0,0,11,24h2a2,2,0,0,0,1.9-1.389,10.805,10.805,0,0,0,2.54-1.055,2.01,2.01,0,0,0,2.334-.364l1.414-1.414a2.01,2.01,0,0,0,.364-2.334,10.805,10.805,0,0,0,1.055-2.54A2,2,0,0,0,24,13V11A2,2,0,0,0,22.611,9.1ZM22,13H20.981l-.163.8a8.884,8.884,0,0,1-1.311,3.157l-.452.682.723.723-1.414,1.414-.723-.723-.682.452A8.884,8.884,0,0,1,13.8,20.818l-.8.163V22H11V20.981l-.8-.163a8.884,8.884,0,0,1-3.157-1.311l-.682-.452-.723.723L4.222,18.364l.723-.723-.452-.682A8.884,8.884,0,0,1,3.182,13.8L3.019,13H2V11H3.019l.163-.8A8.884,8.884,0,0,1,4.493,7.041l.452-.682-.723-.723L5.636,4.222l.723.723.682-.452A8.884,8.884,0,0,1,10.2,3.182l.8-.163V2h2V3.019l.8.163a8.884,8.884,0,0,1,3.157,1.311l.682.452.723-.723,1.414,1.414-.723.723.452.682A8.884,8.884,0,0,1,20.818,10.2l.163.8H22ZM13,9a1,1,0,0,1-2,0A1,1,0,0,1,13,9Zm2,2a1,1,0,0,1,0,2A1,1,0,0,1,15,11Zm-5,1a1,1,0,0,1-2,0A1,1,0,0,1,10,12Zm3,3a1,1,0,0,1-2,0A1,1,0,0,1,13,15Z"/></svg>
