<?xml version="1.0" encoding="UTF-8"?>
<svg xmlns="http://www.w3.org/2000/svg" id="Layer_1" data-name="Layer 1" viewBox="0 0 24 24" width="512" height="512"><path d="M11,5V7A2,2,0,0,0,9,9H7A4,4,0,0,1,11,5Zm2,2V9a2,2,0,0,1,2,2h2A4,4,0,0,0,13,7Zm8.918,6.509L19.82,24H4.18l-2.1-10.491a3.988,3.988,0,0,1-.055-6.976A4.007,4.007,0,0,1,5.311,3.06a3.456,3.456,0,0,1,3.7-2.016A3.489,3.489,0,0,1,14.66,2a3.479,3.479,0,0,1,2.392,1.115A3.854,3.854,0,0,1,18,3a4.006,4.006,0,0,1,3.973,3.533,3.988,3.988,0,0,1-.055,6.976ZM8.369,22,8,15.991A2.015,2.015,0,0,0,6,14H4.22l1.6,8Zm5.087,0L14,15.964A2,2,0,0,0,10,16l.372,6Zm6.324-8H18a2,2,0,0,0-2,2l-.537,6H18.18ZM20,12a1.993,1.993,0,0,0,.665-3.874L20,7.889V7a2,2,0,0,0-2.872-1.788l-.861.421-.457-.841A1.5,1.5,0,0,0,14.5,4c-.1,0-1.347.266-1.347.266l-.182-1.028a1.49,1.49,0,0,0-2.739-.526l-.439.7-.772-.3A1.438,1.438,0,0,0,8.5,3,1.5,1.5,0,0,0,7.03,4.2l-.161.8L5.945,5A2,2,0,0,0,4,7v.89l-.665.236A1.993,1.993,0,0,0,4,12H6a3.994,3.994,0,0,1,3,1.357,3.994,3.994,0,0,1,5.994-.006A4.027,4.027,0,0,1,18,12Z"/></svg>
