<?xml version="1.0" encoding="UTF-8"?>
<svg xmlns="http://www.w3.org/2000/svg" id="Layer_1" data-name="Layer 1" viewBox="0 0 24 24" width="512" height="512"><path d="M5.993,14a21.841,21.841,0,0,0,6,1A21.923,21.923,0,0,0,18,14c-.615,2.28-2.664,5-6,5S6.608,16.28,5.993,14ZM8,9c.321,0,1,.946,1,2h2c0-1.892-1.232-4-3-4S5,9.108,5,11H7C7,9.946,7.679,9,8,9Zm8-2c-1.768,0-3,2.108-3,4h2c0-1.054.68-2,1-2s1,.946,1,2h2C19,9.108,17.768,7,16,7Zm7.432,6.688C22.674,12.93,19,12,19,12s.93,3.674,1.688,4.432a1.94,1.94,0,0,0,2.744-2.744ZM5,12s-3.674.93-4.432,1.688a1.94,1.94,0,0,0,2.744,2.744C4.07,15.674,5,12,5,12Zm7,10a9.982,9.982,0,0,1-7.783-3.735,3.888,3.888,0,0,1-1.966.7,11.963,11.963,0,0,0,19.5,0,3.906,3.906,0,0,1-1.966-.706A9.979,9.979,0,0,1,12,22ZM12,2a10,10,0,0,1,9.909,8.771,12.933,12.933,0,0,1,2.073.888,11.986,11.986,0,0,0-23.964,0,12.894,12.894,0,0,1,2.073-.888A10,10,0,0,1,12,2Z"/></svg>
