<?xml version="1.0" encoding="UTF-8"?>
<svg xmlns="http://www.w3.org/2000/svg" id="Layer_1" data-name="Layer 1" viewBox="0 0 24 24" width="512" height="512"><path d="M20.019.793,19.312.086.086,19.312l.707.707A13.595,13.595,0,0,0,20.019.793ZM18.6,18.6a11.61,11.61,0,0,1-15.66.677L19.281,2.944A11.61,11.61,0,0,1,18.6,18.6Zm1.032-7.968a1.243,1.243,0,0,1-1.757,0A8.2,8.2,0,0,1,17,8a8.2,8.2,0,0,1,2.636.879A1.243,1.243,0,0,1,19.636,10.636Zm-5,6.243a1.242,1.242,0,1,1-1.757,1.757A8.2,8.2,0,0,1,12,16,8.2,8.2,0,0,1,14.636,16.879Zm3-3a1.242,1.242,0,1,1-1.757,1.757A8.2,8.2,0,0,1,15,13,8.2,8.2,0,0,1,17.636,13.879Zm-8,4a1.242,1.242,0,1,1-1.757,1.757A8.2,8.2,0,0,1,7,17,8.2,8.2,0,0,1,9.636,17.879Z"/></svg>
