<?xml version="1.0" encoding="UTF-8"?>
<svg xmlns="http://www.w3.org/2000/svg" id="Layer_1" data-name="Layer 1" viewBox="0 0 24 24" width="512" height="512"><path d="M12,0A12,12,0,1,0,24,12,12.013,12.013,0,0,0,12,0Zm0,22A10,10,0,1,1,22,12,10.011,10.011,0,0,1,12,22ZM11,11H9c0-1.054-.68-2-1-2s-1,.946-1,2H5C5,9.108,6.232,7,8,7S11,9.108,11,11Zm8,0H17c0-1.054-.68-2-1-2s-1,.946-1,2H13c0-1.892,1.232-4,3-4S19,9.108,19,11Zm-4,3.5A2.5,2.5,0,0,0,12.5,12H11v2h1.5a.5.5,0,0,1,0,1H12v2h.5a.5.5,0,0,1,0,1H11v2h1.5A2.5,2.5,0,0,0,15,17.5a2.471,2.471,0,0,0-.513-1.5A2.471,2.471,0,0,0,15,14.5Z"/></svg>
