<?xml version="1.0" encoding="UTF-8"?>
<!-- Generator: Adobe Illustrator 24.3.0, SVG Export Plug-In . SVG Version: 6.00 Build 0)  -->
<svg xmlns="http://www.w3.org/2000/svg" xmlns:xlink="http://www.w3.org/1999/xlink" version="1.1" id="Layer_1" x="0px" y="0px" viewBox="0 0 512 512" style="enable-background:new 0 0 512 512;" xml:space="preserve" width="512" height="512">
<path d="M384.653,235.32h-85.333v-21.333c0-23.564,19.103-42.667,42.667-42.667c23.564,0,42.667,19.103,42.667,42.667V235.32z   M213.986,192.654h-85.333v42.667h85.333V192.654z M256.653,469.987C138.585,470.222,42.681,374.7,42.446,256.632  S137.732,42.661,255.8,42.425s213.972,95.287,214.207,213.355c0.046,22.82-3.563,45.499-10.688,67.178  c3.516,3.277,6.749,6.845,9.664,10.667c10.282-0.571,20.578,0.827,30.336,4.117c45.125-134.4-27.246-279.935-161.647-325.06  S57.738,39.928,12.612,174.328s27.246,279.935,161.647,325.06c57.503,19.307,119.984,17.627,176.367-4.74  c-6.479-12.69-12.144-25.78-16.96-39.189C309.122,465.05,283.004,469.977,256.653,469.987z M490.103,379.875  c-19.18-9.051-42.065-0.84-51.115,18.34c-0.207,0.439-0.406,0.883-0.597,1.329c9.135-20.095,0.797-43.82-18.901-53.781  c-19.178-9.055-42.064-0.849-51.119,18.329c-0.206,0.436-0.404,0.876-0.593,1.319c-19.136,42.837,29.675,125.909,29.675,125.909  s92.501-14.933,111.659-57.6C518.26,413.58,509.869,389.808,490.103,379.875L490.103,379.875z M320.653,309.987  c0-29.455-23.878-53.333-53.333-53.333h-32v42.667h32c5.891,0,10.667,4.776,10.667,10.667c0,5.891-4.776,10.667-10.667,10.667  h-10.667v42.667h10.667c5.891,0,10.667,4.776,10.667,10.667c0,5.891-4.776,10.667-10.667,10.667h-32v42.667h32  c29.455,0,53.333-23.878,53.333-53.333c-0.034-11.579-3.88-22.825-10.944-32C316.772,332.812,320.618,321.566,320.653,309.987z"/>
</svg>
