<?xml version="1.0" encoding="UTF-8"?>
<svg xmlns="http://www.w3.org/2000/svg" id="Layer_1" data-name="Layer 1" viewBox="0 0 24 24" width="512" height="512"><path d="M16,12v2c0,1.103-.897,2-2,2h-4c-1.103,0-2-.897-2-2v-2H0v9c0,1.654,1.346,3,3,3H21c1.654,0,3-1.346,3-3V12h-8Zm6,9c0,.552-.448,1-1,1H3c-.552,0-1-.448-1-1v-7H6c0,2.206,1.794,4,4,4h4c2.206,0,4-1.794,4-4h4v7ZM8.707,5.293l-1.414-1.414L10.586,.586c.779-.779,2.049-.779,2.828,0l3.293,3.293-1.414,1.414-2.293-2.293V11h-2V3l-2.293,2.293Z"/></svg>
