<?xml version="1.0" encoding="UTF-8"?>
<svg xmlns="http://www.w3.org/2000/svg" id="Layer_1" data-name="Layer 1" viewBox="0 0 24 24" width="512" height="512"><path d="M8.364,10.879A8.205,8.205,0,0,1,11,10a8.216,8.216,0,0,1-.878,2.636,1.243,1.243,0,1,1-1.758-1.757ZM13,10a8.223,8.223,0,0,0,.879,2.636,1.243,1.243,0,1,0,1.758-1.757A8.209,8.209,0,0,0,13,10Zm8.858,6.887-.825,4.638A3,3,0,0,1,18.08,24H5.922a3,3,0,0,1-2.954-2.475l-.826-4.638A2.946,2.946,0,0,1,0,14c0-3.624,5.353-8,12-8s12,4.376,12,8A2.946,2.946,0,0,1,21.858,16.887Zm-2.794,4.289L19.5,18.7A3.943,3.943,0,0,1,15,17.618a3.947,3.947,0,0,1-6,0A3.943,3.943,0,0,1,4.5,18.7l.441,2.474A1,1,0,0,0,5.922,22H18.08A1,1,0,0,0,19.064,21.176ZM22,13.988C22,11.631,17.521,8,12,8S2,11.631,2,14a.915.915,0,0,0,1,1H4a2,2,0,0,0,4,0h2a2,2,0,0,0,4,0h2a2,2,0,0,0,4,0h1A.918.918,0,0,0,22,13.988ZM13,0H11V4h2Zm4,0H15V4h2ZM9,0H7V4H9Z"/></svg>
