<?xml version="1.0" encoding="UTF-8"?>
<svg xmlns="http://www.w3.org/2000/svg" id="Layer_1" data-name="Layer 1" viewBox="0 0 24 24" width="512" height="512"><path d="M12,1C.374.982-4.414,16.17,5.112,22.818L5.371,23H18.629l.259-.182C28.418,16.167,23.621.98,12,1Zm5.988,20H6.012C-1.633,15.321,2.47,2.976,12,3,21.53,2.976,25.633,15.322,17.988,21ZM14,13a2,2,0,1,1-3-1.732V5h2v6.268A2,2,0,0,1,14,13ZM9,5.545V7.78a6.038,6.038,0,0,0-1.144,9.443l-1.4,1.429C2.313,14.821,3.858,7.493,9,5.545Zm10.949,7.392a7.939,7.939,0,0,1-2.407,5.715l-1.4-1.429A6.038,6.038,0,0,0,15,7.78V5.545A8.011,8.011,0,0,1,19.949,12.937Z"/></svg>
