<?xml version="1.0" encoding="UTF-8"?>
<svg xmlns="http://www.w3.org/2000/svg" id="Layer_1" data-name="Layer 1" viewBox="0 0 24 24" width="512" height="512"><path d="M10,19h2v5H10ZM7.415,12.12a3.5,3.5,0,1,1,4.7-4.719h0l.409.7,4.761-2.771L16.281,3.6,13.158,5.423a5.5,5.5,0,0,0-.587-.585l1.813-3.116L12.655.716,10.844,3.83A5.275,5.275,0,0,0,10,3.6V0H8V3.6a5.419,5.419,0,0,0-.836.226L5.357.716,3.629,1.722l1.8,3.1a5.515,5.515,0,0,0-.593.591L1.73,3.6l-1,1.729L3.831,7.141A5.26,5.26,0,0,0,3.6,8H0v2H3.6a5.368,5.368,0,0,0,.228.852l-3.1,1.8,1.006,1.729,3.1-1.807a5.5,5.5,0,0,0,1.126,1,5.978,5.978,0,0,1,1.286-.9C7.3,12.49,7.354,12.3,7.415,12.12ZM14,24h2V19H14Zm4,0h2V19H18Zm1.436-11.983a5.5,5.5,0,0,0-10.4,2.1A4,4,0,0,0,8,21.447V18a2.022,2.022,0,0,1,2.055-2h1.113l-.119-1.106a3.658,3.658,0,0,1-.022-.394,3.5,3.5,0,0,1,6.8-1.167l.236.667h.964a3,3,0,0,1,3,3,2.972,2.972,0,0,1-.027.4v3.615a5,5,0,0,0-2.564-9Z"/></svg>
