<?xml version="1.0" encoding="UTF-8"?>
<svg xmlns="http://www.w3.org/2000/svg" id="Layer_1" data-name="Layer 1" viewBox="0 0 24 24" width="512" height="512"><path d="M15.583,8.558,11.581,2H13V0H7V9H5.537L4.44,7.343A2.993,2.993,0,0,0,1.938,6H0V18H1.952a3,3,0,0,0,2.5-1.347L5.54,15H7v9h6V22H11.584l4-6.531C26.843,14.9,26.845,9.091,15.583,8.558Zm-.646,4.95-.519.034L9.239,22H9V13H4.46L2.786,15.552A1,1,0,0,1,2,16V8a1,1,0,0,1,.772.446L4.463,11H9V2h.238l5.18,8.488.522.032c3.138.188,6.327.873,6.994,1.481C21.27,12.611,18.079,13.309,14.937,13.508Z"/></svg>
