<?xml version="1.0" encoding="UTF-8"?>
<svg xmlns="http://www.w3.org/2000/svg" id="Layer_1" data-name="Layer 1" viewBox="0 0 24 24" width="512" height="512"><path d="M21.713,11l1.578-4.9L19.317,4.848,19.981.985,14.038-.022l-.354,2.041H10.316L9.962-.022,4.019.985l.664,3.863L.708,6.1,2.287,11H.01L1.935,21.519A3.01,3.01,0,0,0,4.9,23.978H19.117a3.009,3.009,0,0,0,2.967-2.459L24.01,11Zm-.95-3.6L19.6,11H18.26l.716-4.167Zm-3.1-4.782L16.22,11h-1.2V6.1l.663-3.815ZM11,4.015h2.01V11H11ZM8.321,2.281,8.985,6.1V11H7.78L6.338,2.617ZM3.237,7.4l1.787-.564L5.74,11H4.4ZM20.106,21.162a1,1,0,0,1-.989.819H4.9a1,1,0,0,1-.989-.819L2.418,13H21.6Z"/></svg>
