<?xml version="1.0" encoding="UTF-8"?>
<svg xmlns="http://www.w3.org/2000/svg" id="Layer_1" data-name="Layer 1" viewBox="0 0 24 24" width="512" height="512"><path d="M6.692,14.038,1.01,17.391,0,15.662l3.942-2.295A6.428,6.428,0,0,1,3.584,12H-1V10H3.585a6.476,6.476,0,0,1,.369-1.371L0,6.326,1,4.6,4.961,6.9a6.614,6.614,0,0,1,.964-.958l-2.3-3.951L5.355.986l2.3,3.958A6.482,6.482,0,0,1,9,4.585V0h2V4.586a6.456,6.456,0,0,1,1.359.356l2.3-3.955,1.729,1L14.083,5.956a6.536,6.536,0,0,1,.959.952L19.012,4.6l1.006,1.729L16.043,8.64a6.5,6.5,0,0,1,.294.912,7.52,7.52,0,0,0-2.295-.532A4.512,4.512,0,0,0,10,6.5a4.5,4.5,0,0,0-3.5,7.32ZM23,19a5.006,5.006,0,0,1-5,5H9a4,4,0,0,1-.987-7.877,5.5,5.5,0,0,1,10.4-2.106A5.006,5.006,0,0,1,23,19Zm-2,0a3,3,0,0,0-3-3h-.963l-.235-.667A3.5,3.5,0,0,0,10,16.5c0,.133.008.264.021.394L10.141,18H9.027A2,2,0,1,0,9,22h9A3,3,0,0,0,21,19Z"/></svg>
