<?xml version="1.0" encoding="UTF-8"?>
<svg xmlns="http://www.w3.org/2000/svg" id="Layer_1" data-name="Layer 1" viewBox="0 0 24 24" width="512" height="512"><path d="M9,19a4,4,0,1,1,4-4A4,4,0,0,1,9,19Zm0-6a2,2,0,1,0,2,2A2,2,0,0,0,9,13ZM9,24A9,9,0,0,1,2.636,8.636C5.857,5.415,14.245,1.738,14.6,1.583L16,.974V3.811L23.745.225,20.289,8h2.738l-.61,1.4c-.155.356-3.832,8.744-7.053,11.965A8.971,8.971,0,0,1,9,24Zm5-19.94c-2.514,1.18-7.736,3.781-9.95,5.994a7,7,0,0,0,9.9,9.9c2.214-2.214,4.814-7.436,5.994-9.95H17.211l2.544-5.725L14,6.939Z"/></svg>
