<?xml version="1.0" encoding="UTF-8"?>
<svg xmlns="http://www.w3.org/2000/svg" id="Layer_1" data-name="Layer 1" viewBox="0 0 24 24" width="512" height="512"><path d="M21,3H12.236L8.236,1H3C1.346,1,0,2.346,0,4V23H8.142l-2-2H2V9H22v12h-4.143l-2,2h8.143V6c0-1.654-1.346-3-3-3ZM2,7v-3c0-.552,.449-1,1-1H7.764l4,2h9.236c.552,0,1,.448,1,1v1H2Zm14.704,12.12l-3.298,3.298c-.376,.376-.875,.583-1.406,.583h-.002c-.531,0-1.03-.208-1.405-.584l-3.297-3.297,1.414-1.414,2.291,2.29v-7.996h2v8.007l2.29-2.301,1.414,1.414Z"/></svg>
