<?xml version="1.0" encoding="UTF-8"?>
<svg xmlns="http://www.w3.org/2000/svg" id="Layer_1" data-name="Layer 1" viewBox="0 0 24 24" width="512" height="512"><path d="M22.769,9.343l-1.769-1.694V3c0-1.654-1.346-3-3-3H6c-1.654,0-3,1.346-3,3V7.651l-1.766,1.691C.451,10.093,.001,11.146,.001,12.231v11.769H24V12.231c0-1.086-.449-2.139-1.231-2.889ZM6,2h12c.551,0,1,.449,1,1V12.243l-4.878,4.879c-1.17,1.168-3.073,1.168-4.243,0l-4.878-4.879V3c0-.551,.449-1,1-1ZM22,22H2V12.231c.001-.051,.004-.102,.008-.153l6.456,6.457c.975,.975,2.255,1.462,3.536,1.462s2.561-.487,3.536-1.462l6.458-6.458c.004,.051,.007,.102,.007,.154v9.769ZM14,11c0-.378-.271-.698-.644-.76l-3.042-.507c-1.341-.223-2.315-1.373-2.315-2.733,0-1.654,1.346-3,3-3v-1h2v1c1.654,0,3,1.346,3,3h-2c0-.551-.449-1-1-1h-2c-.551,0-1,.449-1,1,0,.378,.271,.698,.644,.76l3.042,.507c1.341,.223,2.315,1.373,2.315,2.733,0,1.654-1.346,3-3,3v1h-2v-1c-1.654,0-3-1.346-3-3h2c0,.551,.449,1,1,1h2c.551,0,1-.449,1-1Z"/></svg>
