<?xml version="1.0" encoding="UTF-8"?>
<svg xmlns="http://www.w3.org/2000/svg" id="Layer_1" data-name="Layer 1" viewBox="0 0 24 24" width="512" height="512"><path d="M20.981,24.005l-1.933-.51c.116-.441.247-.851.376-1.255a9.283,9.283,0,0,0,.591-3.045,11.234,11.234,0,0,0-1.856-6.08A13.277,13.277,0,0,1,16.015,6,17.509,17.509,0,0,1,17.351.094l1.828.812A15.579,15.579,0,0,0,18.015,6a11.231,11.231,0,0,0,1.855,6.079A13.283,13.283,0,0,1,22.015,19.2a11.155,11.155,0,0,1-.686,3.653C21.21,23.22,21.089,23.6,20.981,24.005Zm-6.652-1.157a11.155,11.155,0,0,0,.686-3.653,13.283,13.283,0,0,0-2.145-7.116A11.231,11.231,0,0,1,11.015,6,15.579,15.579,0,0,1,12.179.906L10.351.094A17.509,17.509,0,0,0,9.015,6a13.277,13.277,0,0,0,2.144,7.115,11.234,11.234,0,0,1,1.856,6.08,9.283,9.283,0,0,1-.591,3.045c-.129.4-.26.814-.376,1.255l1.933.51C14.089,23.6,14.21,23.22,14.329,22.848Zm-7,0A11.155,11.155,0,0,0,8.015,19.2,13.283,13.283,0,0,0,5.87,12.079,11.231,11.231,0,0,1,4.015,6,15.579,15.579,0,0,1,5.179.906L3.351.094A17.509,17.509,0,0,0,2.015,6a13.277,13.277,0,0,0,2.144,7.115A11.234,11.234,0,0,1,6.015,19.2a9.283,9.283,0,0,1-.591,3.045c-.129.4-.26.814-.376,1.255l1.933.51C7.089,23.6,7.21,23.22,7.329,22.848Z"/></svg>
