<?xml version="1.0" encoding="UTF-8"?>
<svg xmlns="http://www.w3.org/2000/svg" id="Layer_1" data-name="Layer 1" viewBox="0 0 24 24" width="512" height="512"><path d="M23.974,17.963a5.52,5.52,0,0,0-4.024-4.719L23.971,0H20.105a2.983,2.983,0,0,0-2.871,2.128L14.8,10.162A3.965,3.965,0,0,1,12,12.856a4,4,0,0,1-2.79-2.694L6.766,2.128A2.983,2.983,0,0,0,3.9,0H.029L4.055,13.26A5.465,5.465,0,0,0,5.5,24H9.269a10.075,10.075,0,0,0,2.758-.389l0,.016A9.969,9.969,0,0,0,14.73,24H18.5a5.5,5.5,0,0,0,5.474-6.037ZM3.9,2a1,1,0,0,1,.957.709l2.439,8.034A5.984,5.984,0,0,0,8.576,13H6.067L2.727,2ZM5.5,22a3.5,3.5,0,0,1-3.483-3.847A3.632,3.632,0,0,1,5.693,15h5.275a5.966,5.966,0,0,0,5.741-4.257l2.439-8.034A1,1,0,0,1,20.105,2h1.168L16.924,16.324A7.954,7.954,0,0,1,9.269,22Zm15.591-1.147A3.508,3.508,0,0,1,18.5,22H15.288a9.975,9.975,0,0,0,3.55-5.095l.532-1.751a3.523,3.523,0,0,1,2.613,3A3.47,3.47,0,0,1,21.091,20.853Z"/></svg>
