<?xml version="1.0" encoding="UTF-8"?>
<svg xmlns="http://www.w3.org/2000/svg" id="Layer_1" data-name="Layer 1" viewBox="0 0 24 24" width="512" height="512"><path d="M23,14a6,6,0,0,0-5.636-5.982A5.209,5.209,0,0,0,18,5.546,5.793,5.793,0,0,0,12,0,5.793,5.793,0,0,0,6,5.546a5.209,5.209,0,0,0,.636,2.472A6,6,0,0,0,7,20a6.081,6.081,0,0,0,3.922-1.523C10.729,20.853,10.078,22,8,22H5v2H19V22H16c-2.078,0-2.729-1.147-2.922-3.523A6.081,6.081,0,0,0,17,20,6.006,6.006,0,0,0,23,14ZM12,2a3.8,3.8,0,0,1,4,3.546,4.452,4.452,0,0,1-2.2,3.446h0A8.329,8.329,0,0,0,12,10.59a8.312,8.312,0,0,0-1.8-1.6h0A4.454,4.454,0,0,1,8,5.546,3.8,3.8,0,0,1,12,2ZM7,18a4,4,0,0,1,0-8,3.852,3.852,0,0,1,2.062.633l.048.033v0a6.9,6.9,0,0,1,2.013,2.124L11.8,14.01l-.67,1.2C11.11,15.237,9.538,18,7,18Zm4.971,4c.009-.016.02-.031.029-.047.009.016.02.031.029.047Zm.9-6.788L12.208,14l.668-1.215a6.76,6.76,0,0,1,2.009-2.128l.005.006c.027-.018.065-.047.095-.067A3.852,3.852,0,0,1,17,10a4,4,0,0,1,4,4h0a4,4,0,0,1-4,4C14.462,18,12.89,15.237,12.876,15.212Z"/></svg>
