<?xml version="1.0" encoding="UTF-8"?>
<svg xmlns="http://www.w3.org/2000/svg" id="Layer_1" data-name="Layer 1" viewBox="0 0 24 24" width="512" height="512"><path d="M20.794,6.206a4.431,4.431,0,0,0-4.6-3.194A6,6,0,0,0,5.083,5,5.052,5.052,0,0,0,0,10c0,3.408,2.154,5.571,5.827,5.943A19.615,19.615,0,0,1,7,23v1H17V23a17.969,17.969,0,0,1,1.631-8.084A5.339,5.339,0,0,0,19.5,15a4.491,4.491,0,0,0,1.294-8.794ZM15.019,22H8.981a21.852,21.852,0,0,0-1.042-6.091,8.134,8.134,0,0,0,2.57-1,4.721,4.721,0,0,0,.491.329V20h2V15.928A6.783,6.783,0,0,0,14,16a5,5,0,0,0,2.208-.514A21.192,21.192,0,0,0,15.019,22ZM19.5,13A2.6,2.6,0,0,1,17,10.5V10H15v.5a4.481,4.481,0,0,0,.957,2.772A2.989,2.989,0,0,1,14,14a3.459,3.459,0,0,1-2.636-1.009l-.6-.674-.734.523A5.75,5.75,0,0,1,7,14c-2.281,0-5-.694-5-4A3,3,0,0,1,5,7a3.064,3.064,0,0,1,3,3h2A5.008,5.008,0,0,0,7.04,5.435,4,4,0,0,1,14.7,4.5l.33.811.848-.219A2.437,2.437,0,0,1,16.5,5a2.5,2.5,0,0,1,2.463,2.176l.1.762.762.1A2.491,2.491,0,0,1,19.5,13Z"/></svg>
