<?xml version="1.0" encoding="UTF-8"?>
<svg xmlns="http://www.w3.org/2000/svg" id="Layer_1" data-name="Layer 1" viewBox="0 0 24 24" width="512" height="512"><path d="M9,8a11.618,11.618,0,0,1,.554-2.175A7.168,7.168,0,0,0,10,4,4,4,0,0,0,2,4a7.168,7.168,0,0,0,.446,1.825A11.618,11.618,0,0,1,3,8a8.441,8.441,0,0,1-1.264,3.537A11.781,11.781,0,0,0,0,17a9.732,9.732,0,0,0,2.293,6.707L2.586,24H9.414l.293-.293A9.732,9.732,0,0,0,12,17a11.781,11.781,0,0,0-1.736-5.463A8.441,8.441,0,0,1,9,8ZM6,2A2,2,0,0,1,8,3.973a12,12,0,0,1-.355,1.253A10.708,10.708,0,0,0,7,8H5a10.708,10.708,0,0,0-.646-2.774C4.211,4.772,4.016,4.15,4,4A2,2,0,0,1,6,2ZM8.535,22H3.466A8.309,8.309,0,0,1,2,17a10.1,10.1,0,0,1,1.512-4.542A18.393,18.393,0,0,0,4.632,10H7.368a18.393,18.393,0,0,0,1.12,2.458A10.1,10.1,0,0,1,10,17,8.308,8.308,0,0,1,8.535,22ZM22.264,11.537A8.441,8.441,0,0,1,21,8a11.618,11.618,0,0,1,.554-2.175A7.168,7.168,0,0,0,22,4a4,4,0,0,0-8,0,7.168,7.168,0,0,0,.446,1.825A11.618,11.618,0,0,1,15,8a8.441,8.441,0,0,1-1.264,3.537A11.781,11.781,0,0,0,12,17a9.732,9.732,0,0,0,2.293,6.707l.293.293h6.828l.293-.293A9.732,9.732,0,0,0,24,17,11.781,11.781,0,0,0,22.264,11.537ZM18,2a2,2,0,0,1,2,1.973,12,12,0,0,1-.355,1.253A10.708,10.708,0,0,0,19,8H17a10.708,10.708,0,0,0-.646-2.774C16.211,4.772,16.016,4.15,16,4A2,2,0,0,1,18,2Zm2.535,20H15.466A8.309,8.309,0,0,1,14,17a10.1,10.1,0,0,1,1.512-4.542A18.393,18.393,0,0,0,16.632,10h2.736a18.393,18.393,0,0,0,1.12,2.458A10.1,10.1,0,0,1,22,17,8.308,8.308,0,0,1,20.535,22Z"/></svg>
