<?xml version="1.0" encoding="UTF-8"?>
<svg xmlns="http://www.w3.org/2000/svg" id="Layer_1" data-name="Layer 1" viewBox="0 0 24 24" width="512" height="512"><path d="M21,2.5A2.5,2.5,0,1,1,18.5,0,2.5,2.5,0,0,1,21,2.5ZM8.219,15.293,3.4,20.112,2.2,18.888l-1.428,1.4,2.8,2.857a2.978,2.978,0,0,0,2.112.9h.031a2.982,2.982,0,0,0,2.1-.857l-1.4-1.429a1.007,1.007,0,0,1-.71.286.994.994,0,0,1-.7-.3l-.2-.2,4.834-4.833ZM17,21h2a3,3,0,0,1-3,3H12V22h2V18.274L8.8,13.333a3,3,0,0,1-.055-4.3L11.781,6H4V4h9.959l2.062,1.723A3.009,3.009,0,0,1,17,7.9a2.976,2.976,0,0,1-.879,2.158h0L12.29,13.891,16,17.416V22A1,1,0,0,0,17,21ZM9.866,11.171a.985.985,0,0,0,.31.712l.663.63,3.868-3.867A1.816,1.816,0,0,0,15,7.927a1,1,0,0,0-.31-.713l-.706-.588-3.825,3.825A.989.989,0,0,0,9.866,11.171Z"/></svg>
