<?xml version="1.0" encoding="UTF-8"?>
<svg xmlns="http://www.w3.org/2000/svg" id="Layer_1" data-name="Layer 1" viewBox="0 0 24 24" width="512" height="512"><path d="M12,20c5.514,0,10-4.486,10-10S17.514,0,12,0,2,4.486,2,10s4.486,10,10,10Zm0-18c4.411,0,8,3.589,8,8s-3.589,8-8,8S4,14.411,4,10,7.589,2,12,2Zm2,10c0-.379-.271-.698-.644-.761l-3.041-.506c-1.342-.224-2.315-1.374-2.315-2.733,0-1.654,1.346-3,3-3v-1h2v1c1.654,0,3,1.346,3,3h-2c0-.552-.449-1-1-1h-2c-.551,0-1,.448-1,1,0,.379,.271,.698,.644,.761l3.041,.506c1.342,.224,2.315,1.374,2.315,2.733,0,1.654-1.346,3-3,3v1h-2v-1c-1.654,0-3-1.346-3-3h2c0,.552,.449,1,1,1h2c.551,0,1-.448,1-1Zm10,8.5c0,1.93-1.57,3.5-3.5,3.5H3.5c-1.93,0-3.5-1.57-3.5-3.5,0-1.547,1.016-2.847,2.41-3.309,.495,.659,1.054,1.265,1.671,1.809h-.581c-.827,0-1.5,.673-1.5,1.5s.673,1.5,1.5,1.5H20.5c.827,0,1.5-.673,1.5-1.5s-.673-1.5-1.5-1.5h-.581c.618-.544,1.176-1.15,1.671-1.809,1.394,.461,2.41,1.762,2.41,3.309Z"/></svg>
