<?xml version="1.0" encoding="UTF-8"?>
<svg xmlns="http://www.w3.org/2000/svg" id="Layer_1" data-name="Layer 1" viewBox="0 0 24 24" width="512" height="512"><path d="M4,16a4,4,0,1,0,4-4A4,4,0,0,0,4,16Zm6,0a2,2,0,1,1-2-2A2,2,0,0,1,10,16ZM8.229,8A8.152,8.152,0,0,0,.022,15.394,8,8,0,0,0,8.006,24a8.264,8.264,0,0,0,1.279-.1,7.956,7.956,0,0,0,5.908-4.46A7.9,7.9,0,0,0,16,16.152a1,1,0,0,1,.786-1.006L24,13.835V8ZM22,12.166l-5.573,1.013A2.981,2.981,0,0,0,14,16.112a5.938,5.938,0,0,1-.607,2.46,5.986,5.986,0,0,1-11.375-3.03A6.144,6.144,0,0,1,8.229,10H22ZM11,5H9V0h2Zm2.9,1.44-1.751-.967L14.565,1.1l1.751.966Zm-7.774,0L3.708,2.062,5.459,1.1,7.875,5.473Z"/></svg>
