<?xml version="1.0" encoding="UTF-8"?>
<svg xmlns="http://www.w3.org/2000/svg" id="Layer_1" data-name="Layer 1" viewBox="0 0 24 24" width="512" height="512"><path d="M24,12.5a7.506,7.506,0,0,1-6.863,7.468l1.383-1.9a4.013,4.013,0,0,0,.316-.592A5.5,5.5,0,0,0,16.679,7l-.721-.023-.206-.691A6,6,0,1,0,4.391,10.134l.318.839-.8.407a3.486,3.486,0,0,0,.015,6.228,3.844,3.844,0,0,0,.413,2.266,5.5,5.5,0,0,1-2.073-9.825A8,8,0,0,1,10,0a8.052,8.052,0,0,1,7.44,5.059A7.461,7.461,0,0,1,24,12.5Zm-7.146,4.458L11.736,24H8.755l.973-4H7.8a1.921,1.921,0,0,1-1.84-2.48L8.557,10h6.472l-1.537,4h1.775a1.905,1.905,0,0,1,1.587,2.958Zm-1.74-1.007L10.58,16l1.537-4H9.982L7.9,18.031,11,18h1.272l-.679,2.8Z"/></svg>
