<?xml version="1.0" encoding="UTF-8"?>
<svg xmlns="http://www.w3.org/2000/svg" id="Layer_1" data-name="Layer 1" viewBox="0 0 24 24" width="512" height="512"><path d="M22,10V4.229a2.987,2.987,0,0,0-1.821-2.76c-3.673-1.9-12.695-1.893-16.358,0A2.986,2.986,0,0,0,2,4.229V10H0v3a2,2,0,0,0,2,2v7H4v2H9V22h6v2h5V22h2V15a2,2,0,0,0,2-2V10ZM4,13V7H20v6Zm.6-9.688A19.013,19.013,0,0,1,12,2a19.018,19.018,0,0,1,7.4,1.311.99.99,0,0,1,.6.918V5H15V4H9V5H4V4.229A.989.989,0,0,1,4.6,3.312ZM4,20V15H6v1a1,1,0,0,0,2,0V15h8v1a1,1,0,0,0,2,0V15h2v5Z"/></svg>
