<?xml version="1.0" encoding="UTF-8"?>
<svg xmlns="http://www.w3.org/2000/svg" id="Layer_1" data-name="Layer 1" viewBox="0 0 24 24" width="512" height="512"><path d="M23.987,8.574l-2.702-2.54c-.571-.658-1.393-1.034-2.266-1.034h-7.686l-2.333-1.75V1c-.802,0-1.493,.472-1.812,1.154-.329-.101-.673-.154-1.018-.154-.143,0-.284,.009-.423,.026-.342-.612-.996-1.026-1.747-1.026v1.756c-.187,.149-.361,.318-.517,.506L.975,6.293c-1.298,1.299-1.298,3.413,0,4.711,.635,.635,1.502,.971,2.508,.971,.538,0,1.21-.229,1.794-.485l.722,3.609v6.901h6.003l-.01-3h4.02l.01,3h5.997V9.469l.598,.562,1.37-1.457Zm-18.492,.563c-.678,.396-1.671,.838-2.011,.838-.323,0-.776-.067-1.094-.385-.519-.519-.519-1.364,.062-1.952l2.57-3.099c.489-.59,1.43-.699,2.042-.241l3.603,2.702h8.353c.299,0,.58,.132,.771,.363h0c.104,.126,.229,.339,.229,.637v5H7.606l-.9-4.571-1.21,.708Zm12.521,10.863l-.01-3H9.987l.01,3h-1.997v-5h12.02v5h-2.003Zm-5.016-10c0-.552,.448-1,1-1s1,.448,1,1-.448,1-1,1-1-.448-1-1Zm4,0c0-.552,.448-1,1-1s1,.448,1,1-.448,1-1,1-1-.448-1-1Zm-8,0c0-.552,.448-1,1-1s1,.448,1,1-.448,1-1,1-1-.448-1-1Z"/></svg>
