<?xml version="1.0" encoding="UTF-8"?>
<svg xmlns="http://www.w3.org/2000/svg" id="Layer_1" data-name="Layer 1" viewBox="0 0 24 24" width="512" height="512"><path d="M24,8H22.389a29.956,29.956,0,0,0-3.076-4.951,3.884,3.884,0,0,0-1.978-1.357c-1.761-.856-8.909-.856-10.67,0A3.884,3.884,0,0,0,4.687,3.049,29.956,29.956,0,0,0,1.611,8H0V19H2v4H8V19h8v4h6V19h2ZM6.274,4.266a1.9,1.9,0,0,1,.967-.659c1.519-.751,8-.751,9.518,0a1.9,1.9,0,0,1,.967.659,28.618,28.618,0,0,1,3.72,6.49,65.424,65.424,0,0,0-18.892,0A28.618,28.618,0,0,1,6.274,4.266ZM6,21H4V19H6Zm14,0H18V19h2ZM2,17V12.857A75.853,75.853,0,0,1,12,12a75.853,75.853,0,0,1,10,.857V17Zm4-2a1,1,0,0,1-2,0A1,1,0,0,1,6,15Zm14,0a1,1,0,0,1-2,0A1,1,0,0,1,20,15Z"/></svg>
