<?xml version="1.0" encoding="UTF-8"?>
<svg xmlns="http://www.w3.org/2000/svg" id="Layer_1" data-name="Layer 1" viewBox="0 0 24 24" width="512" height="512"><path d="M3.355,17.391A9.94,9.94,0,0,1,14.764,1.252l1.778.988-1.869.8a8.521,8.521,0,0,0-4.282,4.4,7.978,7.978,0,0,0-2.371,1.3,9.8,9.8,0,0,1,4.018-6.467A7.827,7.827,0,0,0,9.958,2,7.954,7.954,0,0,0,4.326,15.574,6.455,6.455,0,0,0,3.355,17.391ZM24,18.5A5.507,5.507,0,0,0,18.653,13,6,6,0,0,0,7,15a5.173,5.173,0,0,0,.052.727A4.5,4.5,0,0,0,9.5,24h9A5.506,5.506,0,0,0,24,18.5Zm-7.077-4.253.177.93,1.044-.141A2.6,2.6,0,0,1,18.5,15a3.5,3.5,0,0,1,0,7h-9a2.5,2.5,0,0,1-.941-4.812l.812-.332-.223-.848A3.916,3.916,0,0,1,9,15a4,4,0,0,1,7.923-.753Z"/></svg>
