<?xml version="1.0" encoding="UTF-8"?>
<svg xmlns="http://www.w3.org/2000/svg" id="Layer_1" data-name="Layer 1" viewBox="0 0 24 24" width="512" height="512"><path d="M23.043,12.9A3.464,3.464,0,0,0,22.926,8,3.523,3.523,0,0,0,18,8.053,8.7,8.7,0,0,1,12,10,8.733,8.733,0,0,1,6.017,8.068,3.511,3.511,0,0,0,1.1,7.956a3.5,3.5,0,0,0-.139,4.951,9.7,9.7,0,0,0,1.228,1.048,4.5,4.5,0,0,0,1.37,7.1A18.149,18.149,0,0,0,12,23a18.149,18.149,0,0,0,8.443-1.941,4.5,4.5,0,0,0,2.115-6,4.518,4.518,0,0,0-.745-1.1A9.591,9.591,0,0,0,23.043,12.9Zm-2.186,4.927a2.489,2.489,0,0,1-1.278,1.424A16.3,16.3,0,0,1,12,21a16.3,16.3,0,0,1-7.579-1.745,2.5,2.5,0,0,1,2.159-4.51A11.36,11.36,0,0,0,12,16a11.36,11.36,0,0,0,5.42-1.255,2.5,2.5,0,0,1,3.437,3.086Zm.735-6.3a9.233,9.233,0,0,1-1.577,1.238,4.485,4.485,0,0,0-3.459.175A9.316,9.316,0,0,1,12,14a9.316,9.316,0,0,1-4.556-1.059,4.49,4.49,0,0,0-3.459-.176,9.253,9.253,0,0,1-1.574-1.234,1.5,1.5,0,0,1,.06-2.121A1.511,1.511,0,0,1,4.6,9.474,10.661,10.661,0,0,0,12,12a10.727,10.727,0,0,0,7.412-2.533,1.516,1.516,0,0,1,2.119-.029A1.479,1.479,0,0,1,21.592,11.528ZM13,6H11V1h2Zm4-1H15V1h2ZM9,4.989H7V1H9Z"/></svg>
