<?xml version="1.0" encoding="UTF-8"?>
<svg xmlns="http://www.w3.org/2000/svg" id="Layer_1" data-name="Layer 1" viewBox="0 0 24 24" width="512" height="512"><path d="M18,14.184V8H16v6.184a3,3,0,1,0,2,0ZM17,18a1,1,0,1,1,1-1A1,1,0,0,1,17,18Zm5-5.889V5A5,5,0,0,0,12,5v7.111a7,7,0,1,0,10,0ZM17,22a4.994,4.994,0,0,1-3.332-8.719l.332-.3V5a3,3,0,0,1,6,0v7.983l.332.3A4.994,4.994,0,0,1,17,22ZM5,9a4,4,0,0,0,3.937,4,8.956,8.956,0,0,0-.7,1.952A5.893,5.893,0,0,1,6.9,14.6L5.336,17.279,3.607,16.273,5.165,13.6a5.963,5.963,0,0,1-.761-.763L1.735,14.386.729,12.657,3.388,11.11A5.966,5.966,0,0,1,3.093,10H0V8H3.091a5.951,5.951,0,0,1,.3-1.118L.725,5.333l1-1.729L4.4,5.159a5.989,5.989,0,0,1,.774-.778L3.629,1.722,5.357.716,6.908,3.382A5.968,5.968,0,0,1,8,3.083V0h2V5H9A4,4,0,0,0,5,9Z"/></svg>
