<?xml version="1.0" encoding="UTF-8"?>
<svg xmlns="http://www.w3.org/2000/svg" id="Layer_1" data-name="Layer 1" viewBox="0 0 24 24" width="512" height="512"><path d="M19,18h-.394a25.37,25.37,0,0,1-2.526-8H18V8H16.385l1.5-3.331A2,2,0,0,0,16,2H13V0H11V2H8a2,2,0,0,0-1.634.847,2.031,2.031,0,0,0-.22,1.9L7.614,8H6v2H7.92a25.37,25.37,0,0,1-2.526,8H5a3,3,0,0,0-3,3v3H22V21A3,3,0,0,0,19,18ZM8,4h8.029L14.192,8H9.808Zm1.929,6h4.142a25.784,25.784,0,0,0,2.312,8H7.617A25.784,25.784,0,0,0,9.929,10ZM20,22H4V21a1,1,0,0,1,1-1H19a1,1,0,0,1,1,1Z"/></svg>
