<?xml version="1.0" encoding="UTF-8"?>
<svg xmlns="http://www.w3.org/2000/svg" id="Layer_1" data-name="Layer 1" viewBox="0 0 24 24" width="512" height="512"><path d="M16.336,15.253l1.33,1.493A9.454,9.454,0,0,1,12,19a9.454,9.454,0,0,1-5.666-2.254l1.332-1.492A7.509,7.509,0,0,0,12,17,7.517,7.517,0,0,0,16.336,15.253ZM9.5,14A1.5,1.5,0,1,0,8,12.5,1.5,1.5,0,0,0,9.5,14Zm5,0A1.5,1.5,0,1,0,13,12.5,1.5,1.5,0,0,0,14.5,14ZM24,18.5A5.506,5.506,0,0,1,18.5,24H5.5a5.484,5.484,0,0,1-3.361-9.829,4.97,4.97,0,0,1,1.9-5.178A3.5,3.5,0,0,1,7.5,5H8.806A4.1,4.1,0,0,0,11,1V0h1c2.4,0,4.408,2.747,4.89,5.021a3.5,3.5,0,0,1,3.075,3.972,4.97,4.97,0,0,1,1.9,5.178A5.483,5.483,0,0,1,24,18.5Zm-2,0a3.5,3.5,0,0,0-1.813-3.044l-.792-.439.359-.832a2.97,2.97,0,0,0-1.4-3.842l-.819-.42.35-.852A1.5,1.5,0,0,0,16.5,7H15V6a5.237,5.237,0,0,0-2.1-3.691A5.773,5.773,0,0,1,9.316,6.948L9.162,7H7.5A1.5,1.5,0,0,0,6.115,9.071l.35.852-.819.42a2.97,2.97,0,0,0-1.4,3.842l.359.832-.792.439A3.486,3.486,0,0,0,5.5,22h13A3.5,3.5,0,0,0,22,18.5Z"/></svg>
