<?xml version="1.0" encoding="UTF-8"?>
<svg xmlns="http://www.w3.org/2000/svg" id="Layer_1" data-name="Layer 1" viewBox="0 0 24 24" width="512" height="512"><path d="M20.564,12.143c.178-.9.323-1.837.42-2.81a3.051,3.051,0,0,0-.771-2.346A2.994,2.994,0,0,0,18,6L3,6H3a2.994,2.994,0,0,0-2.215.984A3.047,3.047,0,0,0,.016,9.33,31.3,31.3,0,0,0,5.194,23.592l.3.408H15.507l.3-.408A23.048,23.048,0,0,0,17.386,21H19a5.007,5.007,0,0,0,5-5C24,13.946,22.743,12.571,20.564,12.143ZM10,13.414V16H8V13.414l1-1ZM14.471,22H6.529A30.171,30.171,0,0,1,2.006,9.131a1.044,1.044,0,0,1,.262-.8A.978.978,0,0,1,3,8H8v2.585l-2,2V18h6V12.586l-2-2V8h8a.978.978,0,0,1,.733.327,1.042,1.042,0,0,1,.262.8A30.174,30.174,0,0,1,14.471,22ZM19,19h-.634a32.654,32.654,0,0,0,1.747-4.915C22,14.41,22,15.576,22,16A3,3,0,0,1,19,19ZM11.026,4h-2V0h2Zm4,0h-2V0h2Zm-8,0h-2V0h2Z"/></svg>
