<?xml version="1.0" encoding="UTF-8"?>
<svg xmlns="http://www.w3.org/2000/svg" id="Layer_1" data-name="Layer 1" viewBox="0 0 24 24" width="512" height="512"><path d="M24,5c0-1.654-1.346-3-3-3H12.236L8.236,0H3C1.346,0,0,1.346,0,3V22H4.518c-.412-.616-.743-1.289-.995-2h-1.523V8H22v12h-1.523c-.252,.711-.582,1.384-.995,2h4.518V5ZM2,6V3c0-.552,.448-1,1-1H7.764l4,2h9.236c.552,0,1,.448,1,1v1H2Zm10,4c-3.859,0-7,3.141-7,7s3.141,7,7,7,7-3.141,7-7-3.141-7-7-7Zm0,12c-2.757,0-5-2.243-5-5s2.243-5,5-5,5,2.243,5,5-2.243,5-5,5Zm1-5.414l1.707,1.707-1.414,1.414-2.293-2.293v-3.414h2v2.586Z"/></svg>
