<?xml version="1.0" encoding="UTF-8"?>
<svg xmlns="http://www.w3.org/2000/svg" id="Layer_1" data-name="Layer 1" viewBox="0 0 24 24" width="512" height="512"><path d="M21,2h3V0H21a3,3,0,0,0-3,3V16.271L3.336,20.991l-1.285-3.9a1,1,0,0,1,.636-1.263l.96-.316.927,2.865L16.1,14.436l-.921-2.844.821-.27V9.269a3.013,3.013,0,0,0-.507.114l-.93.306-.85-2.628a3,3,0,0,0-3.806-1.9L4.09,7.194a3,3,0,0,0-1.911,3.783l.852,2.633-.97.32A3,3,0,0,0,.15,17.718l1.282,3.887-1.379.443.613,1.9,15.468-4.979A4.018,4.018,0,0,0,20,24c5.274-.138,5.274-7.863,0-8V3A1,1,0,0,1,21,2ZM4.137,9.593a1.006,1.006,0,0,1,.6-.506L10.551,7.05a1,1,0,0,1,1.261.632l1.78,5.5-7.74,2.647L4.08,10.356A.993.993,0,0,1,4.137,9.593ZM22,20a2,2,0,0,1-4,0A2,2,0,0,1,22,20Z"/></svg>
