<?xml version="1.0" encoding="UTF-8"?>
<svg xmlns="http://www.w3.org/2000/svg" id="Layer_1" data-name="Layer 1" viewBox="0 0 24 24" width="512" height="512"><path d="M24,13c0-5.672-4.866-8.715-8-9.749V0H8V3.251C4.866,4.285,0,7.328,0,13c0,4.521,3.593,7.879,9.037,8.767l-.814.541,1.1,1.666L11,22.864V24h2V22.868L14.7,24l1.11-1.664-.852-.568C20.4,20.882,24,17.524,24,13ZM10,4.414V2h4l0,2.413.289.293A14.422,14.422,0,0,1,18,14a5.588,5.588,0,0,1-2.612,4.826A12.279,12.279,0,0,0,16,15c0-6.341-3.158-9.572-3.293-9.707L12,4.586l-.707.707C11.158,5.428,8,8.659,8,15a12.279,12.279,0,0,0,.612,3.826A5.588,5.588,0,0,1,6,14,14.429,14.429,0,0,1,9.707,4.707ZM10,15a13.443,13.443,0,0,1,2-7.354A13.451,13.451,0,0,1,14,15c0,2.088-.761,5-2,5S10,17.088,10,15ZM2,13A7.7,7.7,0,0,1,6.07,6.353,15.62,15.62,0,0,0,4,14a7.465,7.465,0,0,0,1.364,4.4A6.094,6.094,0,0,1,2,13Zm16.636,5.4A7.465,7.465,0,0,0,20,14a15.62,15.62,0,0,0-2.07-7.647A7.7,7.7,0,0,1,22,13,6.094,6.094,0,0,1,18.636,18.4Z"/></svg>
