<?xml version="1.0" encoding="UTF-8"?>
<svg xmlns="http://www.w3.org/2000/svg" id="Layer_1" data-name="Layer 1" viewBox="0 0 24 24" width="512" height="512"><path d="M12,2.5A2.5,2.5,0,1,1,14.5,5,2.5,2.5,0,0,1,12,2.5ZM24,20a4,4,0,0,1-4,4H0V22H.012L2.357,12H4.41L2.065,22H4.992l1.833-5.2a4.987,4.987,0,0,0,.98.837l.665.42L7.127,22H12.99V18.551l-4.116-2.6A3,3,0,0,1,7.7,12.273L9.454,8H6.539L5.22,10h-2.4L5.487,6H13.86a3.015,3.015,0,0,1,2.57,1.453L18.565,11h1.984l.473-2.209,1.956.418L20.242,21.975A2,2,0,0,0,22,20Zm-9.01-2.551V22h3.2l1.929-9H17.435L15.158,9.217l-1.952,4.737L11.49,12.869,13.5,8h-1.88L9.552,13.032a1,1,0,0,0,.39,1.225Z"/></svg>
