<?xml version="1.0" encoding="UTF-8"?>
<svg xmlns="http://www.w3.org/2000/svg" id="Layer_1" data-name="Layer 1" viewBox="0 0 24 24" width="512" height="512"><path d="M16.5,6A3.779,3.779,0,0,0,13,10a3.779,3.779,0,0,0,3.5,4A3.779,3.779,0,0,0,20,10,3.779,3.779,0,0,0,16.5,6Zm0,6c-.813,0-1.5-.916-1.5-2a2.479,2.479,0,0,1,.148-.85,1.5,1.5,0,0,0,2.7,0A2.479,2.479,0,0,1,18,10C18,11.084,17.313,12,16.5,12ZM11,10A3.779,3.779,0,0,0,7.5,6,3.779,3.779,0,0,0,4,10a3.779,3.779,0,0,0,3.5,4A3.779,3.779,0,0,0,11,10ZM7.5,12C6.687,12,6,11.084,6,10a2.479,2.479,0,0,1,.148-.85,1.5,1.5,0,0,0,2.7,0A2.479,2.479,0,0,1,9,10C9,11.084,8.313,12,7.5,12ZM8,16h8v2H8ZM12,0A12,12,0,1,0,24,12,12.013,12.013,0,0,0,12,0Zm0,22A10,10,0,1,1,22,12,10.011,10.011,0,0,1,12,22Z"/></svg>
