<?xml version="1.0" encoding="UTF-8"?>
<svg xmlns="http://www.w3.org/2000/svg" id="Layer_1" data-name="Layer 1" viewBox="0 0 24 24" width="512" height="512"><path d="M17,16H13V13a3,3,0,0,1,3-3h2V8h2v5A3,3,0,0,1,17,16Zm-2-2h2a1,1,0,0,0,1-1V12H16a1,1,0,0,0-1,1Zm-4,2H7a3,3,0,0,1-3-3V8H6v2H8a3,3,0,0,1,3,3ZM6,12v1a1,1,0,0,0,1,1H9V13a1,1,0,0,0-1-1ZM24,24H15.588L14.08,21.234a2.37,2.37,0,0,0-4.16,0L8.412,24H0V12.365A12.248,12.248,0,0,1,11.775,0h0A12,12,0,0,1,24,12Zm-7.225-2H22V12A10,10,0,0,0,11.812,2h0A10.238,10.238,0,0,0,2,12.365V22H7.225l.939-1.723a4.37,4.37,0,0,1,7.672,0Z"/></svg>
