<?xml version="1.0" encoding="UTF-8"?>
<svg xmlns="http://www.w3.org/2000/svg" id="Layer_1" data-name="Layer 1" viewBox="0 0 24 24" width="512" height="512"><path d="M10.808,9.845a1.6,1.6,0,0,1-.036,1.581L9.008,14.959l-1.789-.893L8.75,11H6.615A1.614,1.614,0,0,1,5.07,8.917L7.293,4.756l1.76.949L7.275,9H9.4A1.6,1.6,0,0,1,10.808,9.845ZM24,2V6a2,2,0,0,1-2,2V18a3,3,0,0,1-3,3H16v3H0V3A3,3,0,0,1,3,0H13a3,3,0,0,1,3,3V19h3a1,1,0,0,0,1-1V8a2,2,0,0,1-2-2V2h2V4h2V2ZM14,22V11H12V9h2V3a1,1,0,0,0-1-1H3A1,1,0,0,0,2,3V9H4v2H2V22Z"/></svg>
