<?xml version="1.0" encoding="UTF-8"?>
<svg xmlns="http://www.w3.org/2000/svg" id="Layer_1" data-name="Layer 1" viewBox="0 0 24 24" width="512" height="512"><path d="M9.809,24a15.9,15.9,0,0,1-4.86-.72A3.071,3.071,0,0,1,.88,23.121a3,3,0,0,1-.16-4.07C-.579,15.1-.445,8.2,3.875,3.875S15.1-.578,19.051.719a3.072,3.072,0,0,1,4.069.16,3,3,0,0,1,.16,4.07c1.3,3.956,1.165,10.855-3.155,15.176A14.51,14.51,0,0,1,9.809,24Zm4.4-22A12.593,12.593,0,0,0,5.289,5.289C1.42,9.159,1.517,15.715,2.8,18.928l.244.611-.751.753a1,1,0,0,0,0,1.414,1.021,1.021,0,0,0,1.413,0l.754-.752.612.244c3.212,1.284,9.768,1.382,13.638-2.488S22.483,8.285,21.2,5.072l-.244-.611.752-.754a1,1,0,0,0,0-1.413,1.021,1.021,0,0,0-1.413,0l-.754.753L18.927,2.8A13.16,13.16,0,0,0,14.21,2ZM17,12a1,1,0,1,0,1,1A1,1,0,0,0,17,12ZM15,9a1,1,0,1,0,1,1A1,1,0,0,0,15,9Zm4,0a1,1,0,1,0,1,1A1,1,0,0,0,19,9Z"/></svg>
