<?xml version="1.0" encoding="UTF-8"?>
<svg xmlns="http://www.w3.org/2000/svg" id="Layer_1" data-name="Layer 1" viewBox="0 0 24 24" width="512" height="512"><path d="M23.121,7.243,16.758.879a3.073,3.073,0,0,0-4.243,0L.879,12.515a3,3,0,0,0,0,4.242l6.364,6.364a3,3,0,0,0,4.242,0L23.121,11.485a3,3,0,0,0,0-4.242Zm-9.192-4.95a1,1,0,0,1,1.414,0l2.443,2.443L15.459,7.063l-3.15-3.15ZM11.968,13.382,15.182,16.6l-2.077,2.077L9.891,15.459Zm-3.491.663L5.327,10.9,7.4,8.818l3.15,3.15Zm4.9-2.077,2.077-2.077,3.214,3.214L16.6,15.182Zm-1.414-1.414L8.818,7.4,10.9,5.327l3.15,3.15ZM2,14.636a.993.993,0,0,1,.293-.707l1.62-1.62,3.15,3.15L4.736,17.786,2.292,15.342A.994.994,0,0,1,2,14.636Zm8.071,7.071a1,1,0,0,1-1.414,0L6.15,19.2l2.327-2.327,3.214,3.214ZM21.707,10.071l-1.62,1.62L16.873,8.477,19.2,6.15l2.507,2.507h0a1,1,0,0,1,0,1.413Z"/></svg>
