<?xml version="1.0" encoding="UTF-8"?>
<svg xmlns="http://www.w3.org/2000/svg" id="Layer_1" data-name="Layer 1" viewBox="0 0 24 24" width="512" height="512"><path d="M11.026,4h-2V0h2Zm4-4h-2V4h2ZM0,24H20V22H0ZM23.993,13.143A3.981,3.981,0,0,1,20,17H16.845a22.085,22.085,0,0,1-2.431,3H5.59A21.943,21.943,0,0,1,.033,9.4,2.844,2.844,0,0,1,.674,7.087,3.047,3.047,0,0,1,3.007,6h0L17,6A3.05,3.05,0,0,1,19.328,7.09,2.84,2.84,0,0,1,19.97,9.4c-.035.2-.081.4-.123.6H20C22.462,10,23.993,11.205,23.993,13.143ZM17.8,8.38A1.061,1.061,0,0,0,17,8L3.008,8h0a1.065,1.065,0,0,0-.8.376.841.841,0,0,0-.2.685A19.193,19.193,0,0,0,6.44,18h7.124A19.181,19.181,0,0,0,18,9.064.841.841,0,0,0,17.8,8.38Zm4.2,4.763c0-.758-.672-1.143-2-1.143h-.687a20.161,20.161,0,0,1-1.279,3H20A1.982,1.982,0,0,0,21.994,13.143ZM7.026,0h-2V4h2Z"/></svg>
