<?xml version="1.0" encoding="UTF-8"?>
<svg xmlns="http://www.w3.org/2000/svg" id="Layer_1" data-name="Layer 1" viewBox="0 0 24 24" width="512" height="512"><path d="M18,15a1,1,0,1,1-1-1A1,1,0,0,1,18,15Zm-3,2a1,1,0,1,0,1,1A1,1,0,0,0,15,17Zm3,1a1,1,0,1,0,1-1A1,1,0,0,0,18,18Zm5.118-7.106A9.949,9.949,0,0,1,24,15v5a3,3,0,0,1-3,3H3a3,3,0,0,1-3-3V15A9.963,9.963,0,0,1,2.193,8.779a17.513,17.513,0,0,0,.712,2.533A7.993,7.993,0,0,0,2,15v5a1,1,0,0,0,2,0V15a9.949,9.949,0,0,1,.882-4.106A12.567,12.567,0,0,1,4,7,4,4,0,0,1,7.311,3.06a3.543,3.543,0,0,1,3.957-1.972,3.974,3.974,0,0,1,5.464,0A3.421,3.421,0,0,1,17.5,1a3.508,3.508,0,0,1,3.189,2.06A4.007,4.007,0,0,1,24,7,12.56,12.56,0,0,1,23.118,10.894ZM6.266,8.668a9.987,9.987,0,0,1,15.468,0A6.989,6.989,0,0,0,22,7a2,2,0,0,0-1.941-2l-.928,0-.161-.8a1.5,1.5,0,0,0-2.112-1.05l-.753.36-.488-.677a2.041,2.041,0,0,0-3.234,0l-.488.677-.754-.36A1.5,1.5,0,0,0,9.03,4.2l-.161.8L7.945,5A2,2,0,0,0,6,7,6.973,6.973,0,0,0,6.266,8.668ZM22,15A8,8,0,0,0,6,15v5a3.009,3.009,0,0,1-.171,1H21a1,1,0,0,0,1-1Z"/></svg>
