<?xml version="1.0" encoding="UTF-8"?>
<svg xmlns="http://www.w3.org/2000/svg" id="Layer_1" data-name="Layer 1" viewBox="0 0 24 24" width="512" height="512"><path d="M18.842,5.059C18.246,1.6,16.056,0,14,0V2c1.174,0,2.359,1.064,2.81,3.119A6.009,6.009,0,0,0,12,11c0,2.5-2.38,4-4.681,4-3.471,0-4.628-2.8-4.986-5.151L2.2,9H.357l-.15.819A12,12,0,1,0,24,12V11A6.009,6.009,0,0,0,18.842,5.059ZM20.38,7.787a2.941,2.941,0,0,1-4.76,0,3.992,3.992,0,0,1,4.76,0ZM22,12A10,10,0,0,1,2.452,14.976,6.372,6.372,0,0,0,7.319,17C11.065,17,14,14.364,14,11a3.979,3.979,0,0,1,.343-1.62,4.938,4.938,0,0,0,7.314,0A3.979,3.979,0,0,1,22,11ZM4.293,6.708A4.385,4.385,0,0,1,3,3.586V2H5V3.586a2.394,2.394,0,0,0,.707,1.706A4.385,4.385,0,0,1,7,8.414V10H5V8.414A2.394,2.394,0,0,0,4.293,6.708Zm4-1A4.385,4.385,0,0,1,7,2.586V1H9V2.586a2.394,2.394,0,0,0,.707,1.706A4.385,4.385,0,0,1,11,7.414V9H9V7.414A2.394,2.394,0,0,0,8.293,5.708Z"/></svg>
