<?xml version="1.0" encoding="UTF-8"?>
<svg xmlns="http://www.w3.org/2000/svg" id="Layer_1" data-name="Layer 1" viewBox="0 0 24 24" width="512" height="512"><path d="M20.84,8.356a2.647,2.647,0,0,0,.667-.473c1.229-1.229,1.979-5.223,2.18-6.418L23.919.082,22.535.313c-1.2.2-5.189.951-6.419,2.18a2.662,2.662,0,0,0-.473.667c-.527-.857-1.07-1.6-1.344-1.966L13.5.131l-.8,1.063a19.825,19.825,0,0,0-2.4,4l0,0L9.5,4.131,8.7,5.194a19.825,19.825,0,0,0-2.4,4l0,0L5.5,8.131,4.7,9.194C4.067,10.036,2,12.909,2,14.5c0,1.236,1.081,3.248,1.735,4.351L.043,22.543l1.414,1.414,3.692-3.692C6.252,20.919,8.265,22,9.5,22c1.591,0,4.464-2.067,5.306-2.7l1.063-.8-1.063-.8,0,0a19.8,19.8,0,0,0,4-2.4l1.063-.8-1.063-.8,0,0a19.8,19.8,0,0,0,4-2.4l1.063-.8-1.063-.8C22.441,9.427,21.7,8.884,20.84,8.356ZM17.53,3.907a11.587,11.587,0,0,1,3.907-1.344,11.551,11.551,0,0,1-1.344,3.906,5.68,5.68,0,0,1-3.07.509A5.766,5.766,0,0,1,17.53,3.907ZM13.5,3.53A9.089,9.089,0,0,1,15,6.5a3.108,3.108,0,0,1-.573,1.659L13.2,9.387A9,9,0,0,1,12,6.5,9.089,9.089,0,0,1,13.5,3.53Zm-4,4A9.089,9.089,0,0,1,11,10.5a3.117,3.117,0,0,1-.572,1.659L9.2,13.387A9,9,0,0,1,8,10.5,9.089,9.089,0,0,1,9.5,7.53ZM4,14.5a9.089,9.089,0,0,1,1.5-2.97A9.089,9.089,0,0,1,7,14.5a3.1,3.1,0,0,1-.572,1.658L5.2,17.387A9,9,0,0,1,4,14.5ZM9.5,20a8.984,8.984,0,0,1-2.886-1.2l1.228-1.227A3.1,3.1,0,0,1,9.5,17a9.1,9.1,0,0,1,2.971,1.5A9.1,9.1,0,0,1,9.5,20Zm4-4a8.984,8.984,0,0,1-2.886-1.2l1.228-1.228A3.108,3.108,0,0,1,13.5,13a9.1,9.1,0,0,1,2.971,1.5A9.1,9.1,0,0,1,13.5,16Zm4-4a9.008,9.008,0,0,1-2.886-1.2l1.228-1.229A3.108,3.108,0,0,1,17.5,9a9.1,9.1,0,0,1,2.971,1.5A9.1,9.1,0,0,1,17.5,12Z"/></svg>
