<?xml version="1.0" encoding="UTF-8"?>
<svg xmlns="http://www.w3.org/2000/svg" id="Layer_1" data-name="Layer 1" viewBox="0 0 24 24" width="512" height="512"><path d="M14.975,24l-1.846-.772,3-7.172,1.846.771Zm-1.27-7.173-1.845-.771-3,7.172L10.705,24Zm-4.289,0-1.845-.771-3,7.172L6.416,24ZM17.44,5.059A8,8,0,0,0,2,8a7.968,7.968,0,0,0,.266,2.05,5.5,5.5,0,0,0,1.593,9.7l.777-1.858a3.5,3.5,0,0,1-.725-6.511l.8-.407-.318-.839A6,6,0,0,1,10,2a6.035,6.035,0,0,1,5.752,4.289l.206.691L16.679,7a5.5,5.5,0,0,1,3.607,9.483l-1.292,3.087A7.5,7.5,0,0,0,17.44,5.059Z"/></svg>
