<?xml version="1.0" encoding="UTF-8"?>
<svg xmlns="http://www.w3.org/2000/svg" id="Layer_1" data-name="Layer 1" viewBox="0 0 24 24" width="512" height="512"><path d="M17.808,18.845a1.6,1.6,0,0,1-.036,1.581l-1.763,3.533-1.789-.893L15.75,20H13.615a1.614,1.614,0,0,1-1.546-2.082l.077-.186,2.147-3.976,1.76.949L14.274,18H16.4A1.6,1.6,0,0,1,17.808,18.845Zm1.578-6.83A5.487,5.487,0,0,0,9.013,14.123,4,4,0,0,0,10,22V20a2,2,0,0,1-.054-4l1.221,0-.145-1.284A1.8,1.8,0,0,1,11,14.5a3.488,3.488,0,0,1,6.788-1.144l.253.726.767-.058A1.694,1.694,0,0,0,19,14a2.993,2.993,0,0,1,1,5.816V21.9a5,5,0,0,0-.614-9.884ZM2,9A7.009,7.009,0,0,1,9,2a6.871,6.871,0,0,1,1.835.247A8.653,8.653,0,0,0,8,8.637a8.508,8.508,0,0,0,.2,1.8,7.563,7.563,0,0,1,1.806-1.923,6.652,6.652,0,0,1,3.346-5.643l1.542-.88-1.552-.862A8.988,8.988,0,0,0,4.18,16.588a5.971,5.971,0,0,1,.8-1.864A6.993,6.993,0,0,1,2,9ZM20,4a1,1,0,1,0-1-1A1,1,0,0,0,20,4ZM16,7a1,1,0,1,0-1-1A1,1,0,0,0,16,7Zm6,3a1,1,0,1,0-1-1A1,1,0,0,0,22,10Z"/></svg>
