<?xml version="1.0" encoding="UTF-8"?>
<svg xmlns="http://www.w3.org/2000/svg" id="Layer_1" data-name="Layer 1" viewBox="0 0 24 24" width="512" height="512"><path d="M21,2H3C1.346,2,0,3.346,0,5V22H24V5c0-1.654-1.346-3-3-3Zm1,18H2V5c0-.551,.449-1,1-1H21c.551,0,1,.449,1,1v15Zm-4-8.662c-.455-.217-.964-.338-1.5-.338-1.93,0-3.5,1.57-3.5,3.5s1.57,3.5,3.5,3.5c.536,0,1.045-.122,1.5-.338v.338h2V6h-2v5.338Zm-1.5,4.662c-.827,0-1.5-.673-1.5-1.5s.673-1.5,1.5-1.5,1.5,.673,1.5,1.5-.673,1.5-1.5,1.5ZM7.652,6L3.367,18h2.124l.714-2h3.591l.714,2h2.124L8.348,6h-.695Zm-.734,8l1.081-3.027,1.081,3.027h-2.162Z"/></svg>
