<?xml version="1.0" encoding="UTF-8"?>
<svg xmlns="http://www.w3.org/2000/svg" id="Layer_1" data-name="Layer 1" viewBox="0 0 24 24" width="512" height="512"><path d="M22,18.185V11h1V7H21V9H19V7H17V9H15V7H13v4h1v6.026A4.988,4.988,0,0,1,15.9,20h5.08A.96.96,0,0,1,22,21v1H16v2h8V21A2.93,2.93,0,0,0,22,18.185ZM16,11h4v7H16Zm-4.229,7.113A42.377,42.377,0,0,1,10.028,9H11V7h-.37l1.275-2.589a1.8,1.8,0,0,0-1.7-2.4H8.01v-2h-2v2H3.81a1.8,1.8,0,0,0-1.7,2.4L3.391,7H3V9h.972A41.985,41.985,0,0,1,2.23,18.113,3,3,0,0,0,0,21v3H14V21A3,3,0,0,0,11.771,18.113ZM4.139,4.01h5.74L8.4,7H5.62ZM8.025,9a42.264,42.264,0,0,0,1.626,9H4.35A41.865,41.865,0,0,0,5.976,9ZM12,22H2V21a1,1,0,0,1,1-1h8a1,1,0,0,1,1,1Z"/></svg>
