<?xml version="1.0" encoding="UTF-8"?>
<svg xmlns="http://www.w3.org/2000/svg" id="Layer_1" data-name="Layer 1" viewBox="0 0 24 24" width="512" height="512"><path d="M20,7h-1V3c0-1.654-1.346-3-3-3H8c-1.654,0-3,1.346-3,3V7h-1c-1.654,0-3,1.346-3,3v9H11v3H6v2h12v-2h-5v-3h10V10c0-1.654-1.346-3-3-3Zm0,2c.551,0,1,.448,1,1v3.172c-.313-.111-.649-.172-1-.172h-1v-4h1ZM8,2h8c.551,0,1,.448,1,1V13H7V3c0-.552,.449-1,1-1Zm-4,7h1v4h-1c-.351,0-.687,.061-1,.172v-3.172c0-.552,.449-1,1-1Zm17,8H3v-1c0-.552,.449-1,1-1H20c.551,0,1,.448,1,1v1Z"/></svg>
