<?xml version="1.0" encoding="UTF-8"?>
<svg xmlns="http://www.w3.org/2000/svg" id="Layer_1" data-name="Layer 1" viewBox="0 0 24 24" width="512" height="512"><path d="M15.047,6.275C15.316,4.234,16.7,3,18,3V1a5.439,5.439,0,0,0-5,5.026h0V0H11V6.026A5.439,5.439,0,0,0,6,1V3C7.3,3,8.684,4.234,8.953,6.275,3.781,7.324,3,11.2,3,15c0,4.45,1.069,9,9,9s9-4.55,9-9C21,11.2,20.219,7.324,15.047,6.275ZM16.2,8.7a4.107,4.107,0,0,1,2.149,2.128l-2.8,2.8-2.138-2.138Zm-2.067,6.344L12,17.18,9.859,15.041,12,12.9ZM12,8a15.718,15.718,0,0,1,1.961.111L12,10.075,10.034,8.112A15.8,15.8,0,0,1,12,8Zm-4.207.7,2.791,2.791L8.445,13.627l-2.8-2.8A4.117,4.117,0,0,1,7.793,8.7ZM5,15a17.939,17.939,0,0,1,.088-1.9l1.943,1.943L5.1,16.977A17.657,17.657,0,0,1,5,15Zm.672,4.229,2.773-2.774,2.138,2.139L7.85,21.327A4.121,4.121,0,0,1,5.672,19.229ZM12,22a15.987,15.987,0,0,1-1.892-.1L12,20.008l1.89,1.89A16.115,16.115,0,0,1,12,22Zm4.146-.672-2.735-2.734,2.139-2.139,2.776,2.777A4.118,4.118,0,0,1,16.146,21.328ZM18.9,16.981l-1.94-1.94,1.947-1.947A17.992,17.992,0,0,1,19,15,17.718,17.718,0,0,1,18.9,16.981Z"/></svg>
