<?xml version="1.0" encoding="UTF-8"?>
<svg xmlns="http://www.w3.org/2000/svg" id="Layer_1" data-name="Layer 1" viewBox="0 0 24 24" width="512" height="512"><path d="M22.849,7.681l-9-7.043a2.989,2.989,0,0,0-3.7,0l-9,7.042A2.985,2.985,0,0,0,0,10.043V24H6V13a1,1,0,0,1,1-1H17a1,1,0,0,1,1,1V24h6V10.043A2.981,2.981,0,0,0,22.849,7.681ZM22,22H20V13a3,3,0,0,0-3-3H7a3,3,0,0,0-3,3v9H2V10.043a.994.994,0,0,1,.384-.788l9-7.043a1,1,0,0,1,1.232,0l9,7.044a.991.991,0,0,1,.384.787Zm-6.325-6.6A1.993,1.993,0,0,0,13.769,14H10.231A1.993,1.993,0,0,0,8.325,15.4l-1.091,3.44A5.009,5.009,0,0,0,7,20.347V22H8v2h2V22h4v2h2V22h1V20.347a5.02,5.02,0,0,0-.234-1.513ZM13.769,16l.634,2H9.6l.634-2Z"/></svg>
