<?xml version="1.0" encoding="UTF-8"?>
<svg xmlns="http://www.w3.org/2000/svg" id="Layer_1" data-name="Layer 1" viewBox="0 0 24 24" width="512" height="512"><path d="M21,8h-1.58L20.086,.011l-1.075-.011c-1.075-.009-1.82,.698-2.397,1.217-.295,.265-.871,.78-1.103,.783-.253-.003-.829-.519-1.124-.783-.573-.515-1.356-1.217-2.354-1.217-1.061-.009-1.843,.698-2.42,1.217-.295,.265-.871,.78-1.103,.783-.253-.003-.829-.519-1.124-.783C6.809,.698,6.019-.006,4.989,0l-1.075,.011,.666,7.989h-1.58c-1.654,0-3,1.346-3,3v13H24V11c0-1.654-1.346-3-3-3ZM8.511,4c1.007-.011,1.786-.71,2.355-1.221,.314-.282,.86-.76,1.145-.779h.002c.252,0,.808,.498,1.121,.779,.569,.511,1.349,1.21,2.377,1.221,.995-.011,1.769-.694,2.336-1.203l-.767,9.203h-1.994l.327-3.917-1.992-.166-.341,4.083h-2.161l-.507-6.083-1.992,.166,.493,5.917h-1.994l-.767-9.203c.567,.509,1.342,1.192,2.357,1.203Zm13.489,18H2v-3H22v3Zm0-5H2v-6c0-.552,.448-1,1-1h1.747l.333,4h13.84l.333-4h1.747c.552,0,1,.448,1,1v6Z"/></svg>
