<?xml version="1.0" encoding="UTF-8"?>
<svg xmlns="http://www.w3.org/2000/svg" id="Layer_1" data-name="Layer 1" viewBox="0 0 24 24" width="512" height="512"><path d="M12,15a3,3,0,1,1,3-3A3,3,0,0,1,12,15Zm0-4a1,1,0,1,0,1,1A1,1,0,0,0,12,11ZM10,24H7V22a5.428,5.428,0,0,0,3.437-1.122A10.016,10.016,0,0,1,2,11C2,4.626,7.047,0,14,0h3V2a5.428,5.428,0,0,0-3.437,1.122A10.016,10.016,0,0,1,22,13C22,19.374,16.953,24,10,24ZM11.579,2.233C7.07,3.132,4,6.544,4,11a8.009,8.009,0,0,0,8,8h2.118L13.4,20.447a6.019,6.019,0,0,1-.974,1.32C16.93,20.868,20,17.456,20,13a8.009,8.009,0,0,0-8-8H9.882l.723-1.447A6.019,6.019,0,0,1,11.579,2.233Z"/></svg>
