<?xml version="1.0" encoding="UTF-8"?>
<svg xmlns="http://www.w3.org/2000/svg" id="Layer_1" data-name="Layer 1" viewBox="0 0 24 24" width="512" height="512"><path d="M21.932,2.078A7.455,7.455,0,0,0,15.74.05,10.865,10.865,0,0,0,9.267,3.259a10.523,10.523,0,0,0-3.223,7.934s.073.812.141,1.144c.15,1.571.131,3.943-.883,4.957l-5.25,5.25,1.414,1.414,5.25-5.25c1.025-1.024,3.434-1.033,5-.878a10.937,10.937,0,0,0,1.619.162,10.666,10.666,0,0,0,7.412-3.249C24.569,10.926,25.1,5.244,21.932,2.078Zm-.517,8.154L19.933,8.749l2.042-2.043A7.432,7.432,0,0,1,21.415,10.232Zm-.1-5.69L18.519,7.335,16.593,5.409l2.753-2.752a4.866,4.866,0,0,1,1.172.835A4.833,4.833,0,0,1,21.311,4.542ZM9.5,14.51a4.874,4.874,0,0,1-.849-1.159l2.992-2.992,1.926,1.926L10.551,15.3A4.807,4.807,0,0,1,9.5,14.51ZM8.743,7.458l1.486,1.487L8.047,11.127A7.949,7.949,0,0,1,8.743,7.458Zm4.315,1.487,2.121-2.122,1.926,1.926-2.122,2.122Zm2.89-6.9A6.772,6.772,0,0,1,16.681,2c.156,0,.3.028.453.039L15.179,4l-1.4-1.4A7.985,7.985,0,0,1,15.948,2.04ZM11.955,3.6l1.81,1.809L11.644,7.531,9.8,5.689A9.557,9.557,0,0,1,11.955,3.6Zm1.091,12.39c-.079-.014-.185-.032-.3-.05L14.983,13.7l1.569,1.568A7.684,7.684,0,0,1,13.046,15.99Zm5.275-1.782L16.4,12.285l2.122-2.122,1.891,1.891a9.536,9.536,0,0,1-2.089,2.154Z"/></svg>
