<?xml version="1.0" encoding="UTF-8"?>
<svg xmlns="http://www.w3.org/2000/svg" id="Layer_1" data-name="Layer 1" viewBox="0 0 24 24" width="512" height="512"><path d="M22.949,14.684,22.721,14H18.337l-.31-3.72.343-.05a2.509,2.509,0,0,0,1.991-3.345A10.5,10.5,0,0,0,0,10.5a50.976,50.976,0,0,0,.8,6.431A2.991,2.991,0,0,0,2.924,19.3a35.572,35.572,0,0,1,8.553,3.55l.672.412L15.414,20H16.83l.222,2.665.531.244A13.463,13.463,0,0,0,23,24h1V23A28.48,28.48,0,0,0,22.949,14.684ZM21.238,16c.112.454.257,1.136.391,2H18.67L18.5,16ZM16.33,14H13.189a.972.972,0,0,1-.028-.521l.484-1.935a1,1,0,0,1,.826-.747l1.573-.229Zm-4.489,6.745a38.8,38.8,0,0,0-8.353-3.361,1,1,0,0,1-.719-.788A47.758,47.758,0,0,1,2,10.5,8.5,8.5,0,0,1,18.483,7.573a.5.5,0,0,1-.041.437.5.5,0,0,1-.36.241l-3.9.566a2.989,2.989,0,0,0-2.478,2.242l-.484,1.935a2.991,2.991,0,0,0,.285,2.179l2.1,3.8ZM15.355,18l-1.106-2H16.5l.166,2Zm3.591,3.311L18.837,20h3.034c.053.6.093,1.257.114,1.959A11.434,11.434,0,0,1,18.946,21.311ZM10,16a1,1,0,1,1-1-1A1,1,0,0,1,10,16Z"/></svg>
