<?xml version="1.0" encoding="UTF-8"?>
<svg xmlns="http://www.w3.org/2000/svg" id="Layer_1" data-name="Layer 1" viewBox="0 0 24 24" width="512" height="512"><path d="M20.333,5.047A6.669,6.669,0,0,0,22,1.543l.068-.69L21.441.547A6.816,6.816,0,0,0,18.591,0a7.358,7.358,0,0,0-6.139,3.168A4.6,4.6,0,0,0,8,0V2c1.909,0,2.6,1.614,2.855,2.794A7.5,7.5,0,0,0,0,11.5C0,18.6,8,24,12,24s12-5.4,12-12.5A7.463,7.463,0,0,0,20.333,5.047ZM18.591,2a6.156,6.156,0,0,1,1.211.118,4.823,4.823,0,0,1-1.494,2.1,7.32,7.32,0,0,1-4.93,1.327A5.6,5.6,0,0,1,18.591,2ZM12,22C9.018,22,2,17.566,2,11.5a5.5,5.5,0,0,1,8.821-4.381A5.336,5.336,0,0,1,13,11.5a12.252,12.252,0,0,1-1.833,5.946l1.665,1.109A14.128,14.128,0,0,0,15,11.5a7.454,7.454,0,0,0-1.127-3.95,9.6,9.6,0,0,0,4.741-1.13A5.472,5.472,0,0,1,22,11.5C22,17.566,14.982,22,12,22Z"/></svg>
