<?xml version="1.0" encoding="UTF-8"?>
<svg xmlns="http://www.w3.org/2000/svg" id="Layer_1" data-name="Layer 1" viewBox="0 0 24 24" width="512" height="512"><path d="M14.971,10H9.029L0,22.678V24H24V22.59Zm-4.914,2h3.886l1.477,2.058a2.99,2.99,0,0,0-1.42.708,2.994,2.994,0,0,0-4,0,2.99,2.99,0,0,0-1.42-.708ZM2.884,22l4.3-6H8a1,1,0,0,1,1,1v1h2V17a1,1,0,0,1,2,0v3h2V17a1,1,0,0,1,1-1h.812l4.3,6ZM2,6A3,3,0,0,1,4.527,3.037,4,4,0,0,1,8,1a3.867,3.867,0,0,1,1.169.181,3.984,3.984,0,0,1,5.662,0A3.867,3.867,0,0,1,16,1a4,4,0,0,1,3.473,2.037A3,3,0,0,1,19,9a2.971,2.971,0,0,1-1.38-.342A3.987,3.987,0,0,1,16,9H13V7h3a1.993,1.993,0,0,0,1.116-.34l.645-.436.58.518A.991.991,0,0,0,19,7a1,1,0,0,0,0-2l-.777.07-.345-.723A1.99,1.99,0,0,0,15.021,3.27l-.828.469-.508-.8a1.986,1.986,0,0,0-3.37,0l-.508.8L8.979,3.27A1.989,1.989,0,0,0,6.122,4.347l-.257.737L4.977,5h0a1,1,0,1,0,.683,1.741l.58-.518.645.436A1.993,1.993,0,0,0,8,7h3V9H8a3.987,3.987,0,0,1-1.62-.342A2.971,2.971,0,0,1,5,9,3,3,0,0,1,2,6Z"/></svg>
