<?xml version="1.0" encoding="UTF-8"?>
<svg xmlns="http://www.w3.org/2000/svg" id="Layer_1" data-name="Layer 1" viewBox="0 0 24 24" width="512" height="512"><path d="M22.17,15.244l.78-.78L21.536,13.05l-.78.78A4.952,4.952,0,0,0,19,13.1V12H17v1.1a4.952,4.952,0,0,0-1.756.729l-.78-.78L13.05,14.464l.78.78A4.952,4.952,0,0,0,13.1,17H10.9a4.952,4.952,0,0,0-.729-1.756l.78-.78L9.536,13.05l-.78.78A4.952,4.952,0,0,0,7,13.1V12H5v1.1a4.952,4.952,0,0,0-1.756.729l-.78-.78L1.05,14.464l.78.78A4.952,4.952,0,0,0,1.1,17H0v2H1.1a4.952,4.952,0,0,0,.729,1.756l-.78.78L2.464,22.95l.78-.78A4.952,4.952,0,0,0,5,22.9V24H7V22.9a4.952,4.952,0,0,0,1.756-.729l.78.78,1.414-1.414-.78-.78A4.952,4.952,0,0,0,10.9,19h2.2a4.952,4.952,0,0,0,.729,1.756l-.78.78,1.414,1.414.78-.78A4.952,4.952,0,0,0,17,22.9V24h2V22.9a4.952,4.952,0,0,0,1.756-.729l.78.78,1.414-1.414-.78-.78A4.952,4.952,0,0,0,22.9,19H24V17H22.9A4.952,4.952,0,0,0,22.17,15.244ZM6,21a3,3,0,0,1,0-6A3,3,0,0,1,6,21Zm12,0a3,3,0,0,1,0-6A3,3,0,0,1,18,21ZM21,7h-.518L15.806,1.131A2.985,2.985,0,0,0,13.459,0H9V7H0v5.727a8.02,8.02,0,0,1,2-1.652V9H21a1,1,0,0,1,1,1v1.075a8.02,8.02,0,0,1,2,1.652V10A3,3,0,0,0,21,7ZM11,2h2.459a.992.992,0,0,1,.782.377L17.925,7H11Z"/></svg>
