<?xml version="1.0" encoding="UTF-8"?>
<svg xmlns="http://www.w3.org/2000/svg" id="Layer_1" data-name="Layer 1" viewBox="0 0 24 24" width="512" height="512"><path d="M18.935.014,7.785,17.539A.96.96,0,1,1,6.15,16.532a3,3,0,1,0-5.108-3.147A6.959,6.959,0,0,0,6.949,24a7.045,7.045,0,0,0,1.626-.191,6.9,6.9,0,0,0,4.31-3.106L24.042,3.162Zm.628,2.737,1.7,1.049-4.4,6.924-1.668-1.1ZM11.19,19.638a4.96,4.96,0,0,1-8.446-5.2,1,1,0,1,1,1.7,1.049A2.96,2.96,0,0,0,9.48,18.6l4.64-7.293,1.667,1.1ZM20.5,17A3.5,3.5,0,1,0,24,20.5,3.5,3.5,0,0,0,20.5,17Zm0,5A1.5,1.5,0,1,1,22,20.5,1.5,1.5,0,0,1,20.5,22Z"/></svg>
