<?xml version="1.0" encoding="UTF-8"?>
<svg xmlns="http://www.w3.org/2000/svg" id="Layer_1" data-name="Layer 1" viewBox="0 0 24 24" width="512" height="512"><path d="M24,17.732a10.965,10.965,0,0,0-.641-3.7L21.916,9.991A3.006,3.006,0,0,0,19.09,8H11.91A3.006,3.006,0,0,0,9.084,9.991L7.641,14.033A10.955,10.955,0,0,0,7,17.732V22H9v2h4V22h5v2h4V22h2ZM11.91,10h7.18a1,1,0,0,1,.942.664L21.224,14H9.776l1.192-3.336A1,1,0,0,1,11.91,10ZM22,20H9V17.732A8.959,8.959,0,0,1,9.168,16H11v1a1,1,0,0,0,2,0V16h5v1a1,1,0,0,0,2,0V16h1.832A8.959,8.959,0,0,1,22,17.732ZM4,9V8H2.174A9.044,9.044,0,0,0,2,9.732V12H6v4H2V14H0c.06-2.3-.269-5.811.641-7.967L2.084,1.991A3,3,0,0,1,4.909,0h7.182a3,3,0,0,1,2.825,1.991L16.348,6H14.224L13.032,2.664A1,1,0,0,0,12.091,2H4.91a1,1,0,0,0-.942.664L2.776,6H11.91A5.008,5.008,0,0,0,7.915,8H6V9A1,1,0,0,1,4,9Z"/></svg>
