<?xml version="1.0" encoding="UTF-8"?>
<svg xmlns="http://www.w3.org/2000/svg" id="Layer_1" data-name="Layer 1" viewBox="0 0 24 24" width="512" height="512"><path d="M7.237,12.68a5.978,5.978,0,0,0-1.286.9,5.522,5.522,0,0,1-1.126-1l-3.1,1.806L.716,12.657l3.1-1.8A5.522,5.522,0,0,1,3.588,10h-3.6V8h3.6a5.469,5.469,0,0,1,.235-.859L.711,5.333,1.717,3.6l3.109,1.81a5.416,5.416,0,0,1,.592-.591l-1.8-3.1L5.343.716,7.15,3.822A5.449,5.449,0,0,1,7.986,3.6V0h2V3.6a5.316,5.316,0,0,1,.845.229L12.642.716,14.37,1.722,12.558,4.838a5.486,5.486,0,0,1,.586.585L16.268,3.6l1,1.729L12.513,8.1l-.41-.7h0A3.5,3.5,0,1,0,7.4,12.12C7.34,12.3,7.285,12.49,7.237,12.68ZM16.4,18H14.274l1.779-3.295-1.76-.949-2.147,3.976-.077.186A1.616,1.616,0,0,0,13.615,20H15.75l-1.53,3.066,1.789.893,1.763-3.533A1.6,1.6,0,0,0,16.4,18Zm2.99-5.985A5.487,5.487,0,0,0,9.013,14.123,4,4,0,0,0,10,22V20a2,2,0,0,1-.053-4l1.223,0-.147-1.278A1.729,1.729,0,0,1,11,14.5a3.488,3.488,0,0,1,6.788-1.144l.253.726s.881-.069.959-.082a2.993,2.993,0,0,1,1,5.816V21.9a5,5,0,0,0-.614-9.884Z"/></svg>
