<?xml version="1.0" encoding="UTF-8"?>
<svg xmlns="http://www.w3.org/2000/svg" id="Layer_1" data-name="Layer 1" viewBox="0 0 24 24" width="512" height="512"><path d="M17,10c-3.859,0-7,3.14-7,7s3.141,7,7,7,7-3.14,7-7-3.141-7-7-7Zm0,12c-2.757,0-5-2.243-5-5s2.243-5,5-5,5,2.243,5,5-2.243,5-5,5Zm1-5.414l1.707,1.707-1.414,1.414-2.293-2.293v-3.414h2v2.586Zm3-12.586h-3V2c0-1.103-.897-2-2-2H8c-1.103,0-2,.897-2,2v2H3c-1.654,0-3,1.346-3,3V24H11.349c-.706-.571-1.325-1.244-1.831-2H2V14h6.523c.252-.711,.582-1.384,.995-2H2V7c0-.551,.448-1,1-1H21c.552,0,1,.449,1,1v2.518c.756,.506,1.429,1.125,2,1.831V7c0-1.654-1.346-3-3-3ZM8,2h8v2H8V2Z"/></svg>
