<?xml version="1.0" encoding="UTF-8"?>
<svg xmlns="http://www.w3.org/2000/svg" id="Layer_1" data-name="Layer 1" viewBox="0 0 24 24" width="512" height="512"><path d="M22.963,22.549l-2.791-2.791c1.151-1.629,1.828-3.616,1.828-5.758v-4C22,4.486,17.514,0,12,0S2,4.486,2,10v4c0,5.514,4.486,10,10,10,2.652,0,5.066-1.038,6.857-2.729l2.691,2.691,1.414-1.414Zm-10.963-.549c-4.411,0-8-3.589-8-8v-4C4,5.589,7.589,2,12,2s8,3.589,8,8v4c0,1.589-.466,3.072-1.268,4.318l-2.281-2.281-1.414,1.414,2.406,2.406c-1.429,1.329-3.343,2.143-5.443,2.143Z"/></svg>
