<?xml version="1.0" encoding="UTF-8"?>
<svg xmlns="http://www.w3.org/2000/svg" id="Layer_1" data-name="Layer 1" viewBox="0 0 24 24" width="512" height="512"><path d="M20.4,13a5.742,5.742,0,0,0-2.315.487c-.617-2.516-2.282-8.349-5.278-12.454L12.037-.025,11.219,1C8.052,4.946,6.418,10.8,5.805,13.446A5.825,5.825,0,0,0,3.568,13C1.814,13,0,14.678,0,17.489a6.5,6.5,0,0,0,12,3.452,6.5,6.5,0,0,0,12-3.452C24,14.678,22.171,13,20.4,13ZM11.966,3.36a38.606,38.606,0,0,1,3.969,9.8A5.748,5.748,0,0,0,14.568,13,3.325,3.325,0,0,0,12,14.347,3.363,3.363,0,0,0,9.4,13a5.738,5.738,0,0,0-1.472.192A33.634,33.634,0,0,1,11.966,3.36ZM6.5,21.979A4.5,4.5,0,0,1,2,17.489c0-1.867,1.077-2.5,1.568-2.5a3.8,3.8,0,0,1,2.27.747l.665.573.661-.575A3.6,3.6,0,0,1,9.4,14.994c.5,0,1.6.628,1.6,2.5A4.5,4.5,0,0,1,6.5,21.979Zm11,0a4.5,4.5,0,0,1-4.5-4.49c0-1.867,1.077-2.5,1.568-2.5a3.8,3.8,0,0,1,2.27.747l.665.573.661-.575a3.6,3.6,0,0,1,2.238-.745c.5,0,1.6.628,1.6,2.5A4.5,4.5,0,0,1,17.5,21.979Z"/></svg>
