<?xml version="1.0" encoding="UTF-8"?>
<svg xmlns="http://www.w3.org/2000/svg" id="Layer_1" data-name="Layer 1" viewBox="0 0 24 24" width="512" height="512"><path d="M13,2.051V0h-2V2.051C5.402,2.558,1,7.272,1,13c0,2.88,1.121,5.496,2.938,7.459l-1.928,2.118,1.479,1.346,1.935-2.126c1.837,1.377,4.109,2.203,6.576,2.203s4.739-.826,6.576-2.203l1.935,2.126,1.479-1.346-1.928-2.118c1.817-1.963,2.938-4.579,2.938-7.459,0-5.728-4.402-10.442-10-10.949ZM3,13c0-4.962,4.038-9,9-9s9,4.038,9,9-4.038,9-9,9S3,17.962,3,13ZM1.68,5.12L.017,4.011C1.219,2.419,2.726,1.068,4.456,.056l1.067,1.689c-1.493,.863-2.798,2.014-3.843,3.375ZM18.477,1.745L19.544,.056c1.73,1.012,3.238,2.363,4.439,3.955l-1.663,1.109c-1.045-1.361-2.35-2.513-3.843-3.375Zm-5.477,10.255h3v2h-3v3h-2v-3h-3v-2h3v-3h2v3Z"/></svg>
