<?xml version="1.0" encoding="UTF-8"?>
<svg xmlns="http://www.w3.org/2000/svg" id="Layer_1" data-name="Layer 1" viewBox="0 0 24 24" width="512" height="512"><path d="M12,7.364v-1.364h2v-2h-2v-1c0-1.654-1.346-3-3-3h-2c-1.654,0-3,1.346-3,3V7.364C1.615,8.623,0,11.257,0,14v10H16V14c0-2.743-1.615-5.377-4-6.636ZM6,3c0-.551,.449-1,1-1h2c.551,0,1,.449,1,1V7H6V3ZM14,22H2V14c0-2.085,1.337-4.156,3.204-5h5.591c1.867,.844,3.204,2.915,3.204,5v8Zm-10-3H12v-6H4v6Zm2-4h4v2H6v-2ZM18,5c0,.552-.448,1-1,1s-1-.448-1-1,.448-1,1-1,1,.448,1,1Zm6,0c0,.552-.448,1-1,1s-1-.448-1-1,.448-1,1-1,1,.448,1,1Zm-2-4c0-.552,.448-1,1-1s1,.448,1,1-.448,1-1,1-1-.448-1-1Zm2,8c0,.552-.448,1-1,1s-1-.448-1-1,.448-1,1-1,1,.448,1,1Zm-3-6c0,.552-.448,1-1,1s-1-.448-1-1,.448-1,1-1,1,.448,1,1Zm0,4c0,.552-.448,1-1,1s-1-.448-1-1,.448-1,1-1,1,.448,1,1Z"/></svg>
