<?xml version="1.0" encoding="UTF-8"?>
<svg xmlns="http://www.w3.org/2000/svg" id="Layer_1" data-name="Layer 1" viewBox="0 0 24 24" width="512" height="512"><path d="M24,5a4,4,0,0,0-4-4H4A4,4,0,0,0,0,5V15.414l3,3V19.5a3.5,3.5,0,0,0,7,0V19h5v.5a3.5,3.5,0,0,0,7,0V19h2V14.062a5.007,5.007,0,0,0-.659-2.48L20.723,7H24ZM2,7H8V9H2ZM8,19.5a1.5,1.5,0,0,1-3,0V19H8Zm12,0a1.5,1.5,0,0,1-3,0V19h3ZM22,17H15V13h6.805a3,3,0,0,1,.2,1.062Zm-7-6V8a1,1,0,0,1,1-1h2.42l2.286,4Zm1-6a3,3,0,0,0-3,3v9H4.414L2,14.586V11h8V5H2A2,2,0,0,1,4,3H20a2,2,0,0,1,2,2Z"/></svg>
