<?xml version="1.0" encoding="UTF-8"?>
<svg xmlns="http://www.w3.org/2000/svg" id="Layer_1" data-name="Layer 1" viewBox="0 0 24 24" width="512" height="512"><path d="M12,1C.374.982-4.414,16.17,5.112,22.818L5.371,23H18.629l.259-.182C28.418,16.166,23.621.98,12,1Zm5.988,20H6.012C-1.633,15.321,2.47,2.976,12,3,21.53,2.976,25.633,15.322,17.988,21ZM14,13a2.013,2.013,0,0,1-3.184,1.612l-5.537,2.43-.8-1.832,5.536-2.43A2,2,0,0,1,14,13Zm6,0a7.939,7.939,0,0,1-2.406,5.715l-1.4-1.43C20.038,13.682,17.268,6.9,12,7a6.007,6.007,0,0,0-5.962,5.34l-2.027.89C4.1,2.482,19.584,2.258,20,13Z"/></svg>
