<?xml version="1.0" encoding="UTF-8"?>
<svg xmlns="http://www.w3.org/2000/svg" id="Layer_1" data-name="Layer 1" viewBox="0 0 24 24" width="512" height="512"><path d="M24,9H22.738a8.406,8.406,0,0,0-1.82.2,10.826,10.826,0,0,0-7.1-5.03,2.5,2.5,0,1,0-3.7.011,10.9,10.9,0,0,0-7.1,5.02A8.389,8.389,0,0,0,1.2,9H-.062L2.99,22H1.969v2h20V22H20.949ZM11.969,6A8.489,8.489,0,0,1,19,9.923a5.972,5.972,0,0,0-2.018,1.783,6,6,0,0,0-10.025,0A5.963,5.963,0,0,0,4.94,9.925,8.5,8.5,0,0,1,11.969,6ZM2.49,11.119A3.912,3.912,0,0,1,5.969,15h2a4,4,0,0,1,8,0h2a3.912,3.912,0,0,1,3.478-3.881L18.9,22H5.044Z"/></svg>
