<?xml version="1.0" encoding="UTF-8"?>
<svg xmlns="http://www.w3.org/2000/svg" id="Layer_1" data-name="Layer 1" viewBox="0 0 24 24" width="512" height="512"><path d="M22,22V10c0-.1-.127-10-11.125-10h-.781L9.9.758C9.112,3.929,7.119,5.229,4.162,6.3A3.266,3.266,0,0,0,2,9.355V12H9.82c-1.249,5.952-6.061,9.328-7.106,10H1v2H23V22ZM11.992,11.124,12.133,10H4V9.355a1.262,1.262,0,0,1,.841-1.178C7.659,7.159,10.41,5.7,11.621,2.019,19.856,2.432,20,9.686,20,10V22H6.01A17.507,17.507,0,0,0,11.992,11.124Z"/></svg>
