<?xml version="1.0" encoding="UTF-8"?>
<svg xmlns="http://www.w3.org/2000/svg" id="Layer_1" data-name="Layer 1" viewBox="0 0 24 24" width="512" height="512"><path d="M21.633,7.564A3.084,3.084,0,0,0,17.918,6.2l-1.184.409a5,5,0,1,0-9.467,0L6.079,6.2A3.078,3.078,0,0,0,2.363,7.564a3,3,0,0,0,1.653,4.272L7,12.867v2.572L4.533,19.292a3.083,3.083,0,0,0,.453,3.932,3.007,3.007,0,0,0,2.418.749,2.99,2.99,0,0,0,2.114-1.341L11.9,19.056a.165.165,0,0,1,.147-.079c.057-.02.115.027.15.082l2.219,3.463a3.088,3.088,0,0,0,3.94,1.156,3,3,0,0,0,1.173-4.3L17,15.439V12.866l2.979-1.03a3,3,0,0,0,1.655-4.272ZM12,2a3,3,0,0,1,.333,5.981,4.446,4.446,0,0,1-.663,0A3,3,0,0,1,12,2Zm7.931,7.363a1,1,0,0,1-.607.582L15,11.441v4.584l2.841,4.435a1,1,0,0,1-.395,1.435,1.088,1.088,0,0,1-1.351-.452l-2.218-3.464a2.172,2.172,0,0,0-1.815-1,2.1,2.1,0,0,0-1.832.972l-2.387,3.59a1,1,0,0,1-1.521.2,1.084,1.084,0,0,1-.106-1.365L9,16.025V11.442l-4.33-1.5a1,1,0,0,1-.546-1.433,1.016,1.016,0,0,1,.906-.488,1.215,1.215,0,0,1,.4.067L9.932,9.648a6.357,6.357,0,0,0,1.52.322,5,5,0,0,0,1.112,0,6.284,6.284,0,0,0,1.5-.32L18.572,8.09a1.085,1.085,0,0,1,1.3.423A1,1,0,0,1,19.931,9.363ZM13,12a1,1,0,1,1-1-1A1,1,0,0,1,13,12Zm0,3a1,1,0,1,1-1-1A1,1,0,0,1,13,15Z"/></svg>
