<?xml version="1.0" encoding="UTF-8"?>
<svg xmlns="http://www.w3.org/2000/svg" id="Layer_1" data-name="Layer 1" viewBox="0 0 24 24" width="512" height="512"><path d="M4,6H9V8.79a4.964,4.964,0,0,1,2-1.43V6h5V7h2V4.184a3.009,3.009,0,0,0-1.692-2.7c-3.283-1.9-9.338-1.893-12.617,0A3.007,3.007,0,0,0,2,4.184V9H0v2a2,2,0,0,0,2,2v6H4v2H6V17H4V13H7l.833-2H4Zm.556-2.714a12.66,12.66,0,0,1,10.887,0,.977.977,0,0,1,.54.714H4.017A.978.978,0,0,1,4.556,3.286ZM24,18a10.951,10.951,0,0,0-.846-4.231l-1.218-2.922A2.991,2.991,0,0,0,19.167,9H12.833a2.992,2.992,0,0,0-2.769,1.846L8.846,13.769A10.951,10.951,0,0,0,8,18v4h2v2h4V22h4v2h4V22h2ZM12.833,11h6.334a1,1,0,0,1,.923.616L21.084,14H10.916l.995-2.385A1,1,0,0,1,12.833,11ZM22,20H10V18a8.977,8.977,0,0,1,.224-2H12v1a1,1,0,0,0,2,0V16h4v1a1,1,0,0,0,2,0V16h1.776A8.977,8.977,0,0,1,22,18Z"/></svg>
