<?xml version="1.0" encoding="UTF-8"?>
<svg xmlns="http://www.w3.org/2000/svg" id="Layer_1" data-name="Layer 1" viewBox="0 0 24 24" width="512" height="512"><path d="M24,8a3,3,0,0,0-3-3V3H15V5H7V3H9V1H3V3H5V5H3A3,3,0,0,0,0,8V22H2v2H4V22H20v2h2V22h2ZM22,20H2V8A1,1,0,0,1,3,7H21a1,1,0,0,1,1,1ZM7.5,9A4.5,4.5,0,1,0,12,13.5,4.505,4.505,0,0,0,7.5,9Zm0,7a2.5,2.5,0,1,1,2.263-3.546L7.5,13.5l2.242,1.089A2.5,2.5,0,0,1,7.5,16Zm9-7A4.5,4.5,0,1,0,21,13.5,4.505,4.505,0,0,0,16.5,9ZM14,13.5a2.5,2.5,0,0,1,5,0,2.456,2.456,0,0,1-.123.735l-2.37-.742.692,2.395a2.452,2.452,0,0,1-.7.112A2.5,2.5,0,0,1,14,13.5Z"/></svg>
