<?xml version="1.0" encoding="UTF-8"?>
<svg xmlns="http://www.w3.org/2000/svg" id="Layer_1" data-name="Layer 1" viewBox="0 0 24 24" width="512" height="512"><path d="M16,5.466V0H8V5.466C6.205,6.716,0,11.541,0,18.5a4.5,4.5,0,0,0,7.742,3.118,5,5,0,0,0,8.516,0A4.5,4.5,0,0,0,24,18.5C24,11.541,17.8,6.716,16,5.466ZM14,2V5.816c-.086.232-.259.708-.54,1.521-.376-.577-.639-.91-.68-.962L12,5.4l-.781.976c-.041.052-.3.385-.68.962-.28-.81-.453-1.286-.539-1.519V2ZM4.5,21A2.5,2.5,0,0,1,2,18.5C2,13.214,6.447,9.171,8.506,7.582c.178.507.414,1.192.716,2.091A21.542,21.542,0,0,0,7.007,18.5H7A2.5,2.5,0,0,1,4.5,21ZM12,22a3,3,0,0,1-3-3A20.068,20.068,0,0,1,12,8.78,20.068,20.068,0,0,1,15,19,3,3,0,0,1,12,22Zm7.5-1A2.5,2.5,0,0,1,17,18.5h-.007a21.542,21.542,0,0,0-2.215-8.827c.3-.9.538-1.584.716-2.091C17.553,9.171,22,13.214,22,18.5A2.5,2.5,0,0,1,19.5,21Z"/></svg>
