<?xml version="1.0" encoding="UTF-8"?>
<svg xmlns="http://www.w3.org/2000/svg" id="Layer_1" data-name="Layer 1" viewBox="0 0 24 24" width="512" height="512"><path d="M23.241,1.466A2.673,2.673,0,0,0,20.809.683l-.395.079A12.161,12.161,0,0,1,19,1,8.032,8.032,0,0,1,16.431.227L15.991.02l-.435.214A9.391,9.391,0,0,1,12,1.128a9.363,9.363,0,0,1-3.555-.9L8.01.017,7.572.225A8.013,8.013,0,0,1,5,1,12.14,12.14,0,0,1,3.589.762l-.4-.08a2.676,2.676,0,0,0-2.431.784A2.713,2.713,0,0,0,.068,3.949L2,13.105V20A4,4,0,0,0,9.86,21h4.284A4,4,0,0,0,22,20V13.105l1.929-9.138A2.719,2.719,0,0,0,23.241,1.466ZM2.205,2.851a.692.692,0,0,1,.62-.2l.36.074A5.8,5.8,0,0,0,7,2.6V10H9V2.6a9.213,9.213,0,0,0,6,0V10h2V2.6a5.809,5.809,0,0,0,3.816.118l.36-.073a.673.673,0,0,1,.62.2.728.728,0,0,1,.18.684L20.191,12H3.813L2.021,3.518A.72.72,0,0,1,2.205,2.851ZM6,22a2,2,0,0,1,0-4A2,2,0,0,1,6,22Zm8.142-3H9.86A4,4,0,0,0,4,16.556V14H20v2.556A4,4,0,0,0,14.144,19ZM18,22a2,2,0,0,1,0-4A2,2,0,0,1,18,22Z"/></svg>
