<?xml version="1.0" encoding="UTF-8"?>
<svg xmlns="http://www.w3.org/2000/svg" id="Layer_1" data-name="Layer 1" viewBox="0 0 24 24" width="512" height="512"><path d="M12,1C.373.981-4.414,16.17,5.112,22.818L5.371,23H18.629l.259-.182C28.418,16.167,23.621.98,12,1Zm5.988,20H6.012C-1.633,15.32,2.47,2.976,12,3,21.53,2.976,25.633,15.322,17.988,21ZM6,13a5.951,5.951,0,0,0,1.8,4.285l-1.4,1.43A8.019,8.019,0,0,1,4.635,9.877L6.21,11.452A5.95,5.95,0,0,0,6,13Zm14,0a7.939,7.939,0,0,1-2.406,5.715l-1.4-1.43c4.39-4.222.123-11.7-5.743-10.075L8.877,5.635A8.045,8.045,0,0,1,20,13Zm-6,0a2,2,0,1,1-3.932-.518L5.793,8.207,7.207,6.793l4.275,4.275A2.008,2.008,0,0,1,14,13Z"/></svg>
