<?xml version="1.0" encoding="UTF-8"?>
<svg xmlns="http://www.w3.org/2000/svg" id="Layer_1" data-name="Layer 1" viewBox="0 0 24 24" width="512" height="512"><path d="M19,11a5.186,5.186,0,0,0-.6.036l-.607-1.82c.495-.087,1.018-.152,1.493-.187A2,2,0,0,0,21,10h1V6H21a2,2,0,0,0-1.747,1.026,17,17,0,0,0-2.02.259l-.079.016L15.721,3H11V5h3.279l1.009,3.027A5.987,5.987,0,0,0,14.063,9H8.825A3,3,0,0,0,6,7H2V9H6a1.006,1.006,0,0,1,.8,1.6l-.44.586A5.025,5.025,0,0,0,0,16c.105,6.089,8.817,6.785,9.927.852A3.008,3.008,0,0,0,11.4,15.8l3.752-5a4.139,4.139,0,0,1,.794-.8L16.5,11.67A5.015,5.015,0,0,0,19,21C25.608,20.79,25.606,11.209,19,11ZM5,19a3,3,0,0,1,0-6l-.6.8A2,2,0,0,0,6,17H7.828A3,3,0,0,1,5,19Zm4.8-4.4A1,1,0,0,1,9,15H6l2.4-3.2a3.03,3.03,0,0,0,.431-.8H12.5ZM19,19a3.013,3.013,0,0,1-1.842-5.365l.885,2.654a1,1,0,1,0,1.895-.637L19.054,13A3,3,0,0,1,19,19Z"/></svg>
