<?xml version="1.0" encoding="UTF-8"?>
<svg xmlns="http://www.w3.org/2000/svg" id="Layer_1" data-name="Layer 1" viewBox="0 0 24 24" width="512" height="512"><path d="M22.321,8c.13-.108.257-.216.361-.321a4.5,4.5,0,1,0-6.364-6.364c-.105.1-.214.233-.323.364A3.828,3.828,0,0,0,9.016,3.505a5.971,5.971,0,0,0,.771,3.16,11.158,11.158,0,0,1,1.186,4.442,8.946,8.946,0,0,0-4.1-2.02,6.045,6.045,0,0,0-5.435,1.861C.019,12.373,0,14.68,0,16.91V24H7.123c2.208.007,4.517-.011,5.935-1.429,2.65-2.651,2.547-6.224-.169-9.545a11.184,11.184,0,0,1,4.446,1.185A6.488,6.488,0,0,0,20.111,15c.125,0,.252-.005.383-.016A3.826,3.826,0,0,0,22.321,8ZM19.5,2a2.5,2.5,0,0,1,1.767,4.266C20.125,7.411,16.456,9.1,13.8,10.2c1.109-2.659,2.793-6.328,3.936-7.471A2.5,2.5,0,0,1,19.5,2Zm-7.842.429A1.816,1.816,0,0,1,13,2.007a1.841,1.841,0,0,1,1.668,1.668C13.894,5.049,13.127,6.7,12.5,8.144a15.677,15.677,0,0,0-.889-2.309,4.211,4.211,0,0,1-.6-2.155A1.831,1.831,0,0,1,11.659,2.431Zm-.015,18.726c-.833.832-2.625.833-4.52.83L1.986,22s.027-4.626.028-5.086c0-1.909,0-3.711.843-4.551a4.067,4.067,0,0,1,3.687-1.3,7.811,7.811,0,0,1,4.02,2.368C11.888,14.751,14.642,18.156,11.644,21.157ZM20.32,12.99a4.258,4.258,0,0,1-2.155-.6,15.633,15.633,0,0,0-2.309-.889,49.717,49.717,0,0,0,4.471-2.176,1.839,1.839,0,0,1-.007,3.663Z"/></svg>
