<?xml version="1.0" encoding="UTF-8"?>
<svg xmlns="http://www.w3.org/2000/svg" id="Layer_1" data-name="Layer 1" viewBox="0 0 24 24" width="512" height="512"><path d="M4.982,24,3.66,23l2.394-7.261L0,11.731V10H7.946l2.162-7h1.784l2.162,7H22v1.724l-6.056,4.119,2.438,7.175-1.391.961L11,19.348ZM11,16.82l4.291,3.318-1.729-5.092L18.038,12h-5.46L11,6.89,9.422,12H4.028l4.4,2.915L6.71,20.137Zm6.827-8.894-.481-.362.869-2.717L16,3.615V3h2.9l.785-3h.647l.784,3H24v.611L21.8,4.884l.884,2.686-.5.349L20.01,6.238Z"/></svg>
