<?xml version="1.0" encoding="UTF-8"?>
<svg xmlns="http://www.w3.org/2000/svg" id="Layer_1" data-name="Layer 1" viewBox="0 0 24 24" width="512" height="512"><path d="M18,6a6,6,0,1,0,6,6A6.006,6.006,0,0,0,18,6Zm0,10a4,4,0,1,1,4-4A4,4,0,0,1,18,16Zm-4.568,2.564A6.967,6.967,0,0,1,12,18.922V23H10V18.92a6.9,6.9,0,0,1-1.623-.435L6.33,22.006,4.6,21l2.05-3.525a7.057,7.057,0,0,1-1.129-1.13L2.01,18.391,1,16.662l3.509-2.043A6.952,6.952,0,0,1,4.08,13H0V11H4.08a6.916,6.916,0,0,1,.436-1.626L1,7.326,2,5.6,5.527,7.648A7.09,7.09,0,0,1,6.672,6.509L4.627,2.992,6.355,1.986,8.4,5.505A6.944,6.944,0,0,1,10,5.08V1h2V5.078a6.967,6.967,0,0,1,1.432.358,8.089,8.089,0,0,0-1.714,1.616,5,5,0,1,0,0,9.9A8.089,8.089,0,0,0,13.432,18.564Z"/></svg>
