<?xml version="1.0" encoding="UTF-8"?>
<svg xmlns="http://www.w3.org/2000/svg" id="Layer_1" data-name="Layer 1" viewBox="0 0 24 24" width="512" height="512"><path d="M9,4h-2C7,1.794,8.794,0,11,0s4,1.794,4,4h-2c0-1.103-.897-2-2-2s-2,.897-2,2Zm8,7c-.552,0-1,.448-1,1s.448,1,1,1,1-.448,1-1-.448-1-1-1Zm7,0v6h-1.587c-.665,1.634-1.868,3.013-3.413,3.908v3.092h-6v-2h-2v2H5v-3.08c-2.449-1.42-4-4.07-4-6.92,0-1.173,.254-2.288,.709-3.292-1.01-.483-1.709-1.515-1.709-2.708,0-1.654,1.346-3,3-3v2c-.551,0-1,.448-1,1,0,.476,.334,.875,.78,.975,1.468-1.814,3.711-2.975,6.22-2.975h6c.112,0,.224,.003,.336,.007,1.113-3.001,4.664-3.007,4.664-3.007V7.773c1.05,.842,1.893,1.946,2.414,3.227h1.586Zm-2,2h-1.04l-.213-.715c-.751-2.522-3.115-4.285-5.748-4.285h-6c-3.309,0-6,2.691-6,6,0,2.298,1.346,4.423,3.43,5.414l.57,.271v2.314h2v-2h6v2h2v-2.325l.569-.271c1.542-.736,2.7-2.081,3.179-3.688l.213-.715h1.04v-2Z"/></svg>
