<?xml version="1.0" encoding="UTF-8"?>
<svg xmlns="http://www.w3.org/2000/svg" id="Layer_1" data-name="Layer 1" viewBox="0 0 24 24" width="512" height="512"><path d="M22.2,20.9a2.014,2.014,0,0,1-2.7.925l-2.5-1.1V14.6L14.08,11.91l-.064-.082,2.16-2.948,6.289,4L23.539,11.2,12.293,4.039H8.416L5.709,1.332,4.3,2.746,7.588,6.039h3.227L8.623,8.89A3.022,3.022,0,0,0,8,10.718v2.7L4.555,15.144l.068.137-1.461-.643a2,2,0,0,1-.974-2.656L.374,11.141A4,4,0,0,0,2.339,16.46l16.324,7.185A4,4,0,0,0,24,21.768ZM10,14.657V10.718a1,1,0,0,1,.207-.609L12.8,6.734,14.485,7.8l-2.069,2.823a2,2,0,0,0,.34,2.783L15,15.477v4.372l-8.182-3.6ZM15,2.538a2.5,2.5,0,1,1,2.5,2.5A2.5,2.5,0,0,1,15,2.538Z"/></svg>
