<?xml version="1.0" encoding="UTF-8"?>
<svg xmlns="http://www.w3.org/2000/svg" id="Layer_1" data-name="Layer 1" viewBox="0 0 24 24" width="512" height="512"><path d="M24,3V11.716c-.612-.772-1.305-1.465-2-2.093V3c0-.551-.448-1-1-1H3c-.552,0-1,.449-1,1V22h7.522c.507,.756,1.127,1.429,1.834,2H0V3C0,1.346,1.346,0,3,0H21c1.654,0,3,1.346,3,3ZM4,5c0,.552,.448,1,1,1s1-.448,1-1-.448-1-1-1-1,.448-1,1Zm4,0c0,.552,.448,1,1,1s1-.448,1-1-.448-1-1-1-1,.448-1,1Zm16,12c0,3.655-2.705,7-6.974,7s-7.026-3.346-7.026-7c0-2.181,1.3-3.774,2.277-4.783l1.152-1.189,.516,1.575c.095,.287,.216,.591,.336,.854,.065-.22,.129-.46,.185-.668,.302-1.141,.717-2.705,1.778-3.931l.703-.812,.76,.76c.433,.433,1.023,.904,1.649,1.402,2.068,1.65,4.644,3.703,4.644,6.792Zm-7,5c.256,0,.583-.133,.707-.258,.39-.39,.39-1.024,0-1.414l-.707-.707-.707,.707c-.39,.39-.39,1.024,0,1.415,.124,.125,.451,.257,.707,.257Zm5-5c0-2.125-2.067-3.774-3.891-5.228-.319-.255-.631-.503-.925-.749-.373,.722-.589,1.535-.786,2.278-.335,1.265-.716,2.699-2.116,2.699-.248,0-.878,0-1.561-1.186-.493,.744-.722,1.448-.722,2.186,0,1.633,.787,3.086,2.002,3.999,.009-.756,.301-1.51,.877-2.085l2.121-2.121,2.121,2.121c.576,.576,.868,1.329,.877,2.085,1.215-.913,2.002-2.366,2.002-3.999Z"/></svg>
