<?xml version="1.0" encoding="UTF-8"?>
<svg xmlns="http://www.w3.org/2000/svg" id="Layer_1" data-name="Layer 1" viewBox="0 0 24 24" width="512" height="512"><path d="M20,4.076V0H4V4.076A4.838,4.838,0,0,0,0,9v.376l.248.282A3.7,3.7,0,0,0,2,10.862V21a3,3,0,0,0,3,3H19a3,3,0,0,0,3-3V10.862a3.7,3.7,0,0,0,1.752-1.2L24,9.376V9A4.838,4.838,0,0,0,20,4.076ZM5,6H16V4H6V2H18V6h1a2.768,2.768,0,0,1,2.974,2.624A1.3,1.3,0,0,1,21,9a1.979,1.979,0,0,1-1.221-.416,2.944,2.944,0,0,0-3.557,0,2.03,2.03,0,0,1-2.443,0,2.945,2.945,0,0,0-3.557,0,2.03,2.03,0,0,1-2.443,0,2.945,2.945,0,0,0-3.557,0A1.984,1.984,0,0,1,3,9a1.3,1.3,0,0,1-.974-.375A2.768,2.768,0,0,1,5,6ZM19,22H5a1,1,0,0,1-1-1V10.875a3.98,3.98,0,0,0,1.445-.709.947.947,0,0,1,1.111,0,4.058,4.058,0,0,0,4.889,0,.947.947,0,0,1,1.111,0,4.058,4.058,0,0,0,4.889,0,.947.947,0,0,1,1.111,0A3.968,3.968,0,0,0,20,10.875V21A1,1,0,0,1,19,22Z"/></svg>
