<?xml version="1.0" encoding="UTF-8"?>
<svg xmlns="http://www.w3.org/2000/svg" id="Layer_1" data-name="Layer 1" viewBox="0 0 24 24" width="512" height="512"><path d="M18,14.184V8H16v6.184a3,3,0,1,0,2,0ZM17,18a1,1,0,1,1,1-1A1,1,0,0,1,17,18Zm5-5.889V5A5,5,0,0,0,12,5v7.111a7,7,0,1,0,10,0ZM17,22a4.994,4.994,0,0,1-3.332-8.719l.332-.3V5a3,3,0,0,1,6,0v7.983l.332.3A4.994,4.994,0,0,1,17,22ZM8,11.309l1.732,1.732L8.318,14.455,7,13.137,5.682,14.455,4.268,13.041,6,11.309V8.946L3.95,10.122l-.641,2.363-1.93-.523.488-1.8-1.8-.488.524-1.93,2.364.641L4.99,7.22,2.955,6.054.592,6.7.068,4.765l1.8-.488-.488-1.8,1.93-.523L3.95,4.319,6,5.494V3.132L4.268,1.4,5.682-.015,7,1.3,8.318-.015,9.732,1.4,8,3.132V5.494l2-1.146v2.3l-.99.567.99.568v2.3L8,8.946Z"/></svg>
