<?xml version="1.0" encoding="UTF-8"?>
<svg xmlns="http://www.w3.org/2000/svg" id="Layer_1" data-name="Layer 1" viewBox="0 0 24 24" width="512" height="512"><path d="M23.432,12.565c-.081-.1-.8-1.013-1.259-1.468a3.323,3.323,0,0,0-1.367-.8,3.129,3.129,0,0,0-.723-3.287L20.073,7l-.01-.01a3.158,3.158,0,0,0-2.14-.912,3.171,3.171,0,0,0-4.238-2.9A3.172,3.172,0,0,0,12.9,1.827C12.448,1.372,11.537.649,11.435.568l-.7-.551-.629.629C5.758,5,4.144,9.9,3.076,14.56L1.333,16.3A4.5,4.5,0,0,0,7.7,22.667L9.44,20.925c4.665-1.069,9.566-2.683,13.914-7.032l.629-.63ZM16.993,8.421a1.213,1.213,0,0,1,1.666-.009,1.182,1.182,0,0,1-.01,1.665h0a43.486,43.486,0,0,1-5.744,4.413l-.991-.991,5.079-5.079ZM13.9,5.331h0A1.185,1.185,0,0,1,15.582,7L10.5,12.086,9.49,11.075A43.493,43.493,0,0,1,13.9,5.331ZM10.9,2.712c.227.191.451.388.592.529a1.265,1.265,0,0,1,.01,1.744l.006.006A52.45,52.45,0,0,0,8.047,9.633l-1-1A21.471,21.471,0,0,1,10.9,2.712ZM6.283,21.253a2.561,2.561,0,0,1-3.536,0,2.5,2.5,0,0,1,0-3.536l1.278-1.278,3.536,3.536ZM9.311,18.9,5.1,14.689a39.389,39.389,0,0,1,1.145-4.027l7.09,7.09A39.389,39.389,0,0,1,9.311,18.9Zm6.054-1.946-1.017-1.017a52.214,52.214,0,0,0,4.705-3.511,1.084,1.084,0,0,1,.807-.293,1.339,1.339,0,0,1,.9.381c.141.142.338.366.529.593A21.471,21.471,0,0,1,15.365,16.951Z"/></svg>
