<?xml version="1.0" encoding="UTF-8"?>
<svg xmlns="http://www.w3.org/2000/svg" id="arrow-circle-down" viewBox="0 0 24 24" width="512" height="512"><path d="M23.414,10.586,20.171,7.343,18.757,8.757,21,11H13V3l2.243,2.243,1.414-1.414L13.414.586a2,2,0,0,0-2.828,0L7.343,3.829,8.757,5.243,11,3v8H3L5.243,8.757,3.829,7.343.586,10.586a2,2,0,0,0,0,2.828l3.243,3.243,1.414-1.414L3,13h8v8L8.757,18.758,7.343,20.172l3.243,3.242a2,2,0,0,0,2.828,0l3.243-3.242-1.414-1.414L13,21V13h8l-2.243,2.243,1.414,1.414,3.243-3.243A2,2,0,0,0,23.414,10.586Z"/></svg>
