<?xml version="1.0" encoding="UTF-8"?>
<svg xmlns="http://www.w3.org/2000/svg" id="Layer_1" data-name="Layer 1" viewBox="0 0 24 24" width="512" height="512"><path d="M20,18.184V8.5c0-.085-.108-8.5-9.438-8.5H9.781L9.593.758C8.9,3.546,7.76,4.481,5.91,5.232A3.014,3.014,0,0,0,4,8.025V10h6.221a5.911,5.911,0,0,1-4.086,3.753A2.978,2.978,0,0,0,4,16.623v1.561A3,3,0,0,0,2,21v3H22V21A3,3,0,0,0,20,18.184ZM6.709,15.669a7.91,7.91,0,0,0,5.777-6.505L12.681,8H6a1.027,1.027,0,0,1,.661-.914,7.213,7.213,0,0,0,4.652-5.063C17.877,2.436,18,8.247,18,8.5V18H6V16.623A.99.99,0,0,1,6.709,15.669ZM20,22H4V21a1,1,0,0,1,1-1H19a1,1,0,0,1,1,1Z"/></svg>
