<?xml version="1.0" encoding="UTF-8"?>
<svg xmlns="http://www.w3.org/2000/svg" id="Layer_1" data-name="Layer 1" viewBox="0 0 24 24" width="512" height="512"><path d="M21,4a3,3,0,0,0-4.137-2.776A4.07,4.07,0,0,0,12,.545a4.07,4.07,0,0,0-4.863.679A3,3,0,0,0,3,4,3.7,3.7,0,0,0,4,6.479V21a3,3,0,0,0,3,3H17a3,3,0,0,0,3-3V6.479A3.7,3.7,0,0,0,21,4ZM6,3a1,1,0,0,1,.69.281l.939.9.63-1.142a1.969,1.969,0,0,1,3.072-.522l.669.6.669-.6a1.969,1.969,0,0,1,3.072.522l.63,1.142.939-.9A1,1,0,0,1,19,4a1.758,1.758,0,0,1-.362,1.009,9.546,9.546,0,0,0-6.259,3.034c-.457-.334-.92-.645-1.382-.93a7.605,7.605,0,0,1,1.547-1.4L11.456,4.031a10.1,10.1,0,0,0-2.25,2.1A10.953,10.953,0,0,0,5.365,5.012,1.754,1.754,0,0,1,5,4,1,1,0,0,1,6,3ZM17,22H7a1,1,0,0,1-1-1V7.107c4.432.88,12,7.064,12,13.893A1,1,0,0,1,17,22Zm1-7.855A20.23,20.23,0,0,0,13.945,9.3,7.79,7.79,0,0,1,18,7.088ZM12,16a1,1,0,1,1-1-1A1,1,0,0,1,12,16Zm-2,3a1,1,0,1,1-1-1A1,1,0,0,1,10,19Zm3-1a1,1,0,1,1-1,1A1,1,0,0,1,13,18Z"/></svg>
