<?xml version="1.0" encoding="UTF-8"?>
<svg xmlns="http://www.w3.org/2000/svg" id="Layer_1" data-name="Layer 1" viewBox="0 0 24 24" width="512" height="512"><path d="M22.779,14.584A1.981,1.981,0,0,0,24,15v2a3.963,3.963,0,0,1-2.444-.833.944.944,0,0,0-1.111,0,4.059,4.059,0,0,1-4.889,0,.944.944,0,0,0-1.111,0,4.059,4.059,0,0,1-4.889,0,.944.944,0,0,0-1.111,0,4.059,4.059,0,0,1-4.889,0,.944.944,0,0,0-1.111,0A3.963,3.963,0,0,1,0,17V15a1.981,1.981,0,0,0,1.222-.417,2.945,2.945,0,0,1,3.557,0,2.033,2.033,0,0,0,2.443,0,2.945,2.945,0,0,1,3.557,0,2.033,2.033,0,0,0,2.443,0,2.945,2.945,0,0,1,3.557,0,2.033,2.033,0,0,0,2.443,0A2.945,2.945,0,0,1,22.779,14.584ZM24,7.205V13H0V6.921L15.243.254a2.981,2.981,0,0,1,3.481.8ZM4.807,7H21.191L17.2,2.351a1,1,0,0,0-1.161-.266ZM22,11V9H2v2ZM0,18H24v3a3,3,0,0,1-3,3H3a3,3,0,0,1-3-3Zm2,3a1,1,0,0,0,1,1H21a1,1,0,0,0,1-1V20H2Z"/></svg>
