<?xml version="1.0" encoding="UTF-8"?>
<svg xmlns="http://www.w3.org/2000/svg" id="Layer_1" data-name="Layer 1" viewBox="0 0 24 24" width="512" height="512"><path d="M12,19a1,1,0,1,1-1-1A1,1,0,0,1,12,19Zm-2,3a1,1,0,1,0,1,1A1,1,0,0,0,10,22ZM8,14a1,1,0,1,0,1,1A1,1,0,0,0,8,14ZM6,22a1,1,0,1,0,1,1A1,1,0,0,0,6,22Zm1-4a1,1,0,1,0,1,1A1,1,0,0,0,7,18Zm7,4a1,1,0,1,0,1,1A1,1,0,0,0,14,22Zm2-8a1,1,0,1,0,1,1A1,1,0,0,0,16,14Zm1.441-8.941A8,8,0,0,0,2.265,10.05,5.5,5.5,0,0,0,4,19.792v-2.13a3.5,3.5,0,0,1-.089-6.282l.8-.408-.319-.838A6,6,0,0,1,10,2a6.035,6.035,0,0,1,5.752,4.289l.206.691L16.679,7A5.5,5.5,0,0,1,18,17.792v2.057a7.5,7.5,0,0,0-.559-14.79ZM12,14a1,1,0,1,0,1,1A1,1,0,0,0,12,14Zm3,4a1,1,0,1,0,1,1A1,1,0,0,0,15,18Z"/></svg>
