<?xml version="1.0" encoding="UTF-8"?>
<svg xmlns="http://www.w3.org/2000/svg" id="Layer_1" data-name="Layer 1" viewBox="0 0 24 24" width="512" height="512"><path d="M19.909,11a6,6,0,0,1-.291,1.106l3.528,2.054-1.005,1.728L16.8,12.855a4,4,0,0,0-5.544-5.767L8.128,1.856,9.856.851l2.051,3.526A6.1,6.1,0,0,1,13,4.09V0h2V4.09a6.035,6.035,0,0,1,1.1.3L18.157.851l1.729,1.005L17.832,5.388a6.021,6.021,0,0,1,.774.774L22.146,4.1l1.006,1.728L19.61,7.891A5.987,5.987,0,0,1,19.91,9H24v2ZM20,19.5A4.505,4.505,0,0,1,15.5,24h-8a3.5,3.5,0,0,1-1.441-6.693A5.566,5.566,0,0,1,6,16.5a5.5,5.5,0,0,1,10.848-1.294A4.52,4.52,0,0,1,20,19.5Zm-2,0a2.507,2.507,0,0,0-2.159-2.477l-.779-.106-.082-.782A3.5,3.5,0,1,0,8.2,17.675l.433,1.211-1.28.121A1.5,1.5,0,0,0,7.5,22h8A2.5,2.5,0,0,0,18,19.5ZM3.355,15.019l1.28-.121L4.2,13.687A3.5,3.5,0,0,1,9.1,9.4,7.459,7.459,0,0,1,11.5,9c.081,0,.162,0,.243,0A5.5,5.5,0,0,0,2,12.512a5.556,5.556,0,0,0,.059.807,3.5,3.5,0,0,0,0,6.381,5.508,5.508,0,0,1,.654-1.911,1.5,1.5,0,0,1,.642-2.77Z"/></svg>
