<?xml version="1.0" encoding="UTF-8"?>
<svg xmlns="http://www.w3.org/2000/svg" id="Layer_1" data-name="Layer 1" viewBox="0 0 24 24" width="512" height="512"><path d="M22.5,21.316l1.508,1.315a4.028,4.028,0,0,1-6.01.012,4.038,4.038,0,0,1-6,0,4.038,4.038,0,0,1-6,0,4.028,4.028,0,0,1-6.01-.012L1.5,21.316A2.01,2.01,0,0,0,5,20H7a2,2,0,0,0,4,0h2a2,2,0,0,0,4,0h2A2.01,2.01,0,0,0,22.5,21.316ZM21,19a4,4,0,0,0,3.01-1.369L22.5,16.316A2.01,2.01,0,0,1,19,15H17A4,4,0,0,0,21,19ZM3,19a4,4,0,0,0,4-4H5a2.01,2.01,0,0,1-3.5,1.316L-.01,17.631A4,4,0,0,0,3,19Zm5-5a4.006,4.006,0,0,1,3-3.874V0h6V2H13V4h4V6H13v4.126A4,4,0,1,1,8,14Zm2,0a2,2,0,0,0,4,0A2,2,0,0,0,10,14Z"/></svg>
