<?xml version="1.0" encoding="UTF-8"?>
<svg xmlns="http://www.w3.org/2000/svg" id="Layer_1" data-name="Layer 1" viewBox="0 0 24 24" width="512" height="512"><path d="M3,18A4,4,0,0,1-.009,16.633L1.5,15.315A2,2,0,0,0,5,14H7a2,2,0,0,0,4,0h2a2,2,0,0,0,4,0h2a2,2,0,0,0,3.5,1.316l1.506,1.316A3.97,3.97,0,0,1,18,16.618a3.947,3.947,0,0,1-6,0,3.947,3.947,0,0,1-6,0A3.974,3.974,0,0,1,3,18Zm18,3a2,2,0,0,1-2-2H17a2,2,0,0,1-4,0H11a2,2,0,0,1-4,0H5a2,2,0,0,1-3.5,1.315L-.009,21.633A3.971,3.971,0,0,0,6,21.618a3.947,3.947,0,0,0,6,0,3.947,3.947,0,0,0,6,0,3.97,3.97,0,0,0,6.009.014L22.5,20.316A2,2,0,0,1,21,21ZM4.744,12l7.415-5.191L15.809,12h2.445L11.416,2.274l-.005,0A3,3,0,0,0,8.962,1H2V3H8.962a1,1,0,0,1,.817.424h0l1.23,1.748L1.256,12ZM18.5,8A2.5,2.5,0,1,0,16,5.5,2.5,2.5,0,0,0,18.5,8Z"/></svg>
