<?xml version="1.0" encoding="UTF-8"?>
<svg xmlns="http://www.w3.org/2000/svg" id="Layer_1" data-name="Layer 1" viewBox="0 0 24 24" width="512" height="512"><path d="M6.028,24a6.005,6.005,0,0,1-4.387-1.641C-.036,20.682-.444,18.005.493,14.821A21.552,21.552,0,0,1,6.028,6.028,21.552,21.552,0,0,1,14.821.493C18-.445,20.682-.036,22.359,1.641h0C24.036,3.318,24.444,6,23.507,9.179a21.552,21.552,0,0,1-5.535,8.793,21.552,21.552,0,0,1-8.793,5.535A11.207,11.207,0,0,1,6.028,24ZM17.969,2a9.258,9.258,0,0,0-2.585.413A19.539,19.539,0,0,0,7.442,7.442a19.539,19.539,0,0,0-5.031,7.942c-.721,2.451-.492,4.426.644,5.561s3.11,1.364,5.561.644a19.539,19.539,0,0,0,7.942-5.031,19.539,19.539,0,0,0,5.031-7.942c.721-2.451.492-4.426-.644-5.561h0A4.072,4.072,0,0,0,17.969,2ZM9,9v2a3.748,3.748,0,0,1,4,4h2A5.74,5.74,0,0,0,9,9Zm4-4V7a3.748,3.748,0,0,1,4,4h2A5.74,5.74,0,0,0,13,5ZM5,13v2a3.748,3.748,0,0,1,4,4h2A5.74,5.74,0,0,0,5,13Z"/></svg>
