<?xml version="1.0" encoding="UTF-8"?>
<svg xmlns="http://www.w3.org/2000/svg" id="Layer_1" data-name="Layer 1" viewBox="0 0 24 24" width="512" height="512"><path d="M22,10a4,4,0,0,0-7-2.643,4.009,4.009,0,0,0-1.967-1.222C13.357,2.051,15.972,2,16,2a1,1,0,0,1,1,1l0,2a2,2,0,0,0,2-2,3,3,0,0,0-3-3,4.763,4.763,0,0,0-3.988,2.544A5.864,5.864,0,0,0,9.447.105L8.553,1.9c1.457.728,2.251,2.12,2.415,4.24A4.008,4.008,0,0,0,9,7.357,4,4,0,1,0,5.155,13.91,3.917,3.917,0,0,0,5,15a4.007,4.007,0,0,0,3.155,3.91A3.917,3.917,0,0,0,8,20a4,4,0,0,0,8,0,3.917,3.917,0,0,0-.155-1.09A4.007,4.007,0,0,0,19,15a3.917,3.917,0,0,0-.155-1.09A4.007,4.007,0,0,0,22,10ZM12,8a2,2,0,1,1-2,2A2,2,0,0,1,12,8ZM4,10a2,2,0,1,1,2,2A2,2,0,0,1,4,10Zm3,5a1.989,1.989,0,0,1,.481-1.284A4.016,4.016,0,0,0,9,12.643a4.016,4.016,0,0,0,1.519,1.073A2,2,0,1,1,7,15Zm5,7a1.988,1.988,0,0,1-1.519-3.284A4.016,4.016,0,0,0,12,17.643a4.016,4.016,0,0,0,1.519,1.073A1.988,1.988,0,0,1,12,22Zm3-5a1.988,1.988,0,0,1-1.519-3.284A4.016,4.016,0,0,0,15,12.643a4.016,4.016,0,0,0,1.519,1.073A1.988,1.988,0,0,1,15,17Zm3-5a2,2,0,1,1,2-2A2,2,0,0,1,18,12Z"/></svg>
