<?xml version="1.0" encoding="UTF-8"?>
<svg xmlns="http://www.w3.org/2000/svg" id="Layer_1" data-name="Layer 1" viewBox="0 0 24 24" width="512" height="512"><path d="M24,3V14.835c-.451-.439-.962-.819-1.528-1.114-.134-.339-.294-.662-.472-.972V3c0-.551-.449-1-1-1H3c-.551,0-1,.449-1,1V22H6.213c.211,.741,.569,1.421,1.048,2H0V3C0,1.346,1.346,0,3,0H21c1.654,0,3,1.346,3,3ZM4,5c0,.552,.448,1,1,1s1-.448,1-1-.448-1-1-1-1,.448-1,1Zm6,0c0-.552-.448-1-1-1s-1,.448-1,1,.448,1,1,1,1-.448,1-1Zm14,14.5c0,2.481-2.019,4.5-4.5,4.5H11.5c-1.93,0-3.5-1.57-3.5-3.5,0-1.42,.833-2.645,2.059-3.193-.04-.266-.059-.535-.059-.807,0-3.032,2.467-5.5,5.5-5.5,2.58,0,4.763,1.764,5.348,4.206,1.84,.579,3.152,2.31,3.152,4.294Zm-2,0c0-1.244-.928-2.31-2.159-2.477l-.779-.106-.081-.782c-.185-1.787-1.682-3.135-3.481-3.135-1.93,0-3.5,1.57-3.5,3.5,0,.404,.068,.8,.203,1.175l.433,1.211-1.28,.121c-.772,.073-1.355,.715-1.355,1.493,0,.827,.673,1.5,1.5,1.5h8c1.378,0,2.5-1.121,2.5-2.5Z"/></svg>
