<?xml version="1.0" encoding="UTF-8"?>
<svg xmlns="http://www.w3.org/2000/svg" id="Layer_1" data-name="Layer 1" viewBox="0 0 24 24" width="512" height="512"><path d="M12,20a3.913,3.913,0,0,1-4-4c0-2.972,2.019-6,4-6s4,3.028,4,6A3.913,3.913,0,0,1,12,20Zm0-8c-.469,0-2,1.705-2,4a1.913,1.913,0,0,0,2,2,1.913,1.913,0,0,0,2-2C14,13.705,12.469,12,12,12Zm0,12C6.486,24,2,19.881,2,14.818,2,5.23,8.606,0,12,0a5.762,5.762,0,0,1,5.589,4.355A14.989,14.989,0,0,0,20.037,9.11,8.27,8.27,0,0,1,22,14.818C22,19.881,17.514,24,12,24ZM12,2C9.678,2,4,6.492,4,14.818,4,18.778,7.589,22,12,22s8-3.222,8-7.182a6.373,6.373,0,0,0-1.555-4.5,16.967,16.967,0,0,1-2.772-5.39A3.779,3.779,0,0,0,12,2Z"/></svg>
