<?xml version="1.0" encoding="UTF-8"?>
<svg xmlns="http://www.w3.org/2000/svg" id="Layer_1" data-name="Layer 1" viewBox="0 0 24 24" width="512" height="512"><path d="M12,0A12,12,0,1,0,24,12,12.013,12.013,0,0,0,12,0Zm0,22A10,10,0,1,1,22,12,10.011,10.011,0,0,1,12,22Zm3-5a3,3,0,1,1-3-3A3,3,0,0,1,15,17Zm3.982-9.568L17.414,9l1.568,1.568-1.414,1.414L16,10.414l-1.568,1.568-1.414-1.414L14.586,9,13.018,7.432l1.414-1.414L16,7.586l1.568-1.568ZM8,10.414,6.432,11.982,5.018,10.568,6.586,9,5.018,7.432,6.432,6.018,8,7.586,9.568,6.018l1.414,1.414L9.414,9l1.568,1.568L9.568,11.982Z"/></svg>
