<?xml version="1.0" encoding="UTF-8"?>
<svg xmlns="http://www.w3.org/2000/svg" id="Layer_1" data-name="Layer 1" viewBox="0 0 24 24" width="512" height="512"><path d="M20.356,3.188A4.59,4.59,0,0,0,22,0H20a2.744,2.744,0,0,1-1,1.712A2.747,2.747,0,0,1,18,0H16a4.588,4.588,0,0,0,1.642,3.186A4.946,4.946,0,0,0,14,7.905a6.7,6.7,0,0,1-2.2,3.916,7.091,7.091,0,0,1-3.881,2.2,5,5,0,0,0-4.733,3.628A4.588,4.588,0,0,0,0,16v2a2.747,2.747,0,0,1,1.713,1A2.745,2.745,0,0,1,0,20v2a4.592,4.592,0,0,0,3.186-1.642A5.015,5.015,0,0,0,8,24c.962,0,6.011-.271,10.865-5.115C23.753,14.014,24,8.987,24,8.029A5.033,5.033,0,0,0,20.356,3.188Zm-2.9,14.281C13.155,21.761,8.82,22,8,22a3,3,0,0,1-3-2.979A2.971,2.971,0,0,1,5.868,16.9a3.059,3.059,0,0,1,2.205-.891,8.78,8.78,0,0,0,5.142-2.774A8.455,8.455,0,0,0,16,7.956,2.982,2.982,0,0,1,19,5a3.018,3.018,0,0,1,3,3.029C22,8.849,21.781,13.156,17.457,17.469Z"/></svg>
