<?xml version="1.0" encoding="UTF-8"?>
<svg xmlns="http://www.w3.org/2000/svg" id="Layer_1" data-name="Layer 1" viewBox="0 0 24 24" width="512" height="512"><path d="M11.208,17.614l1.845.772L10.705,24,8.86,23.229ZM4.571,23.229,6.416,24l2.349-5.615L6.92,17.614ZM13.726,13H16V11H13.726l1.13-1.973-1.734-.995L12,9.989,10.878,8.032l-1.735.995L10.274,11H8v2h2.274L9.143,14.973l1.735.995L12,14.011l1.122,1.957,1.734-.995Zm-.6,10.229L14.975,24l2.347-5.615-1.845-.772ZM17.44,5.059A8,8,0,0,0,2,8a7.968,7.968,0,0,0,.266,2.05,5.5,5.5,0,0,0,1.593,9.7l.777-1.858a3.5,3.5,0,0,1-.725-6.511l.8-.407-.318-.839A6,6,0,0,1,10,2a6.035,6.035,0,0,1,5.752,4.289l.206.691L16.679,7a5.5,5.5,0,0,1,3.607,9.483l-1.292,3.087A7.5,7.5,0,0,0,17.44,5.059Z"/></svg>
