<?xml version="1.0" encoding="UTF-8"?>
<svg xmlns="http://www.w3.org/2000/svg" id="Layer_1" data-name="Layer 1" viewBox="0 0 24 24" width="512" height="512"><path d="M24,13c0-1.626-1.338-3-2.923-3h-.555L15.84,3.285c-.561-.804-1.48-1.285-2.461-1.285H6.381c-1.239,0-2.366,.778-2.805,1.937L.98,10.784c-.602,.549-.98,1.339-.98,2.216v5H2v.5c0,1.93,1.57,3.5,3.5,3.5s3.5-1.57,3.5-3.5v-.5h6v.5c0,1.93,1.57,3.5,3.5,3.5s3.5-1.57,3.5-3.5v-.5h2v-5ZM7,18.5c0,.827-.673,1.5-1.5,1.5s-1.5-.673-1.5-1.5v-.5h3v.5Zm13,0c0,.827-.673,1.5-1.5,1.5s-1.5-.673-1.5-1.5v-.5h3v.5Zm2-2.5H2v-3c0-.551,.449-1,1-1h2v-2h-1.584l2.03-5.354c.146-.386,.522-.646,.935-.646h6.999c.327,0,.633,.16,.82,.428l3.884,5.572h-3.084v2h6.077c.492,0,.923,.467,.923,1v3Zm-9.191-6.154c.268,.499,.252,1.098-.037,1.58l-1.764,3.534-1.789-.894,1.53-3.066h-2.134c-.509,0-.994-.244-1.297-.653s-.396-.943-.249-1.43l2.224-4.161,1.76,.95-1.778,3.294h2.121c.592,0,1.133,.324,1.413,.846Z"/></svg>
