<?xml version="1.0" encoding="UTF-8"?>
<svg xmlns="http://www.w3.org/2000/svg" id="Layer_1" data-name="Layer 1" viewBox="0 0 24 24" width="512" height="512"><path d="M20,17.754V3.001c0-.95-.435-1.823-1.194-2.395-.758-.572-1.715-.752-2.63-.489l-3,.857c-.446,.127-.845,.354-1.176,.651-.331-.297-.73-.524-1.176-.651L7.824,.117c-.916-.263-1.873-.083-2.63,.489-.759,.572-1.194,1.445-1.194,2.395v14.753l8,2.286,8-2.286ZM13,3.858c0-.444,.298-.839,.726-.961l3-.857c.092-.026,.185-.039,.277-.039,.214,0,.423,.069,.599,.202,.253,.191,.398,.482,.398,.798v13.245l-5,1.429V3.858Zm-2,13.816l-5-1.429V3.001c0-.316,.145-.607,.398-.798,.252-.19,.572-.25,.876-.163l3,.857c.427,.122,.725,.517,.725,.961v13.816ZM24,3V20.611l-12,3.429L0,20.611V4c0-.95,.435-1.823,1.194-2.395,.249-.188,.523-.316,.806-.418V19.103l10,2.857,10-2.857V.187c.283,.102,.558,.23,.806,.418,.759,.572,1.194,1.445,1.194,2.395Z"/></svg>
