<?xml version="1.0" encoding="UTF-8"?>
<svg xmlns="http://www.w3.org/2000/svg" id="Layer_1" data-name="Layer 1" viewBox="0 0 24 24" width="512" height="512"><path d="M20.729,3.271,15.277,0H8.723L3.271,3.271,0,8.723v6.554l3.271,5.452L8.723,24h6.554l5.452-3.271L24,15.277V8.723ZM21.777,8.9l-4.039,4.846L13,11.382v-4.6l6.524-1.632ZM14.307,22H9.693l-2.44-6.508L12,13.118l4.748,2.374ZM9.277,2h5.446l2.693,1.615L12,4.969,6.584,3.616Zm-4.8,3.149L11,6.78v4.6L6.262,13.751,2.223,8.9ZM2,14.723v-2.96l3.123,3.748,1.934,5.157-2.328-1.4Zm17.271,4.548-2.329,1.4,1.933-5.156L22,11.763v2.96Z"/></svg>
