<?xml version="1.0" encoding="UTF-8"?>
<svg xmlns="http://www.w3.org/2000/svg" id="Layer_1" data-name="Layer 1" viewBox="0 0 24 24" width="512" height="512"><path d="M23.047,17.197l-4.318,3.935c-2.031,1.85-4.662,2.868-7.408,2.868H0v-2H11.32c2.247,0,4.399-.833,6.061-2.347l4.284-3.902c.347-.348,.43-.944,.156-1.324-.18-.249-.442-.399-.74-.424-.291-.019-.58,.082-.788,.29l-4.234,3.886c-.538,.508-1.262,.821-2.059,.821h-5v-2h5c.273,0,.521-.11,.701-.288h-.001l.023-.022c.171-.18,.277-.422,.277-.69v-1h-6.188c-2.403,0-4.664,.937-6.364,2.636l-1.017,1.018L.018,17.239l1.017-1.018c2.078-2.077,4.841-3.222,7.778-3.222h8.188v1.601l1.91-1.752c.591-.593,1.456-.915,2.331-.839,.88,.07,1.683,.525,2.203,1.248,.844,1.174,.673,2.866-.397,3.939ZM4,1V0h1c3.528,0,5.81,1.004,7,3.166,1.19-2.162,3.472-3.166,7-3.166h1V1c0,5.187-2.169,7.68-7,7.971v2.029h-2v-2.029c-4.831-.291-7-2.784-7-7.971ZM13.032,6.968c3.319-.223,4.713-1.616,4.936-4.936-3.319,.223-4.713,1.616-4.936,4.936ZM6.032,2.032c.223,3.319,1.616,4.713,4.936,4.936-.223-3.319-1.616-4.713-4.936-4.936Z"/></svg>
