<?xml version="1.0" encoding="UTF-8"?>
<svg xmlns="http://www.w3.org/2000/svg" id="Layer_1" data-name="Layer 1" viewBox="0 0 24 24" width="512" height="512"><path d="M1.343,7.238A10.985,10.985,0,0,1,.01,1.95,1.948,1.948,0,0,1,3.336.572l5.15,5.489a4.978,4.978,0,0,0-.481,2.11c0,.113.025.222.032.334L2.01,2.079A8.965,8.965,0,0,0,3.093,6.273,22.462,22.462,0,0,0,7.558,12.2L6.143,13.62A23.638,23.638,0,0,1,1.343,7.238ZM12.912,15.33l-1.543,1.545a11.311,11.311,0,0,0,5.415.972l5.748,6.109,1.456-1.37-6.471-6.9A8.122,8.122,0,0,1,12.912,15.33Zm.794-2.209a3,3,0,0,0,4.239,0L24.01,7.05,22.6,5.635l-6.065,6.072a1,1,0,0,1-1.414,0L14.412,11l6.773-6.779L19.772,2.806,13,9.586l-.706-.707a1,1,0,0,1,0-1.415l6.065-6.072L16.945-.022,10.88,6.05a3.005,3.005,0,0,0,0,4.243l.706.707L.034,22.564l1.413,1.414L13,12.414Z"/></svg>
