<?xml version="1.0" encoding="UTF-8"?>
<svg xmlns="http://www.w3.org/2000/svg" id="Layer_1" data-name="Layer 1" viewBox="0 0 24 24" width="512" height="512"><path d="M8.265,22l3.9-2.484-1.074-1.687,6.747-4.3,1.074,1.687,4.218-2.686-1.074-1.687,1.687-1.075L21.915,6.9a12.065,12.065,0,0,0-3.952-3.846L13.579.427A2.982,2.982,0,0,0,10.425.47L2.389,5.588a2.983,2.983,0,0,0-1.373,2.84l.527,5.084a12.077,12.077,0,0,0,1.814,5.207l1.829,2.87,1.687-1.074L7.818,22H0v2H24V22ZM3.463,7.274,11.5,2.157a1,1,0,0,1,1.053-.014L16.815,4.7l-13.3,8.468L3.006,8.222A1,1,0,0,1,3.463,7.274ZM5.045,17.645a9.994,9.994,0,0,1-1.1-2.376l1.4-.889.537.844a1,1,0,0,0,1.687-1.075l-.537-.844,8.434-5.371L16,8.778A1,1,0,0,0,17.683,7.7l-.537-.844,1.395-.889a10.091,10.091,0,0,1,1.687,2.006l.753,1.183-3.174,2.022-1.043.664h0l-6.747,4.3h0L5.8,18.829Z"/></svg>
