<?xml version="1.0" encoding="UTF-8"?>
<svg xmlns="http://www.w3.org/2000/svg" id="Layer_1" data-name="Layer 1" viewBox="0 0 24 24" width="512" height="512"><path d="M22,11v2H17.435L15.158,9.218l-1.952,4.736L11.49,12.869,13.5,8h-1.88L9.552,13.032a1,1,0,0,0,.39,1.225l5.048,3.192V24h-2V18.551l-4.116-2.6A3,3,0,0,1,7.7,12.273L9.454,8H6.618L4.895,11.447l-1.79-.894L5.382,6H13.86a3.015,3.015,0,0,1,2.57,1.453L18.565,11ZM15,5a2.5,2.5,0,1,0-2.5-2.5A2.5,2.5,0,0,0,15,5ZM6.825,16.8,6.331,18H1v2H7.669l.8-1.942-.665-.42A4.987,4.987,0,0,1,6.825,16.8Z"/></svg>
