<?xml version="1.0" encoding="UTF-8"?>
<svg xmlns="http://www.w3.org/2000/svg" id="Layer_1" data-name="Layer 1" viewBox="0 0 24 24" width="512" height="512"><path d="M24,8c-1.657,0-4.21,0-5.87-.716l4.577-4.577L21.293,1.293,16.716,5.87C16,4.21,16,1.657,16,0H14a27.572,27.572,0,0,0,.245,4.36c-3.362-2.032-6.614-1.772-9.232.846C1.477,8.742-1.415,21.036.774,23.226a4.586,4.586,0,0,0,3.075.759c4.527,0,12.261-2.314,14.945-5,2.618-2.618,2.877-5.871.846-9.232A27.572,27.572,0,0,0,24,10Zm-6.62,9.573c-3.155,3.156-13.865,5.154-15.173,4.26C1.271,20.484,3.272,9.775,6.427,6.62A4.938,4.938,0,0,1,9.966,4.993c1.782,0,3.741,1.062,5.861,3.181C19.46,11.808,19.983,14.97,17.38,17.573Zm-3.744-7.209a1.243,1.243,0,0,1,0,1.757A8.2,8.2,0,0,1,11,13a8.2,8.2,0,0,1,.879-2.636A1.243,1.243,0,0,1,13.636,10.364Zm-7,7a1.243,1.243,0,0,1,0,1.757A8.2,8.2,0,0,1,4,20a8.2,8.2,0,0,1,.879-2.636A1.243,1.243,0,0,1,6.636,17.364Zm10-4a1.243,1.243,0,0,1,0,1.757A8.2,8.2,0,0,1,14,16a8.2,8.2,0,0,1,.879-2.636A1.243,1.243,0,0,1,16.636,13.364Zm-6-4.243A8.2,8.2,0,0,1,8,10a8.2,8.2,0,0,1,.879-2.636,1.242,1.242,0,1,1,1.757,1.757Zm-2,3.243a1.243,1.243,0,0,1,0,1.757A8.2,8.2,0,0,1,6,15a8.2,8.2,0,0,1,.879-2.636A1.243,1.243,0,0,1,8.636,12.364Zm3,3a1.243,1.243,0,0,1,0,1.757A8.2,8.2,0,0,1,9,18a8.2,8.2,0,0,1,.879-2.636A1.243,1.243,0,0,1,11.636,15.364Z"/></svg>
