<?xml version="1.0" encoding="UTF-8"?>
<svg xmlns="http://www.w3.org/2000/svg" id="Layer_1" data-name="Layer 1" viewBox="0 0 24 24" width="512" height="512"><path d="M9.167,17.662a21.9,21.9,0,0,0,4.95-3.536,21.962,21.962,0,0,0,3.54-4.954c1.178,2.047,1.649,5.416-.707,7.778S11.214,18.839,9.167,17.662ZM11.006,4.818l-.491,4.425,4.424-.492-.221-1.987-1.94.215.216-1.94Zm-4.027,7.96-.215,1.94,1.987.221.492-4.424-4.425.491.221,1.988ZM21,9a2,2,0,0,0,0-4C19.9,5,16.54,7,16.54,7S19.9,9,21,9ZM5,21a2,2,0,0,0,4,0c0-1.105-2-4.46-2-4.46S5,19.9,5,21ZM23.8,9.852a3.994,3.994,0,0,1-1.864,1.027A10.117,10.117,0,0,1,22,12,10.011,10.011,0,0,1,12,22a10.117,10.117,0,0,1-1.121-.067A3.994,3.994,0,0,1,9.852,23.8,11.954,11.954,0,0,0,23.8,9.852ZM12,2a9.926,9.926,0,0,1,5.935,1.971,12.14,12.14,0,0,1,2.137-.825A11.98,11.98,0,0,0,3.146,20.072a12.14,12.14,0,0,1,.825-2.137A9.98,9.98,0,0,1,12,2Z"/></svg>
