<?xml version="1.0" encoding="UTF-8"?>
<svg xmlns="http://www.w3.org/2000/svg" id="Layer_1" data-name="Layer 1" viewBox="0 0 24 24" width="512" height="512"><path d="M21.99,16.72V8h-2v3.99h-3a3,3,0,0,0-2.316-2.921l-2.819-6.3A3,3,0,0,0,9.117.99H5V6H4A3,3,0,0,0,1,9l.01,5.99A5.032,5.032,0,0,0,5,23h8a5.031,5.031,0,0,0,4-8l0-1.013H19.99v2.73A8.838,8.838,0,0,0,22.6,23.01L24.01,21.6A6.853,6.853,0,0,1,21.99,16.72ZM7,2.99H9.117a1,1,0,0,1,.912.592L12.448,8.99H7ZM4,8H5V9.99l.01,1h8.98a1,1,0,0,1,1,1l0,1.423A4.975,4.975,0,0,0,13,13H5a4.965,4.965,0,0,0-1.993.415L3,9A1,1,0,0,1,4,8Zm9,13H5a3,3,0,0,1,0-6h8A3,3,0,0,1,13,21ZM6,18a1,1,0,0,1-2,0A1,1,0,0,1,6,18Zm8,0a1,1,0,0,1-2,0A1,1,0,0,1,14,18Zm-4,0a1,1,0,0,1-2,0A1,1,0,0,1,10,18Z"/></svg>
