<?xml version="1.0" encoding="UTF-8"?>
<svg xmlns="http://www.w3.org/2000/svg" id="Layer_1" data-name="Layer 1" viewBox="0 0 24 24" width="512" height="512"><path d="M17.874,11.712,15.586,14h-2.77a2.979,2.979,0,0,0-.5-.887l1.438-2.371,3.142-.771-.476-1.942-2.574.631-.631-2.574-1.942.477.771,3.142-1.43,2.358a2.994,2.994,0,0,0-1.222,0L7.959,9.705,8.73,6.563,6.788,6.086,6.157,8.66,3.583,8.029,3.107,9.971l3.142.771,1.438,2.371a2.979,2.979,0,0,0-.5.887H4.414L2.126,11.712.712,13.126,2.586,15,.712,16.874l1.414,1.414L4.414,16h2.77a2.979,2.979,0,0,0,.5.887L6.249,19.258l-3.142.771.476,1.942,2.574-.631.631,2.574,1.942-.477L7.959,20.3l1.43-2.358a2.994,2.994,0,0,0,1.222,0l1.43,2.358-.771,3.142,1.942.477.631-2.574,2.574.631.476-1.942-3.142-.771-1.438-2.371a2.979,2.979,0,0,0,.5-.887h2.77l2.288,2.288,1.414-1.414L17.414,15l1.874-1.874ZM9,15a1,1,0,1,1,1,1A1,1,0,0,1,9,15ZM24,5H21.726l1.131,1.973-1.735,1L20,6.011,18.878,7.968l-1.735-1L18.274,5H16V3h2.274L17.143,1.027,18.878.032,20,1.989,21.122.032l1.735.995L21.726,3H24Z"/></svg>
