<?xml version="1.0" encoding="UTF-8"?>
<svg xmlns="http://www.w3.org/2000/svg" id="Layer_1" data-name="Layer 1" viewBox="0 0 24 24" width="512" height="512"><path d="M21.832,11.445C20.89,10.032,20,8.7,20,7V6h1V4H20V3a3,3,0,0,0-3-3H15a3,3,0,0,0-3,3V4H11V6h1V7c0,1.7-.89,3.032-1.832,4.445A9.854,9.854,0,0,0,8,17c0,2.949,2.058,6.374,2.145,6.519l.292.481H21.562l.292-.481C21.942,23.374,24,19.949,24,17A9.847,9.847,0,0,0,21.832,11.445ZM14,3a1,1,0,0,1,1-1h2a1,1,0,0,1,1,1V4H14Zm4,3V7a7.908,7.908,0,0,0,1.184,4H12.816A7.908,7.908,0,0,0,14,7V6Zm2.415,16h-8.83A12.263,12.263,0,0,1,10,17a7.239,7.239,0,0,1,1.537-4h8.927A7.246,7.246,0,0,1,22,17,12.248,12.248,0,0,1,20.415,22ZM18,19a1,1,0,1,1-1-1A1,1,0,0,1,18,19Zm-2-3a1,1,0,1,1-1-1A1,1,0,0,1,16,16Zm4,0a1,1,0,1,1-1-1A1,1,0,0,1,20,16ZM7.162,22a21.873,21.873,0,0,0,.956,2H2.437l-.292-.481C2.058,23.374,0,19.949,0,17a9.854,9.854,0,0,1,2.168-5.555C3.11,10.032,4,8.7,4,7V6H3V4H4V3A3,3,0,0,1,7,0H9a2.981,2.981,0,0,1,1.685.52A4.936,4.936,0,0,0,10.1,2H7A1,1,0,0,0,6,3V4H9V6H6V7a7.9,7.9,0,0,1-1.189,4H8.065a16.777,16.777,0,0,0-1.131,2h-3.4A7.244,7.244,0,0,0,2,17a12.263,12.263,0,0,0,1.585,5Z"/></svg>
