<?xml version="1.0" encoding="UTF-8"?>
<svg xmlns="http://www.w3.org/2000/svg" id="Layer_1" data-name="Layer 1" viewBox="0 0 24 24" width="512" height="512"><path d="M22.922,9.689c-.684-.571-1.577-.807-2.458-.648l-6.18,1.124c-.913,.166-1.707,.634-2.284,1.289-.578-.655-1.371-1.123-2.285-1.289l-6.179-1.124c-.879-.16-1.774,.077-2.459,.648s-1.078,1.411-1.078,2.303v9.834l12,2.182,12-2.182V11.992c0-.892-.393-1.731-1.078-2.303Zm-11.922,12.104l-9-1.636V11.992c0-.407,.225-.656,.359-.768,.134-.112,.417-.289,.82-.216l6.179,1.124c.952,.173,1.642,1,1.642,1.968v7.694Zm11-1.636l-9,1.636v-7.694c0-.967,.69-1.795,1.642-1.968l6.18-1.124c.407-.07,.686,.104,.819,.216s.359,.36,.359,.768v8.165ZM12,9c2.481,0,4.5-2.019,4.5-4.5S14.481,0,12,0,7.5,2.019,7.5,4.5s2.019,4.5,4.5,4.5Zm0-7c1.379,0,2.5,1.122,2.5,2.5s-1.121,2.5-2.5,2.5-2.5-1.122-2.5-2.5,1.122-2.5,2.5-2.5Z"/></svg>
