<?xml version="1.0" encoding="UTF-8"?>
<svg xmlns="http://www.w3.org/2000/svg" id="Layer_1" data-name="Layer 1" viewBox="0 0 24 24" width="512" height="512"><path d="M12,0C5.383,0,0,5.083,0,11.33a3.642,3.642,0,0,0,2.785,3.629l.445.1.367-.271a16.588,16.588,0,0,1,4.2-2.069A43.128,43.128,0,0,0,7,19a5,5,0,0,0,10,0,43.144,43.144,0,0,0-.8-6.283,16.588,16.588,0,0,1,4.2,2.069l.368.272.444-.1A3.642,3.642,0,0,0,24,11.33C24,5.083,18.617,0,12,0Zm3,19a3,3,0,0,1-6,0,42.608,42.608,0,0,1,.956-6.819A12.342,12.342,0,0,1,12,12a12.333,12.333,0,0,1,2.044.181A42.608,42.608,0,0,1,15,19Zm6.14-6.134A17.571,17.571,0,0,0,12,10a17.575,17.575,0,0,0-9.141,2.866A1.629,1.629,0,0,1,2,11.33C2,6.186,6.486,2,12,2s10,4.186,10,9.33A1.624,1.624,0,0,1,21.14,12.866Z"/></svg>
