<?xml version="1.0" encoding="UTF-8"?>
<svg xmlns="http://www.w3.org/2000/svg" id="Layer_1" data-name="Layer 1" viewBox="0 0 24 24" width="512" height="512"><path d="M18.477,1.745L19.544,.056c1.73,1.012,3.238,2.363,4.439,3.955l-1.663,1.109c-1.045-1.361-2.35-2.513-3.843-3.375ZM5.523,1.745L4.456,.056C2.726,1.068,1.219,2.419,.017,4.011l1.663,1.109c1.045-1.361,2.35-2.513,3.843-3.375Zm2.477,9.255h4.953l-4.953,3.969v2.031h8v-2h-4.841l4.841-3.879v-2.121H8v2Zm15,2c0,2.88-1.121,5.496-2.939,7.459l1.928,2.118-1.479,1.346-1.935-2.126c-1.837,1.377-4.109,2.203-6.576,2.203s-4.739-.826-6.576-2.203l-1.935,2.126-1.479-1.346,1.928-2.118c-1.817-1.963-2.938-4.579-2.938-7.459C1,7.272,5.402,2.558,11,2.051V0h2V2.051c5.598,.508,10,5.221,10,10.949Zm-2,0c0-4.962-4.037-9-9-9S3,8.038,3,13s4.038,9,9,9,9-4.038,9-9Z"/></svg>
