<?xml version="1.0" encoding="UTF-8"?>
<svg xmlns="http://www.w3.org/2000/svg" id="Layer_1" data-name="Layer 1" viewBox="0 0 24 24" width="512" height="512"><path d="M18.842,5.059C18.246,1.6,16.056,0,14,0V2c1.174,0,2.358,1.065,2.81,3.119A6.01,6.01,0,0,0,12,11c0,2.5-2.38,4-4.681,4-3.471,0-4.628-2.8-4.986-5.15L2.2,9H.357l-.15.819A12,12,0,1,0,24,12V11A6.009,6.009,0,0,0,18.842,5.059Zm1.539,2.728a2.943,2.943,0,0,1-4.762,0,4,4,0,0,1,4.762,0ZM22,12A10,10,0,0,1,2.452,14.976,6.373,6.373,0,0,0,7.319,17C11.065,17,14,14.364,14,11a3.987,3.987,0,0,1,.343-1.621,4.936,4.936,0,0,0,7.314,0A3.987,3.987,0,0,1,22,11Z"/></svg>
