<?xml version="1.0" encoding="UTF-8"?>
<svg xmlns="http://www.w3.org/2000/svg" id="Layer_1" data-name="Layer 1" viewBox="0 0 24 24" width="512" height="512"><path d="M23,13.5C23,8.355,16.021,2.372,13.881.661a3,3,0,0,0-3.762,0C7.98,2.372,1,8.354,1,13.5A6.272,6.272,0,0,0,7,20a5.82,5.82,0,0,0,3.93-1.659C10.75,20.805,10.115,22,8,22H5v2H19V22H16c-2.115,0-2.75-1.2-2.93-3.659A5.82,5.82,0,0,0,17,20,6.272,6.272,0,0,0,23,13.5ZM11.971,22c.009-.016.02-.031.029-.047.009.016.02.031.029.047Zm.924-7.084L12,13.127l-.895,1.789C11.09,14.947,9.494,18,7,18a4.277,4.277,0,0,1-4-4.5c0-3.384,4.508-8.189,8.368-11.276a1,1,0,0,1,1.264,0C16.492,5.311,21,10.117,21,13.5A4.277,4.277,0,0,1,17,18C14.486,18,12.909,14.944,12.9,14.916Z"/></svg>
