<?xml version="1.0" encoding="UTF-8"?>
<!-- Generator: Adobe Illustrator 24.3.0, SVG Export Plug-In . SVG Version: 6.00 Build 0)  -->
<svg xmlns="http://www.w3.org/2000/svg" xmlns:xlink="http://www.w3.org/1999/xlink" version="1.1" id="Layer_1" x="0px" y="0px" viewBox="0 0 512 512" style="enable-background:new 0 0 512 512;" xml:space="preserve" width="512" height="512">
<path d="M320.387,128.647c0-11.751,9.526-21.277,21.277-21.277s21.277,9.526,21.277,21.277s-9.526,21.277-21.277,21.277  S320.387,140.398,320.387,128.647z M426.772,86.092c11.751,0,21.277-9.526,21.277-21.277s-9.526-21.277-21.277-21.277  s-21.277,9.526-21.277,21.277S415.021,86.092,426.772,86.092z M469.326,213.755c11.751,0,21.277-9.526,21.277-21.277  s-9.526-21.277-21.277-21.277s-21.277,9.526-21.277,21.277S457.575,213.755,469.326,213.755z M43.784,192.478  c0.094-82.218,66.721-148.846,148.94-148.94c13.192-0.018,26.326,1.75,39.043,5.255c-48.655,44.029-70.041,110.721-56.065,174.834  c10.237-15.949,23.201-29.971,38.299-41.426c1.003-49.78,28.086-95.372,71.321-120.067l32.937-18.745l-33.022-18.341  C193.173-26.835,76.481,5.738,24.598,97.802c-50.289,89.236-21.386,202.247,65.571,256.382c3.364-14.123,9.121-27.565,17.022-39.746  C67.421,286.566,43.753,241.042,43.784,192.478z M383.92,511.634h42.554V405.249H383.92V511.634z M414.474,256.671  c-29.069-57.725-99.428-80.955-157.153-51.886c-36.975,18.62-61.361,55.39-64.129,96.696  c-45.485,11.571-72.977,57.824-61.406,103.309c5.628,22.125,19.922,41.054,39.661,52.524v-73.342  c0.234-23.736,19.665-42.788,43.401-42.555c0.016,0,0.031,0,0.047,0h23.745l-2.596-23.596c-0.317-2.762-0.473-5.54-0.468-8.319  c-0.009-41.129,33.324-74.477,74.453-74.487c31.569-0.007,59.713,19.891,70.232,49.657l5.021,14.192h20.511  c35.253,0,63.831,28.578,63.831,63.831c-0.007,2.847-0.206,5.691-0.596,8.511v76.917c47.205-34.984,57.112-101.611,22.129-148.815  c-18.229-24.597-46.172-40.149-76.683-42.678V256.671z M298.812,511.634h42.554V405.249h-42.554V511.634z M213.703,511.634h42.554  V405.249h-42.554V511.634z"/>
</svg>
