<?xml version="1.0" encoding="UTF-8"?>
<svg xmlns="http://www.w3.org/2000/svg" id="Layer_1" data-name="Layer 1" viewBox="0 0 24 24" width="512" height="512"><path d="M16.716,6a2.789,2.789,0,0,0-1.419.378A3.78,3.78,0,0,0,13.716,6a3.039,3.039,0,0,0-.678.077C13.383,2.05,15.972,2,16,2a1,1,0,0,1,1,1V5a2,2,0,0,0,2-2,3,3,0,0,0-3-3,4.763,4.763,0,0,0-3.988,2.544A5.864,5.864,0,0,0,9.447.105L8.553,1.9c1.444.721,2.237,2.094,2.41,4.182A3.039,3.039,0,0,0,10.285,6,3.773,3.773,0,0,0,8.7,6.378,2.792,2.792,0,0,0,7.285,6C4.475,6,0,10.119,0,15s4.485,9,7.3,9a2.818,2.818,0,0,0,1.3-.312A3.5,3.5,0,0,0,10,24a2.8,2.8,0,0,0,1.069-.206,2.207,2.207,0,0,0,1.862,0A2.8,2.8,0,0,0,14,24a3.5,3.5,0,0,0,1.4-.312A2.818,2.818,0,0,0,16.7,24c2.817,0,7.3-4.119,7.3-9S19.525,6,16.716,6Zm-2.01,15.807A16.314,16.314,0,0,0,16,15a16.691,16.691,0,0,0-1.2-6.615A8.128,8.128,0,0,1,18,15C18,18.492,16.13,21.1,14.706,21.807Zm-5.412,0C7.87,21.1,6,18.491,6,15A8.13,8.13,0,0,1,9.2,8.385,16.7,16.7,0,0,0,8,15,16.314,16.314,0,0,0,9.294,21.807ZM2,15A8.041,8.041,0,0,1,6.393,8.229,10.669,10.669,0,0,0,4,15a11.033,11.033,0,0,0,2.138,6.642A8.075,8.075,0,0,1,2,15Zm10,7c-.581,0-2-2.453-2-7s1.419-7,2-7,2,2.453,2,7S12.581,22,12,22Zm5.862-.358A11.033,11.033,0,0,0,20,15a10.669,10.669,0,0,0-2.393-6.771A8.043,8.043,0,0,1,22,15,8.075,8.075,0,0,1,17.862,21.642Z"/></svg>
