<?xml version="1.0" encoding="UTF-8"?>
<svg xmlns="http://www.w3.org/2000/svg" id="Layer_1" data-name="Layer 1" viewBox="0 0 24 24" width="512" height="512"><path d="M20,14.999v9.001h-2V14.999l-2.293,2.293-1.414-1.414,3.293-3.293c.779-.779,2.049-.779,2.828,0l3.293,3.293-1.414,1.414-2.293-2.293Zm-4,9.001H5c-1.654,0-3-1.346-3-3V3C2,1.346,3.346,0,5,0h15c1.103,0,2,.897,2,2V11.342l-.172-.172c-.523-.523-1.159-.855-1.828-1.027V2H8V18h5.587l2,2H5c-.552,0-1,.449-1,1s.448,1,1,1h11v2Zm-12-5.828c.313-.111,.649-.172,1-.172h1V2h-1c-.552,0-1,.449-1,1v15.172Z"/></svg>
