<?xml version="1.0" encoding="UTF-8"?>
<svg xmlns="http://www.w3.org/2000/svg" id="Layer_1" data-name="Layer 1" viewBox="0 0 24 24" width="512" height="512"><path d="M23.98,21.566L16.756,1.967c-.276-.752-.828-1.352-1.556-1.688-.727-.338-1.542-.371-2.294-.094l-.939,.345c-.283,.104-.544,.246-.778,.423-.548-.585-1.326-.952-2.189-.952H3C1.346,0,0,1.346,0,3V24H12V9.305l5.408,14.672,6.572-2.41Zm-5.387-.154l-.965-2.619,2.816-1.033,.965,2.619-2.816,1.033Zm-1.657-4.495l-3.489-9.466,2.816-1.034,3.489,9.466-2.816,1.033ZM12.093,2.925c.112-.242,.312-.427,.563-.519l.939-.345c.112-.041,.229-.062,.345-.062,.143,0,.285,.031,.419,.093,.243,.112,.427,.312,.52,.564l.694,1.884-2.816,1.034-.695-1.885c-.092-.251-.081-.522,.031-.765Zm-2.093,.075v2h-3V2h2c.551,0,1,.448,1,1Zm-3,4h3v10h-3V7Zm-2,10H2V7h3v10ZM3,2h2v3H2V3c0-.552,.449-1,1-1Zm-1,17h3v3H2v-3Zm5,3v-3h3v3h-3Z"/></svg>
