<?xml version="1.0" encoding="UTF-8"?>
<svg xmlns="http://www.w3.org/2000/svg" id="Layer_1" data-name="Layer 1" viewBox="0 0 24 24" width="512" height="512"><path d="M14.523,17.891a7.765,7.765,0,0,0-1.725-1.1l5.7-5.7a20.7,20.7,0,0,1,.751,2.077ZM10,4A5.967,5.967,0,0,0,6.3,5.287L5.287,6.3A5.967,5.967,0,0,0,4,10c0,.135.012.263.02.394l6.361-6.361C10.252,4.026,10.132,4,10,4Zm9.845,11.741L16.12,19.466A1.531,1.531,0,0,0,17.5,20a2.47,2.47,0,0,0,1.276-.362l.862-.862A2.47,2.47,0,0,0,20,17.5,11.848,11.848,0,0,0,19.845,15.741ZM12.939,4.647,4.692,12.894a6.23,6.23,0,0,0,1.2,1.629L14.7,5.717A8.026,8.026,0,0,0,12.939,4.647ZM16.284,7.3,7.815,15.771A3.511,3.511,0,0,0,9,16a10.679,10.679,0,0,1,1.332.082l7.1-7.1A14.054,14.054,0,0,0,16.284,7.3ZM24,17.5C24,11.588,19.772,0,10,0A10.011,10.011,0,0,0,0,10c0,5.327,4.206,10,9,10a4.341,4.341,0,0,1,3.781,1.762A5.772,5.772,0,0,0,17.5,24,6.508,6.508,0,0,0,24,17.5Zm-2,0A4.505,4.505,0,0,1,17.5,22a3.794,3.794,0,0,1-3.258-1.6A6.3,6.3,0,0,0,9,18c-3.3,0-7-3.421-7-8a8.009,8.009,0,0,1,8-8C18.547,2,22,12.938,22,17.5Z"/></svg>
