<?xml version="1.0" encoding="UTF-8"?>
<svg xmlns="http://www.w3.org/2000/svg" id="Layer_1" data-name="Layer 1" viewBox="0 0 24 24" width="512" height="512"><path d="M17.823.77h0A2.669,2.669,0,0,0,15.075.133a2.507,2.507,0,0,0-1.7,2.053A2.263,2.263,0,0,1,11.418,4.14,3.115,3.115,0,0,0,8.759,6.8,2.262,2.262,0,0,1,6.805,8.756a3.114,3.114,0,0,0-2.657,2.66A2.242,2.242,0,0,1,3.5,12.727a2.265,2.265,0,0,1-1.351.65,2.489,2.489,0,0,0-2.008,1.7,2.669,2.669,0,0,0,.636,2.749l6.165,6.165.623-1.228a2.98,2.98,0,0,1,1.229-1.3l.281-.095A4.734,4.734,0,0,0,11.066,20.3a4.223,4.223,0,0,0,1.213-2.47,1.1,1.1,0,0,1,.928-.931,4.267,4.267,0,0,0,3.684-3.686,1.116,1.116,0,0,1,.928-.93,4.208,4.208,0,0,0,2.469-1.215,5.356,5.356,0,0,0,1.178-2.3c.153-.5.926-1.018,1.274-1.189L24,6.958ZM2.195,16.413a.683.683,0,0,1-.154-.7.49.49,0,0,1,.407-.356A4.261,4.261,0,0,0,6.131,11.67a1.1,1.1,0,0,1,.929-.929,4.264,4.264,0,0,0,3.682-3.686,1.1,1.1,0,0,1,.93-.93A4.219,4.219,0,0,0,14.14,4.911a4.433,4.433,0,0,0,1.215-2.485.481.481,0,0,1,.353-.394.737.737,0,0,1,.232-.038.65.65,0,0,1,.469.191l1.128,1.13a3.09,3.09,0,0,0-1.081,1.959A2.262,2.262,0,0,1,14.5,7.229,3.116,3.116,0,0,0,11.845,9.89a2.265,2.265,0,0,1-1.953,1.955,3.114,3.114,0,0,0-2.658,2.66A2.262,2.262,0,0,1,5.28,16.46a3.1,3.1,0,0,0-1.957,1.082ZM19.554,8.172a3.7,3.7,0,0,1-.679,1.478,2.234,2.234,0,0,1-1.31.644,3.116,3.116,0,0,0-2.658,2.661,2.262,2.262,0,0,1-1.953,1.955A3.115,3.115,0,0,0,10.3,17.571a2.234,2.234,0,0,1-.644,1.31,2.986,2.986,0,0,1-1.2.588l-.309.1a3.861,3.861,0,0,0-1.611,1.18L4.749,18.97a1.1,1.1,0,0,1,.785-.525A4.262,4.262,0,0,0,9.217,14.76a1.1,1.1,0,0,1,.929-.93,4.267,4.267,0,0,0,3.682-3.686,1.1,1.1,0,0,1,.929-.93A4.267,4.267,0,0,0,18.44,5.528a1.1,1.1,0,0,1,.523-.786l1.774,1.776A3.657,3.657,0,0,0,19.554,8.172Z"/></svg>
