<?xml version="1.0" encoding="UTF-8"?>
<svg xmlns="http://www.w3.org/2000/svg" id="Layer_1" data-name="Layer 1" viewBox="0 0 24 24" width="512" height="512"><path d="M12,24C5.619,24,1,15.9,1,10.444,1,4.686,5.935,0,12,0S23,4.686,23,10.444C23,15.9,18.381,24,12,24ZM12,2a8.746,8.746,0,0,0-9,8.444C3,15.008,7.032,22,12,22s9-6.992,9-11.556A8.746,8.746,0,0,0,12,2Zm4.5,7A2.292,2.292,0,0,0,14,11a2.292,2.292,0,0,0,2.5,2A2.292,2.292,0,0,0,19,11,2.292,2.292,0,0,0,16.5,9Zm-9,0A2.292,2.292,0,0,0,5,11a2.292,2.292,0,0,0,2.5,2A2.292,2.292,0,0,0,10,11,2.292,2.292,0,0,0,7.5,9ZM10,15a1,1,0,1,0,1,1A1,1,0,0,0,10,15Zm4,0a1,1,0,1,0,1,1A1,1,0,0,0,14,15ZM10,4a1,1,0,1,0,1,1A1,1,0,0,0,10,4Zm2,3a1,1,0,1,0,1,1A1,1,0,0,0,12,7Zm2-3a1,1,0,1,0,1,1A1,1,0,0,0,14,4ZM10,18a1,1,0,1,0,1,1A1,1,0,0,0,10,18Zm4,0a1,1,0,1,0,1,1A1,1,0,0,0,14,18Z"/></svg>
