<?xml version="1.0" encoding="UTF-8"?>
<svg xmlns="http://www.w3.org/2000/svg" id="Layer_1" data-name="Layer 1" viewBox="0 0 24 24" width="512" height="512"><path d="M22.407,5.462c-2.221-2.22-6.04-3.449-10.412-3.462-4.366,.021-8.255,1.314-10.402,3.462C.564,6.49,0,7.836,0,9.25v3.75H8v-4.255c1.301-.501,2.624-.735,3.995-.745,1.326,.006,2.671,.26,4.005,.756v4.244h8v-3.749c0-1.415-.564-2.761-1.593-3.789Zm-.407,5.538h-4v-3.582l-.607-.26c-1.779-.76-3.592-1.149-5.388-1.158-1.84-.014-3.667,.384-5.413,1.165l-.591,.265v3.57H2v-1.751c0-.88,.357-1.723,1.007-2.373,1.757-1.757,5.204-2.858,8.997-2.876h.088c3.773,0,7.096,1.072,8.9,2.876,.65,.65,1.008,1.493,1.007,2.374v1.75Zm-7,5v2h-2v-2h2Zm2,0h2v2h-2v-2Zm4,0h2v2h-2v-2Zm0,4h2v2h-2v-2ZM1,16H3v2H1v-2Zm0,4H3v2H1v-2Zm10-4v2h-2v-2h2Zm-4,0v2h-2v-2h2Zm-2,4h14v2H5v-2Z"/></svg>
