<?xml version="1.0" encoding="UTF-8"?>
<svg xmlns="http://www.w3.org/2000/svg" id="Layer_1" data-name="Layer 1" viewBox="0 0 24 24" width="512" height="512"><path d="M21.001,11H12v-2h9.001l-2.293-2.293,1.414-1.414,3.293,3.293c.779,.779,.779,2.049,0,2.828l-3.293,3.293-1.414-1.414,2.293-2.293Zm-3.001,5h2v8H3c-1.654,0-3-1.346-3-3V3C0,1.346,1.346,0,3,0h15c1.103,0,2,.897,2,2v2h-2V2H6V18h12v-2ZM2,3v15.172c.313-.111,.649-.172,1-.172h1V2h-1c-.552,0-1,.449-1,1ZM18,22v-2H3c-.552,0-1,.449-1,1s.448,1,1,1h15Z"/></svg>
