<?xml version="1.0" encoding="UTF-8"?>
<svg xmlns="http://www.w3.org/2000/svg" id="Layer_1" data-name="Layer 1" viewBox="0 0 24 24" width="512" height="512"><path d="M21.758,10.03A13.044,13.044,0,0,0,19,11.06C18.684,5.161,15.49,0,12,0S5.316,5.161,5.005,11.06a13.044,13.044,0,0,0-2.763-1.03L1,9.719V11c0,9.609,6.284,12.612,10.212,12.964L12,24l.788-.036C16.716,23.612,23,20.609,23,11V9.719ZM3.052,12.38A11.3,11.3,0,0,1,7,15v0H7a16.74,16.74,0,0,1,3.942,6.92C7.923,21.48,3.575,19.113,3.052,12.38ZM12,18.95A18.506,18.506,0,0,0,9.683,15H11V13H7.826q-.4-.36-.844-.7,0-.152,0-.3c0-.339.012-.672.032-1H8V9H7.266A14.921,14.921,0,0,1,7.8,7H11V5H8.672C9.693,3.13,10.987,2,12,2s2.307,1.13,3.328,3H13V7h3.2a14.921,14.921,0,0,1,.532,2H16v2h.989c.02.328.032.661.032,1q0,.152,0,.3-.441.336-.844.7H13v2h1.317A18.506,18.506,0,0,0,12,18.95Zm1.054,2.97A16.74,16.74,0,0,1,17,15h0v0a11.3,11.3,0,0,1,3.948-2.616C20.425,19.113,16.077,21.48,13.054,21.92ZM14,11H10V9h4Z"/></svg>
