<?xml version="1.0" encoding="UTF-8"?>
<svg xmlns="http://www.w3.org/2000/svg" id="Layer_1" data-name="Layer 1" viewBox="0 0 24 24" width="512" height="512"><path d="M23.96,11.5A3.084,3.084,0,0,0,20.893,9h-3.3L13.446,1.563A3,3,0,0,0,10.812,0H7.069l3.038,9H6.985l-1.1-1.657A2.994,2.994,0,0,0,3.388,6H.027L2.24,12l-2.2,6H3.4a2.991,2.991,0,0,0,2.5-1.347L6.988,15h3.119L7.069,24h3.743a3,3,0,0,0,2.63-1.556L17.588,15H21a3,3,0,0,0,2.96-3.5Zm-2.2,1.144A1,1,0,0,1,21,13H16.412L11.69,21.479a1,1,0,0,1-.878.521H9.854l3.039-9H5.908L4.233,15.552A1,1,0,0,1,3.4,16H2.906l1.465-4L2.9,8h.492a1,1,0,0,1,.833.448L5.911,11h6.982L9.854,2h.958a1,1,0,0,1,.882.529L16.412,11h4.481a1.083,1.083,0,0,1,1.092.825A1,1,0,0,1,21.763,12.647Z"/></svg>
