<?xml version="1.0" encoding="UTF-8"?>
<svg xmlns="http://www.w3.org/2000/svg" id="Layer_1" data-name="Layer 1" viewBox="0 0 24 24" width="512" height="512"><path d="M8.5,24c-2.27,0-4.404-.884-6.011-2.489-1.605-1.606-2.489-3.741-2.489-6.011C0,8.579,5.978,4.723,11.251,1.32L13,.191V4.313C17.743,1.833,21.98,.647,22.176,.594l1.699-.469-.469,1.699c-.054,.195-1.239,4.433-3.72,9.176h4.122l-1.129,1.749c-3.402,5.273-7.259,11.251-14.18,11.251ZM11,3.866C6.374,6.892,2,10.18,2,15.5c0,1.736,.676,3.368,1.903,4.597,1.229,1.228,2.86,1.903,4.597,1.903,5.32,0,8.608-4.374,11.634-9h-3.858l.856-1.497c1.853-3.235,3.102-6.468,3.769-8.403-1.936,.667-5.168,1.916-8.403,3.769l-1.497,.856V3.866Zm-2,15.134c-2.206,0-4-1.794-4-4s1.794-4,4-4,4,1.794,4,4-1.794,4-4,4Zm0-6c-1.103,0-2,.897-2,2s.897,2,2,2,2-.897,2-2-.897-2-2-2Z"/></svg>
