<?xml version="1.0" encoding="UTF-8"?>
<svg xmlns="http://www.w3.org/2000/svg" id="Layer_1" data-name="Layer 1" viewBox="0 0 24 24" width="512" height="512"><path d="M21,9a4,4,0,0,0-6-3.462V2a2,2,0,0,0-2-2H8V2H9V8c0,.661-1.212,1.68-2.281,2.579C4.976,12.044,3,13.7,3,16c0,2.6,1.453,3.939,2.991,5.356l.5.468A1.616,1.616,0,0,1,7,23v1H17V23a1.62,1.62,0,0,1,.5-1.177l.5-.467C19.547,19.939,21,18.6,21,16a5.36,5.36,0,0,0-1.782-3.673A4,4,0,0,0,21,9ZM17,7a2,2,0,0,1,.651,3.891l-.37-.312a9.038,9.038,0,0,1-2.2-2.259l.035.013A2.006,2.006,0,0,1,17,7Zm-.347,12.886-.517.479A3.618,3.618,0,0,0,15.141,22H8.859a3.609,3.609,0,0,0-1-1.634l-.517-.48C5.934,18.584,5,17.725,5,16a2.237,2.237,0,0,1,.258-1H18.742A2.237,2.237,0,0,1,19,16C19,17.725,18.066,18.584,16.653,19.886ZM17.032,13H6.968c.335-.3.688-.6,1.038-.891C9.545,10.815,11,9.593,11,8V2h2V8c0,1.593,1.455,2.815,2.994,4.109.339.285.681.573,1.006.862V13Z"/></svg>
