<?xml version="1.0" encoding="UTF-8"?>
<svg xmlns="http://www.w3.org/2000/svg" id="Layer_1" data-name="Layer 1" viewBox="0 0 24 24" width="512" height="512"><path d="M9,4H7V0H9Zm4-4H11V4h2ZM5,0H3V4H5ZM24,18c0,5.221-9.4,6-15,6A81.716,81.716,0,0,1,.835,22.986L0,22.847V16A9.01,9.01,0,0,1,9,7a18.144,18.144,0,0,1,2.409.164A17.517,17.517,0,0,1,17.091,6l.434-.014.538.537,1.716-1.715a1.5,1.5,0,1,1,2.063-.65A1.485,1.485,0,0,1,22.5,4a1.5,1.5,0,1,1-1.307,2.222L19.477,7.937l.538.538L20,8.909c-.006.19-.04.9-.164,1.833C22.442,12.856,24,15.548,24,18ZM10,12.312a3.667,3.667,0,0,0,1.08,2.608,3.777,3.777,0,0,0,5.215,0c1.145-1.146,1.577-4.153,1.683-5.653L16.733,8.022c-1.5.106-4.507.537-5.653,1.683A3.667,3.667,0,0,0,10,12.312ZM22,18a7.516,7.516,0,0,0-2.613-4.988,7.543,7.543,0,0,1-1.678,3.322A5.678,5.678,0,0,1,9.081,9,7.075,7.075,0,0,0,2,16v5.149A68.5,68.5,0,0,0,9,22C15,22,22,20.953,22,18Z"/></svg>
