<?xml version="1.0" encoding="UTF-8"?>
<svg xmlns="http://www.w3.org/2000/svg" id="Layer_1" data-name="Layer 1" viewBox="0 0 24 24" width="512" height="512"><path d="M16.717,4.697l-1.434-1.395,3.216-3.303h1.422l.079,1V11h-2V3.379l-1.283,1.318Zm5.283,11.803v1.5c0,3.309-2.691,6-6,6v-2c1.545,0,2.873-.89,3.539-2.175-.33,.104-.675,.175-1.039,.175-1.93,0-3.5-1.57-3.5-3.5s1.57-3.5,3.5-3.5,3.5,1.57,3.5,3.5Zm-3.5,1.5c.827,0,1.5-.673,1.5-1.5s-.673-1.5-1.5-1.5-1.5,.673-1.5,1.5,.673,1.5,1.5,1.5Zm-11.5,3V0h-2V21l-3.5-3.5L.086,18.914l4.5,4.5c.39,.39,.902,.585,1.414,.585s1.024-.195,1.414-.585l4.5-4.5-1.414-1.414-3.5,3.5Z"/></svg>
