<?xml version="1.0" encoding="UTF-8"?>
<svg xmlns="http://www.w3.org/2000/svg" id="Layer_1" data-name="Layer 1" viewBox="0 0 24 24" width="512" height="512"><path d="M13,24H4a4,4,0,0,1-.962-7.883A5.109,5.109,0,0,1,3,15.5a5.488,5.488,0,0,1,10.787-1.438A5,5,0,0,1,13,24ZM4,18a2,2,0,0,0,0,4h9a3,3,0,0,0,.062-6l-1.007,0-.1-.89A3.488,3.488,0,0,0,5,15.5a3.433,3.433,0,0,0,.218,1.164L5.694,18Zm15.375-1.867A6.111,6.111,0,0,1,24,14V12a8.114,8.114,0,0,0-5.741,2.392A6.914,6.914,0,0,1,19.375,16.133Zm-4.292-4.152c.072.136.156.264.221.4a6.923,6.923,0,0,1,1.471.734A10.015,10.015,0,0,1,24,10V8A12.034,12.034,0,0,0,15.083,11.981Zm-7.1-3.956C8.157,8.013,8.327,8,8.5,8a7.413,7.413,0,0,1,1.866.253A17.983,17.983,0,0,1,24,2V0A19.979,19.979,0,0,0,7.986,8.025Zm4.327,1.043a7.475,7.475,0,0,1,1.57,1.254A13.928,13.928,0,0,1,24,6V4A15.912,15.912,0,0,0,12.313,9.068Z"/></svg>
