<?xml version="1.0" encoding="utf-8"?>
<!-- Generator: Adobe Illustrator 16.0.3, SVG Export Plug-In . SVG Version: 6.00 Build 0)  -->
<!DOCTYPE svg PUBLIC "-//W3C//DTD SVG 1.1//EN" "http://www.w3.org/Graphics/SVG/1.1/DTD/svg11.dtd">
<svg version="1.1" id="Capa_1" xmlns="http://www.w3.org/2000/svg" xmlns:xlink="http://www.w3.org/1999/xlink" x="0px" y="0px"
	 width="1000px" height="1000px" viewBox="0 0 1000 1000" enable-background="new 0 0 1000 1000" xml:space="preserve">
<path fill-rule="evenodd" clip-rule="evenodd" d="M644.105,366.597c-0.178-18.636-0.375-37.273-0.518-55.91
	c-0.034-4.514-0.504-8.946-2.005-13.214c-4.317-12.279-13.147-19.112-25.841-21.113c-2.514-0.396-5.098-0.484-7.648-0.478
	c-30.076,0.073-60.152,0.194-90.228,0.286c-1.274,0.004-2.562-0.068-3.821-0.253c-2.952-0.433-4.141-1.662-4.563-4.675
	c-0.165-1.183-0.246-2.389-0.246-3.584c-0.006-34.794,0.003-69.589,0.021-104.384c0.001-1.036,0.07-2.081,0.212-3.107
	c0.396-2.888,1.497-4.059,4.402-4.535c1.253-0.205,2.547-0.208,3.822-0.211c28.877-0.081,57.753-0.146,86.63-0.226
	c4.402-0.012,8.792-0.174,13.106-1.209c13.759-3.301,22.093-11.939,25.049-25.702c0.667-3.103,0.967-6.337,1-9.515
	c0.445-42.304,31.752-81.667,72.16-92.331c7.827-2.065,15.763-3.48,23.863-3.865c3.606-0.171,7.198-0.134,10.724,0.785
	c8.12,2.116,13.763,8.621,14.213,17.013c0.369,6.862,0.311,13.751,0.326,20.629c0.05,21.917,0.074,43.835,0.026,65.752
	c-0.006,2.86-0.276,5.76-0.805,8.569c-1.036,5.503-4.146,9.705-9.077,12.316c-2.659,1.409-5.534,2.523-8.43,3.359
	c-32.568,9.401-56.984,34.538-64.734,67.492c-7.028,29.89,0.086,56.591,19.698,79.958c11.658,13.888,26.307,23.409,43.84,28.389
	c2.984,0.848,5.904,2.007,8.741,3.275c6.604,2.951,10.263,8.188,11.281,15.292c0.272,1.896,0.506,3.817,0.521,5.729
	c0.157,19.276,0.382,38.553,0.346,57.829c-0.023,12.238-0.695,24.461-2.264,36.615c-8.271,64.072-35.622,118.238-83.924,161.502
	c-23.193,20.776-48.928,37.541-77.924,49.126c-18.341,7.327-37.265,12.528-56.83,15.211c-8.704,1.194-17.481,1.867-26.232,2.715
	c-1.824,0.177-3.679,0.159-5.515,0.096c-2.695-0.093-3.696-1.093-3.916-3.822c-0.108-1.353-0.112-2.717-0.111-4.076
	c0.008-26.157,0.043-52.313,0.026-78.471c-0.005-8.798-0.15-17.597-0.2-26.395c-0.008-1.354,0.071-2.718,0.248-4.06
	c0.255-1.925,1.369-3.252,3.256-3.735c1.463-0.374,2.971-0.647,4.475-0.78c59.7-5.267,109.02-47.576,123.307-105.743
	c2.378-9.68,3.687-19.498,3.779-29.432c0.158-17.036,0.044-34.074,0.044-51.111C644.296,366.597,644.201,366.597,644.105,366.597z"
	/>
<path fill-rule="evenodd" clip-rule="evenodd" d="M363.905,367.158c0,5.198-0.019,10.396,0.004,15.594
	c0.06,13.756-0.134,27.52,0.274,41.266c0.558,18.763,5.622,36.455,14.314,53.036c15.827,30.192,39.108,52.544,70.68,65.805
	c13.338,5.603,27.311,8.974,41.784,10.063c0.638,0.048,1.273,0.128,1.908,0.212c3.506,0.462,4.718,1.711,4.996,5.259
	c0.094,1.193,0.048,2.397,0.049,3.598c0.016,34.556,0.031,69.11,0.04,103.666c0,1.438,0.06,2.892-0.121,4.312
	c-0.386,3.044-1.699,4.173-4.759,4.261c-1.118,0.031-2.241-0.002-3.358-0.063c-14.073-0.76-28.031-2.448-41.826-5.359
	c-33.855-7.144-64.913-20.747-93.266-40.546c-30.022-20.965-55.117-46.64-74.293-77.945c-14.914-24.348-25.211-50.572-31.879-78.286
	c-4.211-17.503-6.2-35.233-6.091-53.237c0.129-21.437,0.031-42.875,0.11-64.313c0.012-3.426,0.237-6.879,0.707-10.271
	c0.833-6.01,3.984-10.603,9.408-13.384c2.831-1.451,5.814-2.665,8.833-3.677c7.063-2.369,13.984-5.035,20.543-8.593
	c22.886-12.415,37.164-31.494,43.729-56.527c1.913-7.291,3.239-14.691,3.308-22.245c0.19-21.109-6.521-39.92-19.432-56.494
	c-11.89-15.263-27.085-25.858-45.722-31.362c-1.992-0.588-3.992-1.163-5.953-1.845c-9.169-3.19-14.644-10.565-14.828-20.257
	c-0.154-8.077-0.115-16.158-0.108-24.236c0.016-20.478,0.038-40.956,0.129-61.433c0.01-2.378,0.138-4.848,0.778-7.115
	c2.297-8.136,7.909-12.744,16.14-14.146c5.571-0.948,11.205-0.568,16.745,0.177c33.611,4.519,58.697,21.848,75.519,51.103
	c7.875,13.696,11.707,28.635,11.884,44.47c0.047,4.26,0.533,8.459,1.833,12.53c4.131,12.935,13.009,20.579,26.23,23.162
	c3.037,0.593,6.199,0.74,9.305,0.75c28.796,0.084,57.593,0.091,86.389,0.13c1.598,0.002,3.208-0.014,4.791,0.165
	c2.944,0.333,4.439,1.746,4.933,4.682c0.25,1.488,0.326,3.02,0.322,4.532c-0.054,23.196-0.168,46.393-0.194,69.588
	c-0.012,11.198,0.141,22.397,0.19,33.595c0.006,1.272-0.068,2.563-0.288,3.814c-0.48,2.742-1.687,3.912-4.387,4.295
	c-1.261,0.179-2.548,0.244-3.823,0.241c-29.596-0.088-59.193-0.187-88.789-0.303c-4.425-0.018-8.797,0.42-13.05,1.622
	c-12.213,3.453-19.669,11.525-22.422,23.823c-0.796,3.559-1.153,7.283-1.179,10.936c-0.125,17.917-0.07,35.835-0.079,53.753
	c0,0.399,0,0.799,0,1.199C363.925,367.157,363.915,367.157,363.905,367.158z"/>
<path fill-rule="evenodd" clip-rule="evenodd" d="M59.795,874.396c0-15.598-0.035-31.194,0.011-46.791
	c0.037-12.23,2.837-23.813,8.949-34.429c11.122-19.315,27.838-30.672,49.845-34.065c32.686-5.041,65.028,14.836,75.294,46.183
	c2.531,7.73,3.705,15.712,3.729,23.835c0.066,21.355,0.04,42.711,0.087,64.066c0.021,9.358,0.151,18.716,0.185,28.073
	c0.006,1.672-0.092,3.364-0.359,5.012c-0.424,2.612-1.784,3.944-4.38,4.392c-1.169,0.201-2.382,0.204-3.575,0.199
	c-6.474-0.027-12.947-0.081-19.42-0.137c-1.196-0.01-2.407,0.043-3.583-0.126c-2.265-0.325-3.338-1.489-3.64-3.79
	c-0.104-0.789-0.113-1.595-0.109-2.393c0.036-7.598,0.091-15.195,0.119-22.793c0.002-0.713-0.09-1.437-0.232-2.136
	c-0.36-1.775-1.487-2.802-3.27-3.021c-1.028-0.126-2.074-0.142-3.111-0.143c-18.476-0.008-36.952-0.009-55.428-0.002
	c-1.038,0.001-2.088-0.002-3.111,0.142c-2.036,0.285-3.125,1.402-3.41,3.439c-0.11,0.787-0.098,1.596-0.096,2.395
	c0.019,7.599,0.051,15.196,0.069,22.795c0.001,0.718,0.008,1.449-0.116,2.151c-0.36,2.035-1.437,3.075-3.508,3.355
	c-0.945,0.129-1.913,0.114-2.871,0.117c-7.277,0.022-14.554,0.034-21.831,0.049c-0.479,0.001-0.96,0.019-1.438-0.013
	c-3.253-0.215-4.595-1.542-4.808-4.776c-0.052-0.797-0.037-1.6-0.037-2.399c-0.002-16.396-0.001-32.793-0.001-49.189
	C59.764,874.396,59.78,874.396,59.795,874.396z M128.549,861.932c9.351,0,18.702,0.003,28.052-0.004
	c0.877-0.001,1.768,0.018,2.629-0.119c2.346-0.37,3.513-1.635,3.761-3.978c0.059-0.554,0.051-1.117,0.05-1.677
	c-0.019-9.351,0-18.701-0.094-28.051c-0.023-2.306-0.247-4.64-0.673-6.904c-3.215-17.064-18.138-28.363-34.543-27.987
	c-16.537,0.378-30.455,12.228-32.916,28.617c-0.519,3.457-0.566,7.002-0.61,10.509c-0.098,7.748-0.028,15.499-0.08,23.248
	c-0.034,5.046,1.225,6.346,6.372,6.347C109.848,861.934,119.198,861.933,128.549,861.932z"/>
<path fill-rule="evenodd" clip-rule="evenodd" d="M223.461,891.084c0-26.393,0.004-52.786-0.011-79.18
	c-0.001-1.674-0.117-3.352-0.258-5.021c-0.242-2.87,0.751-4.122,3.624-4.564c3.317-0.512,5.988,0.546,7.996,3.222
	c1.295,1.728,2.464,3.554,3.825,5.225c1.103,1.355,2.289,2.695,3.651,3.774c2.204,1.747,4.069,1.702,6.389,0.133
	c0.725-0.49,1.438-1.036,2.038-1.668c5.961-6.289,13.508-9.901,21.566-12.483c34.396-11.021,71.138,9.211,80.251,44.363
	c4.365,16.834,4.027,33.616-2.85,49.851c-9.136,21.567-25.651,34.031-48.5,38.044c-12.663,2.225-24.837,0.116-36.244-5.974
	c-1.34-0.715-2.666-1.461-4.038-2.108c-2.978-1.407-3.726-0.982-3.906,2.234c-0.103,1.835-0.115,3.677-0.119,5.516
	c-0.028,13.117-0.037,26.233-0.069,39.35c-0.003,1.357-0.049,2.723-0.191,4.071c-0.234,2.232-1.052,3.104-3.272,3.473
	c-1.019,0.17-2.07,0.185-3.107,0.193c-6.877,0.059-13.753,0.107-20.63,0.139c-4.273,0.019-5.912-1.513-6.254-5.813
	c-0.069-0.875-0.081-1.757-0.078-2.636c0.049-13.356,0.126-26.713,0.153-40.068c0.027-13.357,0.006-26.714,0.006-40.07
	C223.441,891.084,223.451,891.084,223.461,891.084z M322.198,864.981c-0.268-2.541-0.376-5.111-0.833-7.618
	c-1.835-10.055-6.762-18.052-15.935-23.021c-5.864-3.176-12.214-4.179-18.812-3.636c-11.284,0.93-19.876,6.199-25.251,16.238
	c-4.483,8.374-5.254,17.353-3.503,26.582c1.189,6.269,3.876,11.848,8.289,16.498c7.156,7.542,16.119,10.52,26.295,9.716
	c11.345-0.896,19.971-6.331,25.395-16.459C320.891,877.592,322.046,871.415,322.198,864.981z"/>
<path fill-rule="evenodd" clip-rule="evenodd" d="M867.657,930.825c-11.996,0-23.992,0-35.989,0c-5.061,0-6.542-1.595-6.485-6.636
	c0.075-6.636,0.021-13.272,0.02-19.908c0-0.16-0.014-0.319-0.015-0.479c-0.023-4.255,1.459-5.876,5.709-5.894
	c8.638-0.036,17.275,0.049,25.913,0.054c13.757,0.008,27.514-0.028,41.271-0.001c2.912,0.006,5.549-0.58,7.695-2.688
	c1.791-1.76,2.462-3.891,2.078-6.343c-0.352-2.242-1.662-3.579-3.918-3.938c-1.1-0.175-2.23-0.204-3.348-0.218
	c-11.117-0.134-22.234-0.201-33.35-0.387c-10.234-0.171-19.515-3.179-27.479-9.758c-13.727-11.339-18.417-29.682-11.841-46.222
	c1.903-4.789,4.472-9.199,7.858-13.104c7.557-8.712,17.3-12.68,28.64-12.804c15.194-0.167,30.392-0.117,45.588-0.155
	c5.519-0.014,11.038-0.034,16.557-0.016c4.976,0.018,6.314,1.56,6.23,6.551c-0.11,6.553-0.042,13.108-0.049,19.663
	c0,0.16,0.019,0.32,0.021,0.479c0.095,4.54-1.367,6.081-5.96,6.082c-19.035,0.002-38.07-0.036-57.106-0.025
	c-1.748,0.001-3.535,0.068-5.237,0.424c-4.047,0.844-6.346,3.866-6.254,7.911c0.096,4.186,2.372,6.873,6.548,7.604
	c1.172,0.205,2.384,0.239,3.578,0.244c10.477,0.04,20.953,0.027,31.43,0.089c5.802,0.034,11.472,0.972,16.913,3.018
	c19.26,7.238,29.191,28.602,22.253,48.397c-4.648,13.261-13.572,22.465-27.276,26.453c-3.028,0.882-6.287,1.296-9.447,1.339
	c-11.515,0.154-23.032,0.061-34.548,0.061C867.657,930.688,867.657,930.757,867.657,930.825z"/>
<path fill-rule="evenodd" clip-rule="evenodd" d="M755.733,865.108c0.292,27.814-16.187,52.952-41.307,63.383
	c-29.106,12.085-62.625,1.203-79.702-25.925c-8.771-13.933-11.904-29.149-10.078-45.446c1.535-13.697,6.41-26.066,15.275-36.651
	c13.478-16.093,30.863-23.918,51.842-23.497c32.36,0.649,57.899,23.916,63.147,55.487c0.327,1.971,0.669,3.95,0.791,5.938
	C755.839,860.627,755.733,862.871,755.733,865.108z M722.386,865.306c-0.206-2.226-0.312-4.466-0.634-6.674
	c-2.32-15.876-14.01-27.279-30.406-28.045c-13.389-0.626-25.131,6.401-30.546,18.657c-2.983,6.753-3.823,13.842-2.894,21.126
	c2.223,17.42,15.877,30.321,33.721,29.437c10.579-0.524,19.045-5.041,24.925-13.984
	C720.632,879.615,722.224,872.676,722.386,865.306z"/>
<path fill-rule="evenodd" clip-rule="evenodd" d="M428.484,796.98c17.596,0.11,30.895,3.746,42.59,12.323
	c13.066,9.583,21.069,22.575,24.762,38.213c4.409,18.673,2.409,36.603-7.537,53.205c-9.94,16.594-24.366,27.363-43.43,31.297
	c-25.434,5.248-50.86-5.051-65.755-26.349c-7.119-10.179-11.186-21.494-12.241-33.869c-1.595-18.708,2.85-35.778,14.597-50.55
	C394.252,805.178,411.177,797.268,428.484,796.98z M464.241,865.351c-0.1-1.675-0.128-3.357-0.313-5.023
	c-0.821-7.412-3.302-14.166-8.351-19.766c-5.952-6.603-13.541-9.699-22.346-9.938c-10.678-0.288-19.589,3.515-26.233,11.943
	c-6.854,8.694-8.671,18.755-6.822,29.457c2.792,16.155,16.203,28.695,33.812,27.766c11.67-0.616,20.576-5.924,26.114-16.374
	C463.085,877.791,464.204,871.686,464.241,865.351z"/>
<path fill-rule="evenodd" clip-rule="evenodd" d="M454.819,410.736c0,37.273,0.003,74.546-0.007,111.82
	c0,1.997,0.023,4.009-0.207,5.986c-0.26,2.234-1.137,2.677-3.31,1.949c-0.756-0.253-1.49-0.582-2.212-0.923
	c-9.662-4.565-18.569-10.332-26.992-16.883c-2.949-2.294-4.189-5.264-4.178-8.964c0.057-18.316,0.063-36.633,0.059-54.95
	c-0.013-51.11-0.042-102.221-0.044-153.332c0-1.507,0.117-3.035,0.382-4.518c0.336-1.881,1.657-2.864,3.511-3.079
	c0.949-0.109,1.915-0.089,2.874-0.091c7.676-0.018,15.354,0.021,23.03-0.057c5.318-0.054,7.136,1.54,7.149,6.902
	c0.03,12.877-0.045,25.755-0.05,38.632C454.812,359.065,454.819,384.9,454.819,410.736z"/>
<path fill-rule="evenodd" clip-rule="evenodd" d="M556.093,409.699c0-37.592-0.006-75.184,0.018-112.775
	c0.001-1.826,0.119-3.676,0.432-5.472c0.39-2.233,1.919-3.43,4.158-3.667c0.872-0.093,1.754-0.115,2.632-0.113
	c7.274,0.018,14.55,0.049,21.824,0.077c0.799,0.003,1.602-0.042,2.397,0.014c2.928,0.205,4.331,1.435,4.854,4.349
	c0.182,1.014,0.193,2.069,0.193,3.105c-0.023,55.028-0.066,110.056-0.083,165.084c-0.003,12.557,0.087,25.114,0.118,37.672
	c0.003,1.437,0.019,2.891-0.175,4.309c-0.531,3.897-2.381,7.123-5.456,9.552c-8.053,6.361-16.651,11.9-25.749,16.641
	c-3.559,1.854-5.062,0.909-5.1-3.118c-0.061-6.398,0.013-12.798,0.014-19.196c0.003-32.153,0.001-64.306,0.001-96.459
	C556.146,409.699,556.119,409.699,556.093,409.699z"/>
<path fill-rule="evenodd" clip-rule="evenodd" d="M548.172,841.323c0,21.356-0.013,42.712,0.008,64.068
	c0.006,5.919,0.13,11.837,0.155,17.756c0.005,1.271-0.069,2.564-0.304,3.811c-0.457,2.429-1.523,3.382-4.008,3.749
	c-0.785,0.116-1.592,0.118-2.388,0.12c-6.553,0.015-13.105,0.018-19.659,0.024c-0.559,0-1.121,0.044-1.677-0.003
	c-3.365-0.281-4.661-1.485-5.143-4.868c-0.156-1.103-0.193-2.229-0.193-3.346c-0.01-54.47-0.014-108.94,0.006-163.41
	c0-1.59,0.113-3.206,0.417-4.763c0.39-2.003,1.724-3.219,3.791-3.45c1.027-0.115,2.073-0.09,3.11-0.093
	c6.236-0.017,12.474,0.078,18.706-0.065c5.386-0.124,7.321,1.483,7.345,6.964c0.044,9.918-0.074,19.837-0.083,29.755
	c-0.018,17.917-0.006,35.834-0.006,53.751C548.225,841.323,548.198,841.323,548.172,841.323z"/>
<path fill-rule="evenodd" clip-rule="evenodd" d="M606.518,840.543c0,27.353,0.007,54.706-0.016,82.059
	c-0.001,1.508-0.125,3.034-0.385,4.518c-0.355,2.025-1.646,3.258-3.707,3.535c-1.102,0.148-2.225,0.199-3.337,0.196
	c-6.233-0.019-12.471-0.219-18.699-0.058c-5.529,0.143-7.072-1.11-7.069-6.674c0.021-35.591,0.076-71.183,0.072-106.773
	c-0.003-19.035-0.107-38.07-0.151-57.104c-0.004-1.438,0.012-2.887,0.181-4.311c0.377-3.19,1.916-4.67,5.097-5.026
	c0.713-0.08,1.436-0.09,2.153-0.086c6.395,0.034,12.789,0.08,19.184,0.119c0.399,0.003,0.8-0.034,1.199-0.031
	c3.73,0.027,5.182,1.407,5.423,5.178c0.046,0.718,0.031,1.439,0.031,2.159c0.001,27.434,0.001,54.866,0.001,82.3
	C606.502,840.543,606.51,840.543,606.518,840.543z"/>
<path fill-rule="evenodd" clip-rule="evenodd" d="M806.722,780.534c-0.337,12.957-3.834,24.877-11.638,35.378
	c-0.477,0.642-0.967,1.273-1.472,1.893c-3.612,4.436-5.888,4.732-10.586,1.449c-1.438-1.006-2.956-1.898-4.407-2.888
	c-2.427-1.652-2.858-3.369-1.481-5.948c0.449-0.843,1.042-1.608,1.542-2.426c0.582-0.952,1.219-1.884,1.683-2.894
	c1.326-2.88,0.778-5.009-1.76-6.932c-0.759-0.575-1.587-1.09-2.446-1.499c-7.343-3.497-10.454-9.611-10.497-17.414
	c-0.057-10.472,6.797-18.736,17.098-20.704c11.429-2.184,23.397,6.23,23.958,18.867
	C806.762,778.454,806.722,779.495,806.722,780.534z"/>
</svg>
